%TF.GenerationSoftware,KiCad,Pcbnew,7.0.10*%
%TF.CreationDate,2024-02-15T17:51:49+01:00*%
%TF.ProjectId,stylophone,7374796c-6f70-4686-9f6e-652e6b696361,rev?*%
%TF.SameCoordinates,Original*%
%TF.FileFunction,Copper,L2,Bot*%
%TF.FilePolarity,Positive*%
%FSLAX46Y46*%
G04 Gerber Fmt 4.6, Leading zero omitted, Abs format (unit mm)*
G04 Created by KiCad (PCBNEW 7.0.10) date 2024-02-15 17:51:49*
%MOMM*%
%LPD*%
G01*
G04 APERTURE LIST*
%TA.AperFunction,ComponentPad*%
%ADD10C,2.600000*%
%TD*%
%TA.AperFunction,ComponentPad*%
%ADD11O,2.200000X3.500000*%
%TD*%
%TA.AperFunction,ComponentPad*%
%ADD12R,1.500000X2.500000*%
%TD*%
%TA.AperFunction,ComponentPad*%
%ADD13O,1.500000X2.500000*%
%TD*%
%TA.AperFunction,ComponentPad*%
%ADD14R,2.600000X2.600000*%
%TD*%
%TA.AperFunction,ComponentPad*%
%ADD15O,2.000000X2.000000*%
%TD*%
%TA.AperFunction,ComponentPad*%
%ADD16R,2.600000X2.000000*%
%TD*%
%TA.AperFunction,ComponentPad*%
%ADD17O,2.600000X2.000000*%
%TD*%
%TA.AperFunction,ComponentPad*%
%ADD18O,2.600000X2.600000*%
%TD*%
%TA.AperFunction,ViaPad*%
%ADD19C,2.000000*%
%TD*%
%TA.AperFunction,Conductor*%
%ADD20C,0.900000*%
%TD*%
G04 APERTURE END LIST*
D10*
%TO.P,RV_G1,1,1*%
%TO.N,/G*%
X81574000Y-79462000D03*
%TO.P,RV_G1,2,2*%
%TO.N,/DIS*%
X86574000Y-76962000D03*
%TO.P,RV_G1,3,3*%
%TO.N,/GND*%
X81574000Y-74462000D03*
%TD*%
%TO.P,RV_F#1,1,1*%
%TO.N,/F#*%
X75478000Y-69302000D03*
%TO.P,RV_F#1,2,2*%
%TO.N,/DIS*%
X80478000Y-66802000D03*
%TO.P,RV_F#1,3,3*%
%TO.N,/GND*%
X75478000Y-64302000D03*
%TD*%
%TO.P,RV_G#1,1,1*%
%TO.N,/G#*%
X87924000Y-69302000D03*
%TO.P,RV_G#1,2,2*%
%TO.N,/DIS*%
X92924000Y-66802000D03*
%TO.P,RV_G#1,3,3*%
%TO.N,/GND*%
X87924000Y-64302000D03*
%TD*%
D11*
%TO.P,SW1,*%
%TO.N,*%
X101600000Y-30480000D03*
X109800000Y-30480000D03*
D12*
%TO.P,SW1,1,A*%
%TO.N,/VCC*%
X103700000Y-30480000D03*
D13*
%TO.P,SW1,2,A*%
X105700000Y-30480000D03*
%TO.P,SW1,3,B*%
%TO.N,/VCC_Sw*%
X107700000Y-30480000D03*
%TD*%
D10*
%TO.P,RV_E1,1,1*%
%TO.N,/E*%
X56682000Y-79462000D03*
%TO.P,RV_E1,2,2*%
%TO.N,/DIS*%
X61682000Y-76962000D03*
%TO.P,RV_E1,3,3*%
%TO.N,/GND*%
X56682000Y-74462000D03*
%TD*%
%TO.P,RV2,1,1*%
%TO.N,/GND*%
X129500000Y-32940000D03*
%TO.P,RV2,2,2*%
%TO.N,/Q*%
X127000000Y-27940000D03*
%TO.P,RV2,3,3*%
%TO.N,unconnected-(RV2-Pad3)*%
X124500000Y-32940000D03*
%TD*%
%TO.P,RV_C#1,1,1*%
%TO.N,/C#*%
X37886000Y-69302000D03*
%TO.P,RV_C#1,2,2*%
%TO.N,/DIS*%
X42886000Y-66802000D03*
%TO.P,RV_C#1,3,3*%
%TO.N,/GND*%
X37886000Y-64302000D03*
%TD*%
%TO.P,RV_F1,1,1*%
%TO.N,/F*%
X69128000Y-79462000D03*
%TO.P,RV_F1,2,2*%
%TO.N,/DIS*%
X74128000Y-76962000D03*
%TO.P,RV_F1,3,3*%
%TO.N,/GND*%
X69128000Y-74462000D03*
%TD*%
D14*
%TO.P,BZ1,1,-*%
%TO.N,Net-(BZ1--)*%
X81280000Y-33020000D03*
D10*
%TO.P,BZ1,2,+*%
%TO.N,/GND*%
X88880000Y-33020000D03*
%TD*%
%TO.P,RV_B1,1,1*%
%TO.N,/B*%
X106466000Y-79462000D03*
%TO.P,RV_B1,2,2*%
%TO.N,/DIS*%
X111466000Y-76962000D03*
%TO.P,RV_B1,3,3*%
%TO.N,/GND*%
X106466000Y-74462000D03*
%TD*%
D15*
%TO.P,C1,1*%
%TO.N,/GND*%
X58420000Y-50760000D03*
%TO.P,C1,2*%
%TO.N,Net-(U1-THR)*%
X58420000Y-48260000D03*
%TD*%
D16*
%TO.P,U1,1,GND*%
%TO.N,/GND*%
X73660000Y-45720000D03*
D17*
%TO.P,U1,2,TR*%
%TO.N,Net-(U1-THR)*%
X73660000Y-48260000D03*
%TO.P,U1,3,Q*%
%TO.N,/Q*%
X73660000Y-50800000D03*
%TO.P,U1,4,R*%
%TO.N,/VCC_Sw*%
X73660000Y-53340000D03*
%TO.P,U1,5,CV*%
%TO.N,unconnected-(U1-CV-Pad5)*%
X81280000Y-53340000D03*
%TO.P,U1,6,THR*%
%TO.N,Net-(U1-THR)*%
X81280000Y-50800000D03*
%TO.P,U1,7,DIS*%
%TO.N,/DIS*%
X81280000Y-48260000D03*
%TO.P,U1,8,VCC*%
%TO.N,/VCC_Sw*%
X81280000Y-45720000D03*
%TD*%
D10*
%TO.P,RV_D1,1,1*%
%TO.N,/D*%
X44236000Y-79462000D03*
%TO.P,RV_D1,2,2*%
%TO.N,/DIS*%
X49236000Y-76962000D03*
%TO.P,RV_D1,3,3*%
%TO.N,/GND*%
X44236000Y-74462000D03*
%TD*%
%TO.P,RV_A#1,1,1*%
%TO.N,/A#*%
X100370000Y-69302000D03*
%TO.P,RV_A#1,2,2*%
%TO.N,/DIS*%
X105370000Y-66802000D03*
%TO.P,RV_A#1,3,3*%
%TO.N,/GND*%
X100370000Y-64302000D03*
%TD*%
%TO.P,RV_C1,1,1*%
%TO.N,/C*%
X31790000Y-79462000D03*
%TO.P,RV_C1,2,2*%
%TO.N,/DIS*%
X36790000Y-76962000D03*
%TO.P,RV_C1,3,3*%
%TO.N,/GND*%
X31790000Y-74462000D03*
%TD*%
%TO.P,RV_C2,1,1*%
%TO.N,/C2*%
X118912000Y-79462000D03*
%TO.P,RV_C2,2,2*%
%TO.N,/DIS*%
X123912000Y-76962000D03*
%TO.P,RV_C2,3,3*%
%TO.N,/GND*%
X118912000Y-74462000D03*
%TD*%
D14*
%TO.P,BT1,1,+*%
%TO.N,/VCC*%
X48260000Y-40640000D03*
D10*
%TO.P,BT1,2,-*%
%TO.N,/GND*%
X28260000Y-40640000D03*
%TD*%
%TO.P,RV_A1,1,1*%
%TO.N,/A*%
X94020000Y-79462000D03*
%TO.P,RV_A1,2,2*%
%TO.N,/DIS*%
X99020000Y-76962000D03*
%TO.P,RV_A1,3,3*%
%TO.N,/GND*%
X94020000Y-74462000D03*
%TD*%
D14*
%TO.P,D1,1,K*%
%TO.N,Net-(BZ1--)*%
X104140000Y-48260000D03*
D18*
%TO.P,D1,2,A*%
%TO.N,/Q*%
X107950000Y-48260000D03*
%TD*%
D10*
%TO.P,RV_D#1,1,1*%
%TO.N,/D#*%
X50586000Y-69302000D03*
%TO.P,RV_D#1,2,2*%
%TO.N,/DIS*%
X55586000Y-66802000D03*
%TO.P,RV_D#1,3,3*%
%TO.N,/GND*%
X50586000Y-64302000D03*
%TD*%
D19*
%TO.N,Net-(BZ1--)*%
X57912000Y-35052000D03*
%TO.N,/A*%
X96520000Y-92964000D03*
%TO.N,/D*%
X46736000Y-92964000D03*
%TO.N,/G*%
X84074000Y-92964000D03*
%TO.N,/GND*%
X66548000Y-74422000D03*
X66548000Y-64262000D03*
%TO.N,/Q*%
X76200000Y-36576000D03*
%TO.N,/DIS*%
X64516000Y-66802000D03*
X64516000Y-76962000D03*
%TO.N,/VCC_Sw*%
X121920000Y-48260000D03*
X77470000Y-50038000D03*
%TD*%
D20*
%TO.N,Net-(BZ1--)*%
X81280000Y-33020000D02*
X96520000Y-48260000D01*
X81280000Y-33020000D02*
X59944000Y-33020000D01*
X59944000Y-33020000D02*
X57912000Y-35052000D01*
X96520000Y-48260000D02*
X104140000Y-48260000D01*
%TO.N,/A*%
X94020000Y-90464000D02*
X96520000Y-92964000D01*
X94020000Y-79462000D02*
X94020000Y-90464000D01*
%TO.N,/D*%
X44236000Y-90464000D02*
X46736000Y-92964000D01*
X44236000Y-79462000D02*
X44236000Y-90464000D01*
%TO.N,/G*%
X81574000Y-79462000D02*
X81574000Y-90464000D01*
X81574000Y-90464000D02*
X84074000Y-92964000D01*
%TO.N,/GND*%
X106466000Y-74462000D02*
X94020000Y-74462000D01*
X66294000Y-64262000D02*
X66254000Y-64302000D01*
X66254000Y-64302000D02*
X50586000Y-64302000D01*
X87924000Y-64302000D02*
X75478000Y-64302000D01*
X50586000Y-64302000D02*
X37886000Y-64302000D01*
X81574000Y-74462000D02*
X69128000Y-74462000D01*
X66254000Y-74462000D02*
X56682000Y-74462000D01*
X66334000Y-64302000D02*
X66294000Y-64262000D01*
X44236000Y-74462000D02*
X31790000Y-74462000D01*
X56682000Y-74462000D02*
X44236000Y-74462000D01*
X118912000Y-74462000D02*
X106466000Y-74462000D01*
X69128000Y-74462000D02*
X66334000Y-74462000D01*
X66294000Y-74422000D02*
X66254000Y-74462000D01*
X100370000Y-64302000D02*
X87924000Y-64302000D01*
X75478000Y-64302000D02*
X66334000Y-64302000D01*
X94020000Y-74462000D02*
X81574000Y-74462000D01*
X66334000Y-74462000D02*
X66294000Y-74422000D01*
%TO.N,Net-(U1-THR)*%
X58420000Y-48260000D02*
X73660000Y-48260000D01*
%TO.N,/Q*%
X77750000Y-54890000D02*
X101320000Y-54890000D01*
X127000000Y-27940000D02*
X125161523Y-27940000D01*
X73660000Y-50800000D02*
X76200000Y-48260000D01*
X76200000Y-48260000D02*
X76200000Y-36576000D01*
X125161523Y-27940000D02*
X107950000Y-45151523D01*
X73660000Y-50800000D02*
X77750000Y-54890000D01*
X107950000Y-45151523D02*
X107950000Y-48260000D01*
X101320000Y-54890000D02*
X107950000Y-48260000D01*
%TO.N,/DIS*%
X42886000Y-66802000D02*
X55586000Y-66802000D01*
X64770000Y-66802000D02*
X80478000Y-66802000D01*
X74128000Y-76962000D02*
X86574000Y-76962000D01*
X36790000Y-76962000D02*
X49236000Y-76962000D01*
X55586000Y-66802000D02*
X64770000Y-66802000D01*
X61682000Y-76962000D02*
X64770000Y-76962000D01*
X99020000Y-76962000D02*
X111466000Y-76962000D01*
X111466000Y-76962000D02*
X123912000Y-76962000D01*
X64770000Y-76962000D02*
X74128000Y-76962000D01*
X86574000Y-76962000D02*
X99020000Y-76962000D01*
X49236000Y-76962000D02*
X61682000Y-76962000D01*
X92924000Y-66802000D02*
X105370000Y-66802000D01*
X80478000Y-66802000D02*
X92924000Y-66802000D01*
%TO.N,/VCC_Sw*%
X77470000Y-49530000D02*
X81280000Y-45720000D01*
X77470000Y-50038000D02*
X77470000Y-49530000D01*
%TD*%
%TA.AperFunction,Conductor*%
%TO.N,/VCC_Sw*%
G36*
X132022539Y-40659685D02*
G01*
X132068294Y-40712489D01*
X132079500Y-40764000D01*
X132079500Y-55756000D01*
X132059815Y-55823039D01*
X132007011Y-55868794D01*
X131955500Y-55880000D01*
X124511362Y-55880000D01*
X124444323Y-55860315D01*
X124423681Y-55843681D01*
X119416319Y-50836319D01*
X119382834Y-50774996D01*
X119380000Y-50748638D01*
X119380000Y-45771362D01*
X119399685Y-45704323D01*
X119416319Y-45683681D01*
X124423681Y-40676319D01*
X124485004Y-40642834D01*
X124511362Y-40640000D01*
X131955500Y-40640000D01*
X132022539Y-40659685D01*
G37*
%TD.AperFunction*%
%TD*%
M02*
