%TF.GenerationSoftware,KiCad,Pcbnew,7.0.10*%
%TF.CreationDate,2024-01-23T22:09:57+01:00*%
%TF.ProjectId,stylophone,7374796c-6f70-4686-9f6e-652e6b696361,rev?*%
%TF.SameCoordinates,Original*%
%TF.FileFunction,Copper,L2,Bot*%
%TF.FilePolarity,Positive*%
%FSLAX46Y46*%
G04 Gerber Fmt 4.6, Leading zero omitted, Abs format (unit mm)*
G04 Created by KiCad (PCBNEW 7.0.10) date 2024-01-23 22:09:57*
%MOMM*%
%LPD*%
G01*
G04 APERTURE LIST*
%TA.AperFunction,ComponentPad*%
%ADD10C,1.620000*%
%TD*%
%TA.AperFunction,ComponentPad*%
%ADD11R,2.600000X2.600000*%
%TD*%
%TA.AperFunction,ComponentPad*%
%ADD12O,2.600000X2.600000*%
%TD*%
%TA.AperFunction,ComponentPad*%
%ADD13O,2.200000X3.500000*%
%TD*%
%TA.AperFunction,ComponentPad*%
%ADD14R,1.500000X2.500000*%
%TD*%
%TA.AperFunction,ComponentPad*%
%ADD15O,1.500000X2.500000*%
%TD*%
%TA.AperFunction,ComponentPad*%
%ADD16R,2.000000X2.000000*%
%TD*%
%TA.AperFunction,ComponentPad*%
%ADD17C,2.000000*%
%TD*%
%TA.AperFunction,ComponentPad*%
%ADD18C,1.600000*%
%TD*%
%TA.AperFunction,ComponentPad*%
%ADD19R,1.600000X1.600000*%
%TD*%
%TA.AperFunction,ComponentPad*%
%ADD20O,1.600000X1.600000*%
%TD*%
%TA.AperFunction,ViaPad*%
%ADD21C,0.800000*%
%TD*%
%TA.AperFunction,Conductor*%
%ADD22C,0.500000*%
%TD*%
G04 APERTURE END LIST*
D10*
%TO.P,RV_G1,1,1*%
%TO.N,/G*%
X81574000Y-79462000D03*
%TO.P,RV_G1,2,2*%
%TO.N,/DIS*%
X86574000Y-76962000D03*
%TO.P,RV_G1,3,3*%
%TO.N,/GND*%
X81574000Y-74462000D03*
%TD*%
%TO.P,RV_G#1,1,1*%
%TO.N,/G#*%
X87924000Y-69302000D03*
%TO.P,RV_G#1,2,2*%
%TO.N,/DIS*%
X92924000Y-66802000D03*
%TO.P,RV_G#1,3,3*%
%TO.N,/GND*%
X87924000Y-64302000D03*
%TD*%
%TO.P,RV_F1,1,1*%
%TO.N,/F*%
X69128000Y-79462000D03*
%TO.P,RV_F1,2,2*%
%TO.N,/DIS*%
X74128000Y-76962000D03*
%TO.P,RV_F1,3,3*%
%TO.N,/GND*%
X69128000Y-74462000D03*
%TD*%
%TO.P,RV_F#1,1,1*%
%TO.N,/F#*%
X75478000Y-69302000D03*
%TO.P,RV_F#1,2,2*%
%TO.N,/DIS*%
X80478000Y-66802000D03*
%TO.P,RV_F#1,3,3*%
%TO.N,/GND*%
X75478000Y-64302000D03*
%TD*%
%TO.P,RV_E1,1,1*%
%TO.N,/E*%
X56682000Y-79462000D03*
%TO.P,RV_E1,2,2*%
%TO.N,/DIS*%
X61682000Y-76962000D03*
%TO.P,RV_E1,3,3*%
%TO.N,/GND*%
X56682000Y-74462000D03*
%TD*%
%TO.P,RV_D1,1,1*%
%TO.N,/D*%
X44236000Y-79462000D03*
%TO.P,RV_D1,2,2*%
%TO.N,/DIS*%
X49236000Y-76962000D03*
%TO.P,RV_D1,3,3*%
%TO.N,/GND*%
X44236000Y-74462000D03*
%TD*%
%TO.P,RV_D#1,1,1*%
%TO.N,/D#*%
X50586000Y-69302000D03*
%TO.P,RV_D#1,2,2*%
%TO.N,/DIS*%
X55586000Y-66802000D03*
%TO.P,RV_D#1,3,3*%
%TO.N,/GND*%
X50586000Y-64302000D03*
%TD*%
%TO.P,RV_C1,1,1*%
%TO.N,/C*%
X31790000Y-79462000D03*
%TO.P,RV_C1,2,2*%
%TO.N,/DIS*%
X36790000Y-76962000D03*
%TO.P,RV_C1,3,3*%
%TO.N,/GND*%
X31790000Y-74462000D03*
%TD*%
%TO.P,RV_C#1,1,1*%
%TO.N,/C#*%
X37886000Y-69302000D03*
%TO.P,RV_C#1,2,2*%
%TO.N,/DIS*%
X42886000Y-66802000D03*
%TO.P,RV_C#1,3,3*%
%TO.N,/GND*%
X37886000Y-64302000D03*
%TD*%
%TO.P,RV_B1,1,1*%
%TO.N,/B*%
X106466000Y-79462000D03*
%TO.P,RV_B1,2,2*%
%TO.N,/DIS*%
X111466000Y-76962000D03*
%TO.P,RV_B1,3,3*%
%TO.N,/GND*%
X106466000Y-74462000D03*
%TD*%
%TO.P,RV_A1,1,1*%
%TO.N,/A*%
X94020000Y-79462000D03*
%TO.P,RV_A1,2,2*%
%TO.N,/DIS*%
X99020000Y-76962000D03*
%TO.P,RV_A1,3,3*%
%TO.N,/GND*%
X94020000Y-74462000D03*
%TD*%
%TO.P,RV_A#1,1,1*%
%TO.N,/A#*%
X100370000Y-69302000D03*
%TO.P,RV_A#1,2,2*%
%TO.N,/DIS*%
X105370000Y-66802000D03*
%TO.P,RV_A#1,3,3*%
%TO.N,/GND*%
X100370000Y-64302000D03*
%TD*%
D11*
%TO.P,D1,1,K*%
%TO.N,Net-(BZ1--)*%
X104140000Y-48260000D03*
D12*
%TO.P,D1,2,A*%
%TO.N,/Q*%
X107950000Y-48260000D03*
%TD*%
D13*
%TO.P,SW1,*%
%TO.N,*%
X101600000Y-30480000D03*
X109800000Y-30480000D03*
D14*
%TO.P,SW1,1,A*%
%TO.N,/VCC*%
X103700000Y-30480000D03*
D15*
%TO.P,SW1,2,A*%
X105700000Y-30480000D03*
%TO.P,SW1,3,B*%
%TO.N,/VCC_Sw*%
X107700000Y-30480000D03*
%TD*%
D10*
%TO.P,RV2,1,1*%
%TO.N,/GND*%
X129500000Y-32940000D03*
%TO.P,RV2,2,2*%
%TO.N,/Q*%
X127000000Y-27940000D03*
%TO.P,RV2,3,3*%
%TO.N,unconnected-(RV2-Pad3)*%
X124500000Y-32940000D03*
%TD*%
D16*
%TO.P,BZ1,1,-*%
%TO.N,Net-(BZ1--)*%
X81280000Y-33020000D03*
D17*
%TO.P,BZ1,2,+*%
%TO.N,/GND*%
X88880000Y-33020000D03*
%TD*%
D18*
%TO.P,C1,2*%
%TO.N,Net-(U1-THR)*%
X58420000Y-48260000D03*
%TO.P,C1,1*%
%TO.N,/GND*%
X58420000Y-50760000D03*
%TD*%
D19*
%TO.P,U1,1,GND*%
%TO.N,/GND*%
X73660000Y-45720000D03*
D20*
%TO.P,U1,2,TR*%
%TO.N,Net-(U1-THR)*%
X73660000Y-48260000D03*
%TO.P,U1,3,Q*%
%TO.N,/Q*%
X73660000Y-50800000D03*
%TO.P,U1,4,R*%
%TO.N,/VCC_Sw*%
X73660000Y-53340000D03*
%TO.P,U1,5,CV*%
%TO.N,unconnected-(U1-CV-Pad5)*%
X81280000Y-53340000D03*
%TO.P,U1,6,THR*%
%TO.N,Net-(U1-THR)*%
X81280000Y-50800000D03*
%TO.P,U1,7,DIS*%
%TO.N,/DIS*%
X81280000Y-48260000D03*
%TO.P,U1,8,VCC*%
%TO.N,/VCC_Sw*%
X81280000Y-45720000D03*
%TD*%
D10*
%TO.P,RV_C2,1,1*%
%TO.N,/C2*%
X118912000Y-79462000D03*
%TO.P,RV_C2,2,2*%
%TO.N,/DIS*%
X123912000Y-76962000D03*
%TO.P,RV_C2,3,3*%
%TO.N,/GND*%
X118912000Y-74462000D03*
%TD*%
D21*
%TO.N,/Q*%
X76200000Y-36576000D03*
%TO.N,/VCC_Sw*%
X77470000Y-50038000D03*
%TO.N,/DIS*%
X64770000Y-76962000D03*
X64770000Y-66802000D03*
%TO.N,Net-(BZ1--)*%
X57912000Y-35052000D03*
%TO.N,/VCC_Sw*%
X121920000Y-48260000D03*
%TO.N,/GND*%
X66294000Y-74422000D03*
X66294000Y-64262000D03*
%TO.N,/D*%
X46736000Y-92964000D03*
%TO.N,/G*%
X84074000Y-92964000D03*
%TO.N,/A*%
X96520000Y-92964000D03*
%TD*%
D22*
%TO.N,/Q*%
X73660000Y-50800000D02*
X76200000Y-48260000D01*
X76200000Y-48260000D02*
X76200000Y-36576000D01*
%TO.N,/VCC_Sw*%
X77470000Y-50038000D02*
X77470000Y-49530000D01*
X77470000Y-49530000D02*
X81280000Y-45720000D01*
%TO.N,Net-(U1-THR)*%
X58420000Y-48260000D02*
X73660000Y-48260000D01*
%TO.N,/DIS*%
X64770000Y-66802000D02*
X80478000Y-66802000D01*
X55586000Y-66802000D02*
X64770000Y-66802000D01*
X64770000Y-76962000D02*
X74128000Y-76962000D01*
X61682000Y-76962000D02*
X64770000Y-76962000D01*
%TO.N,/Q*%
X107950000Y-48260000D02*
X104140000Y-52070000D01*
X104140000Y-52070000D02*
X74930000Y-52070000D01*
X74930000Y-52070000D02*
X73660000Y-50800000D01*
%TO.N,Net-(BZ1--)*%
X81280000Y-33020000D02*
X59944000Y-33020000D01*
X59944000Y-33020000D02*
X57912000Y-35052000D01*
%TO.N,/Q*%
X107950000Y-48260000D02*
X107950000Y-46990000D01*
X107950000Y-46990000D02*
X127000000Y-27940000D01*
%TO.N,Net-(BZ1--)*%
X81280000Y-33020000D02*
X96520000Y-48260000D01*
X96520000Y-48260000D02*
X104140000Y-48260000D01*
%TO.N,/GND*%
X66254000Y-74462000D02*
X56682000Y-74462000D01*
X66294000Y-74422000D02*
X66254000Y-74462000D01*
X66334000Y-74462000D02*
X66294000Y-74422000D01*
X66254000Y-64302000D02*
X50586000Y-64302000D01*
X66294000Y-64262000D02*
X66254000Y-64302000D01*
X66334000Y-64302000D02*
X66294000Y-64262000D01*
%TO.N,/A*%
X94020000Y-79462000D02*
X94020000Y-90464000D01*
X94020000Y-90464000D02*
X96520000Y-92964000D01*
%TO.N,/G*%
X81574000Y-79462000D02*
X81574000Y-90464000D01*
X81574000Y-90464000D02*
X84074000Y-92964000D01*
%TO.N,/D*%
X44236000Y-79462000D02*
X44236000Y-90464000D01*
X44236000Y-90464000D02*
X46736000Y-92964000D01*
%TO.N,/GND*%
X50586000Y-64302000D02*
X37886000Y-64302000D01*
X75478000Y-64302000D02*
X66334000Y-64302000D01*
X87924000Y-64302000D02*
X75478000Y-64302000D01*
X100370000Y-64302000D02*
X87924000Y-64302000D01*
%TO.N,/DIS*%
X92924000Y-66802000D02*
X105370000Y-66802000D01*
X80478000Y-66802000D02*
X92924000Y-66802000D01*
X42886000Y-66802000D02*
X55586000Y-66802000D01*
%TO.N,/GND*%
X44236000Y-74462000D02*
X31790000Y-74462000D01*
X56682000Y-74462000D02*
X44236000Y-74462000D01*
X69128000Y-74462000D02*
X66334000Y-74462000D01*
X81574000Y-74462000D02*
X69128000Y-74462000D01*
X94020000Y-74462000D02*
X81574000Y-74462000D01*
X106466000Y-74462000D02*
X94020000Y-74462000D01*
X118912000Y-74462000D02*
X106466000Y-74462000D01*
%TO.N,/DIS*%
X111466000Y-76962000D02*
X123912000Y-76962000D01*
X99020000Y-76962000D02*
X111466000Y-76962000D01*
X86574000Y-76962000D02*
X99020000Y-76962000D01*
X74128000Y-76962000D02*
X86574000Y-76962000D01*
X49236000Y-76962000D02*
X61682000Y-76962000D01*
X36790000Y-76962000D02*
X49236000Y-76962000D01*
%TD*%
%TA.AperFunction,NonConductor*%
G36*
X127002562Y-25400605D02*
G01*
X127217456Y-25409494D01*
X127354144Y-25415462D01*
X127356836Y-25415608D01*
X127439912Y-25421053D01*
X127445282Y-25421524D01*
X127474664Y-25424742D01*
X127476206Y-25424922D01*
X127645469Y-25446020D01*
X127646047Y-25446095D01*
X127794246Y-25465606D01*
X127796839Y-25465976D01*
X127872842Y-25477674D01*
X127879384Y-25478862D01*
X128069715Y-25518770D01*
X128070912Y-25519028D01*
X128228293Y-25553918D01*
X128230831Y-25554510D01*
X128282865Y-25567243D01*
X128291549Y-25569368D01*
X128297442Y-25570965D01*
X128486568Y-25627270D01*
X128488302Y-25627801D01*
X128652937Y-25679710D01*
X128655465Y-25680539D01*
X128700455Y-25695811D01*
X128705671Y-25697713D01*
X128762021Y-25719700D01*
X128892754Y-25770712D01*
X128894997Y-25771614D01*
X129056721Y-25838602D01*
X129064955Y-25842013D01*
X129067443Y-25843075D01*
X129096515Y-25855867D01*
X129101034Y-25857966D01*
X129285322Y-25948059D01*
X129288119Y-25949470D01*
X129461336Y-26039641D01*
X129463715Y-26040912D01*
X129476733Y-26048054D01*
X129480531Y-26050227D01*
X129661508Y-26158067D01*
X129664659Y-26160008D01*
X129837123Y-26269879D01*
X129842552Y-26273543D01*
X130018560Y-26399211D01*
X130021992Y-26401752D01*
X130184233Y-26526243D01*
X130188887Y-26529996D01*
X130353930Y-26669779D01*
X130357503Y-26672927D01*
X130496984Y-26800738D01*
X130508336Y-26811140D01*
X130512243Y-26814881D01*
X130665117Y-26967755D01*
X130668858Y-26971662D01*
X130807066Y-27122489D01*
X130810226Y-27126076D01*
X130867406Y-27193589D01*
X130950002Y-27291111D01*
X130953755Y-27295765D01*
X131078246Y-27458006D01*
X131080787Y-27461438D01*
X131206455Y-27637446D01*
X131210119Y-27642875D01*
X131319990Y-27815339D01*
X131321931Y-27818490D01*
X131429776Y-27999476D01*
X131431967Y-28003305D01*
X131439067Y-28016246D01*
X131440344Y-28018635D01*
X131530536Y-28191895D01*
X131531946Y-28194690D01*
X131622038Y-28378975D01*
X131624135Y-28383492D01*
X131636914Y-28412532D01*
X131637978Y-28415023D01*
X131708351Y-28584919D01*
X131709307Y-28587297D01*
X131782288Y-28774333D01*
X131784190Y-28779550D01*
X131799460Y-28824534D01*
X131800302Y-28827105D01*
X131852165Y-28991596D01*
X131852749Y-28993501D01*
X131909034Y-29182556D01*
X131910636Y-29188466D01*
X131925475Y-29249110D01*
X131926089Y-29251744D01*
X131960946Y-29408975D01*
X131961246Y-29410367D01*
X132001132Y-29600595D01*
X132002328Y-29607177D01*
X132014018Y-29683124D01*
X132014400Y-29685804D01*
X132033886Y-29833824D01*
X132033995Y-29834669D01*
X132055055Y-30003611D01*
X132055270Y-30005451D01*
X132058475Y-30034716D01*
X132058946Y-30040105D01*
X132064390Y-30123161D01*
X132064538Y-30125863D01*
X132070515Y-30262770D01*
X132070527Y-30263054D01*
X132079394Y-30477437D01*
X132079500Y-30482561D01*
X132079500Y-40010500D01*
X132059815Y-40077539D01*
X132007011Y-40123294D01*
X131955500Y-40134500D01*
X124511360Y-40134500D01*
X124457311Y-40137397D01*
X124457310Y-40137397D01*
X124430977Y-40140229D01*
X124430950Y-40140232D01*
X124377554Y-40148885D01*
X124377552Y-40148885D01*
X124242747Y-40199166D01*
X124181422Y-40232651D01*
X124066240Y-40318876D01*
X124066228Y-40318886D01*
X119058892Y-45326223D01*
X119058855Y-45326262D01*
X119022728Y-45366480D01*
X119022718Y-45366492D01*
X119006076Y-45387143D01*
X118974433Y-45431025D01*
X118914663Y-45561899D01*
X118894976Y-45628944D01*
X118874500Y-45771363D01*
X118874500Y-50748640D01*
X118877397Y-50802688D01*
X118877397Y-50802689D01*
X118880229Y-50829022D01*
X118880232Y-50829049D01*
X118888885Y-50882445D01*
X118888885Y-50882447D01*
X118939166Y-51017252D01*
X118939168Y-51017257D01*
X118972653Y-51078580D01*
X119058877Y-51193761D01*
X119058881Y-51193765D01*
X119058886Y-51193771D01*
X121651604Y-53786488D01*
X124066239Y-56201123D01*
X124066255Y-56201137D01*
X124066262Y-56201144D01*
X124106480Y-56237271D01*
X124106492Y-56237281D01*
X124106500Y-56237288D01*
X124127142Y-56253922D01*
X124171026Y-56285567D01*
X124301903Y-56345338D01*
X124368942Y-56365023D01*
X124368946Y-56365024D01*
X124511362Y-56385500D01*
X124511365Y-56385500D01*
X131955500Y-56385500D01*
X132022539Y-56405185D01*
X132068294Y-56457989D01*
X132079500Y-56509500D01*
X132079500Y-106677438D01*
X132079394Y-106682562D01*
X132070527Y-106896945D01*
X132070515Y-106897229D01*
X132064538Y-107034136D01*
X132064390Y-107036839D01*
X132058946Y-107119892D01*
X132058475Y-107125280D01*
X132055269Y-107154554D01*
X132055054Y-107156394D01*
X132033993Y-107325348D01*
X132033884Y-107326193D01*
X132014401Y-107474189D01*
X132014019Y-107476870D01*
X132002328Y-107552822D01*
X132001132Y-107559403D01*
X131961242Y-107749649D01*
X131960942Y-107751041D01*
X131926094Y-107908235D01*
X131925479Y-107910871D01*
X131910633Y-107971539D01*
X131909032Y-107977447D01*
X131852749Y-108166497D01*
X131852165Y-108168402D01*
X131800302Y-108332894D01*
X131799460Y-108335466D01*
X131784190Y-108380449D01*
X131782288Y-108385665D01*
X131709300Y-108572718D01*
X131708344Y-108575095D01*
X131637983Y-108744963D01*
X131636920Y-108747453D01*
X131624138Y-108776501D01*
X131622040Y-108781020D01*
X131531946Y-108965309D01*
X131530536Y-108968104D01*
X131440357Y-109141340D01*
X131439077Y-109143734D01*
X131431957Y-109156710D01*
X131429769Y-109160534D01*
X131321931Y-109341508D01*
X131319990Y-109344659D01*
X131210119Y-109517123D01*
X131206455Y-109522552D01*
X131080787Y-109698560D01*
X131078246Y-109701992D01*
X130953755Y-109864233D01*
X130950002Y-109868887D01*
X130810246Y-110033899D01*
X130807045Y-110037533D01*
X130668858Y-110188336D01*
X130665117Y-110192243D01*
X130512243Y-110345117D01*
X130508336Y-110348858D01*
X130357533Y-110487045D01*
X130353899Y-110490246D01*
X130188887Y-110630002D01*
X130184233Y-110633755D01*
X130021992Y-110758246D01*
X130018560Y-110760787D01*
X129842552Y-110886455D01*
X129837123Y-110890119D01*
X129664659Y-110999990D01*
X129661508Y-111001931D01*
X129480534Y-111109769D01*
X129476710Y-111111957D01*
X129463734Y-111119077D01*
X129461340Y-111120357D01*
X129288104Y-111210536D01*
X129285309Y-111211946D01*
X129101020Y-111302040D01*
X129096501Y-111304138D01*
X129067453Y-111316920D01*
X129064963Y-111317983D01*
X128895095Y-111388344D01*
X128892718Y-111389300D01*
X128705665Y-111462288D01*
X128700449Y-111464190D01*
X128655466Y-111479460D01*
X128652894Y-111480302D01*
X128488402Y-111532165D01*
X128486497Y-111532749D01*
X128297447Y-111589032D01*
X128291539Y-111590633D01*
X128230871Y-111605479D01*
X128228235Y-111606094D01*
X128071041Y-111640942D01*
X128069649Y-111641242D01*
X127879403Y-111681132D01*
X127872822Y-111682328D01*
X127796870Y-111694019D01*
X127794189Y-111694401D01*
X127646193Y-111713884D01*
X127645348Y-111713993D01*
X127476394Y-111735054D01*
X127474554Y-111735269D01*
X127445280Y-111738475D01*
X127439892Y-111738946D01*
X127356839Y-111744390D01*
X127354136Y-111744538D01*
X127217339Y-111750510D01*
X127217056Y-111750522D01*
X127019943Y-111758675D01*
X127002561Y-111759394D01*
X126997439Y-111759500D01*
X22862561Y-111759500D01*
X22857438Y-111759394D01*
X22837191Y-111758556D01*
X22642942Y-111750522D01*
X22642659Y-111750510D01*
X22505863Y-111744538D01*
X22503161Y-111744390D01*
X22420105Y-111738946D01*
X22414716Y-111738475D01*
X22385451Y-111735270D01*
X22383611Y-111735055D01*
X22214669Y-111713995D01*
X22213824Y-111713886D01*
X22065804Y-111694400D01*
X22063124Y-111694018D01*
X21987177Y-111682328D01*
X21980595Y-111681132D01*
X21790367Y-111641246D01*
X21788975Y-111640946D01*
X21631744Y-111606089D01*
X21629110Y-111605475D01*
X21612322Y-111601367D01*
X21568455Y-111590633D01*
X21562556Y-111589034D01*
X21373501Y-111532749D01*
X21371596Y-111532165D01*
X21207105Y-111480302D01*
X21204534Y-111479460D01*
X21159550Y-111464190D01*
X21154333Y-111462288D01*
X20967297Y-111389307D01*
X20964919Y-111388351D01*
X20795023Y-111317978D01*
X20792532Y-111316914D01*
X20763492Y-111304135D01*
X20758975Y-111302038D01*
X20574690Y-111211946D01*
X20571895Y-111210536D01*
X20398635Y-111120344D01*
X20396266Y-111119077D01*
X20383302Y-111111965D01*
X20379476Y-111109776D01*
X20198490Y-111001931D01*
X20195339Y-110999990D01*
X20022875Y-110890119D01*
X20017446Y-110886455D01*
X19841438Y-110760787D01*
X19838006Y-110758246D01*
X19675765Y-110633755D01*
X19671111Y-110630002D01*
X19588651Y-110560163D01*
X19506076Y-110490226D01*
X19502489Y-110487066D01*
X19351662Y-110348858D01*
X19347755Y-110345117D01*
X19194881Y-110192243D01*
X19191140Y-110188336D01*
X19052927Y-110037503D01*
X19049779Y-110033930D01*
X18909996Y-109868887D01*
X18906243Y-109864233D01*
X18781752Y-109701992D01*
X18779211Y-109698560D01*
X18653543Y-109522552D01*
X18649879Y-109517123D01*
X18540008Y-109344659D01*
X18538067Y-109341508D01*
X18430227Y-109160531D01*
X18428041Y-109156710D01*
X18420912Y-109143715D01*
X18419641Y-109141336D01*
X18329470Y-108968119D01*
X18328059Y-108965322D01*
X18237966Y-108781034D01*
X18235867Y-108776515D01*
X18223075Y-108747443D01*
X18222013Y-108744955D01*
X18218602Y-108736721D01*
X18151614Y-108574997D01*
X18150712Y-108572754D01*
X18077713Y-108385671D01*
X18075811Y-108380455D01*
X18060539Y-108335465D01*
X18059710Y-108332937D01*
X18007801Y-108168302D01*
X18007249Y-108166497D01*
X17950965Y-107977442D01*
X17949368Y-107971549D01*
X17934517Y-107910859D01*
X17933905Y-107908235D01*
X17899028Y-107750912D01*
X17898752Y-107749630D01*
X17858865Y-107559398D01*
X17857674Y-107552842D01*
X17845976Y-107476839D01*
X17845601Y-107474210D01*
X17845598Y-107474189D01*
X17826095Y-107326047D01*
X17826020Y-107325469D01*
X17804922Y-107156206D01*
X17804742Y-107154664D01*
X17801524Y-107125280D01*
X17801053Y-107119903D01*
X17795609Y-107036840D01*
X17795462Y-107034139D01*
X17795462Y-107034136D01*
X17789499Y-106897580D01*
X17780605Y-106682562D01*
X17780500Y-106677439D01*
X17780500Y-79462002D01*
X30474494Y-79462002D01*
X30494478Y-79690429D01*
X30494479Y-79690436D01*
X30553827Y-79911925D01*
X30553828Y-79911927D01*
X30553829Y-79911930D01*
X30650738Y-80119753D01*
X30782264Y-80307591D01*
X30944409Y-80469736D01*
X31132247Y-80601262D01*
X31340070Y-80698171D01*
X31561565Y-80757521D01*
X31724732Y-80771796D01*
X31789998Y-80777506D01*
X31790000Y-80777506D01*
X31790002Y-80777506D01*
X31847108Y-80772509D01*
X32018435Y-80757521D01*
X32239930Y-80698171D01*
X32447753Y-80601262D01*
X32635591Y-80469736D01*
X32797736Y-80307591D01*
X32929262Y-80119753D01*
X33026171Y-79911930D01*
X33085521Y-79690435D01*
X33105506Y-79462002D01*
X42920494Y-79462002D01*
X42940478Y-79690429D01*
X42940479Y-79690436D01*
X42999827Y-79911925D01*
X42999828Y-79911927D01*
X42999829Y-79911930D01*
X43096738Y-80119753D01*
X43228264Y-80307591D01*
X43228268Y-80307595D01*
X43390405Y-80469733D01*
X43390408Y-80469735D01*
X43390409Y-80469736D01*
X43432623Y-80499294D01*
X43476248Y-80553869D01*
X43485500Y-80600869D01*
X43485500Y-90400294D01*
X43484191Y-90418263D01*
X43480710Y-90442025D01*
X43485028Y-90491368D01*
X43485500Y-90502176D01*
X43485500Y-90507711D01*
X43489098Y-90538495D01*
X43489464Y-90542083D01*
X43496000Y-90616791D01*
X43497461Y-90623867D01*
X43497403Y-90623878D01*
X43499034Y-90631237D01*
X43499092Y-90631224D01*
X43500757Y-90638249D01*
X43526400Y-90708705D01*
X43527582Y-90712107D01*
X43551182Y-90783326D01*
X43554236Y-90789874D01*
X43554182Y-90789898D01*
X43557470Y-90796688D01*
X43557521Y-90796663D01*
X43560761Y-90803114D01*
X43601979Y-90865784D01*
X43603889Y-90868782D01*
X43634972Y-90919174D01*
X43643289Y-90932658D01*
X43647766Y-90938319D01*
X43647719Y-90938356D01*
X43652482Y-90944202D01*
X43652528Y-90944164D01*
X43657173Y-90949699D01*
X43711707Y-91001149D01*
X43714295Y-91003663D01*
X45823228Y-93112596D01*
X45853478Y-93161958D01*
X45908819Y-93332280D01*
X45908821Y-93332284D01*
X46003467Y-93496216D01*
X46130129Y-93636888D01*
X46283265Y-93748148D01*
X46283270Y-93748151D01*
X46456192Y-93825142D01*
X46456197Y-93825144D01*
X46641354Y-93864500D01*
X46641355Y-93864500D01*
X46830644Y-93864500D01*
X46830646Y-93864500D01*
X47015803Y-93825144D01*
X47188730Y-93748151D01*
X47341871Y-93636888D01*
X47468533Y-93496216D01*
X47563179Y-93332284D01*
X47621674Y-93152256D01*
X47641460Y-92964000D01*
X47621674Y-92775744D01*
X47563179Y-92595716D01*
X47468533Y-92431784D01*
X47341871Y-92291112D01*
X47341870Y-92291111D01*
X47188734Y-92179851D01*
X47188729Y-92179848D01*
X47015807Y-92102857D01*
X47015802Y-92102855D01*
X46950669Y-92089011D01*
X46889187Y-92055818D01*
X46888769Y-92055402D01*
X45022819Y-90189451D01*
X44989334Y-90128128D01*
X44986500Y-90101770D01*
X44986500Y-80600869D01*
X45006185Y-80533830D01*
X45039376Y-80499295D01*
X45081591Y-80469736D01*
X45243736Y-80307591D01*
X45375262Y-80119753D01*
X45472171Y-79911930D01*
X45531521Y-79690435D01*
X45551506Y-79462002D01*
X55366494Y-79462002D01*
X55386478Y-79690429D01*
X55386479Y-79690436D01*
X55445827Y-79911925D01*
X55445828Y-79911927D01*
X55445829Y-79911930D01*
X55542738Y-80119753D01*
X55674264Y-80307591D01*
X55836409Y-80469736D01*
X56024247Y-80601262D01*
X56232070Y-80698171D01*
X56453565Y-80757521D01*
X56616732Y-80771796D01*
X56681998Y-80777506D01*
X56682000Y-80777506D01*
X56682002Y-80777506D01*
X56739108Y-80772509D01*
X56910435Y-80757521D01*
X57131930Y-80698171D01*
X57339753Y-80601262D01*
X57527591Y-80469736D01*
X57689736Y-80307591D01*
X57821262Y-80119753D01*
X57918171Y-79911930D01*
X57977521Y-79690435D01*
X57997506Y-79462002D01*
X67812494Y-79462002D01*
X67832478Y-79690429D01*
X67832479Y-79690436D01*
X67891827Y-79911925D01*
X67891828Y-79911927D01*
X67891829Y-79911930D01*
X67988738Y-80119753D01*
X68120264Y-80307591D01*
X68282409Y-80469736D01*
X68470247Y-80601262D01*
X68678070Y-80698171D01*
X68899565Y-80757521D01*
X69062732Y-80771796D01*
X69127998Y-80777506D01*
X69128000Y-80777506D01*
X69128002Y-80777506D01*
X69185108Y-80772509D01*
X69356435Y-80757521D01*
X69577930Y-80698171D01*
X69785753Y-80601262D01*
X69973591Y-80469736D01*
X70135736Y-80307591D01*
X70267262Y-80119753D01*
X70364171Y-79911930D01*
X70423521Y-79690435D01*
X70443506Y-79462002D01*
X80258494Y-79462002D01*
X80278478Y-79690429D01*
X80278479Y-79690436D01*
X80337827Y-79911925D01*
X80337828Y-79911927D01*
X80337829Y-79911930D01*
X80434738Y-80119753D01*
X80566264Y-80307591D01*
X80566268Y-80307595D01*
X80728405Y-80469733D01*
X80728408Y-80469735D01*
X80728409Y-80469736D01*
X80770623Y-80499294D01*
X80814248Y-80553869D01*
X80823500Y-80600869D01*
X80823500Y-90400294D01*
X80822191Y-90418263D01*
X80818710Y-90442025D01*
X80823028Y-90491368D01*
X80823500Y-90502176D01*
X80823500Y-90507711D01*
X80827098Y-90538495D01*
X80827464Y-90542083D01*
X80834000Y-90616791D01*
X80835461Y-90623867D01*
X80835403Y-90623878D01*
X80837034Y-90631237D01*
X80837092Y-90631224D01*
X80838757Y-90638249D01*
X80864400Y-90708705D01*
X80865582Y-90712107D01*
X80889182Y-90783326D01*
X80892236Y-90789874D01*
X80892182Y-90789898D01*
X80895470Y-90796688D01*
X80895521Y-90796663D01*
X80898761Y-90803114D01*
X80939979Y-90865784D01*
X80941889Y-90868782D01*
X80972972Y-90919174D01*
X80981289Y-90932658D01*
X80985766Y-90938319D01*
X80985719Y-90938356D01*
X80990482Y-90944202D01*
X80990528Y-90944164D01*
X80995173Y-90949699D01*
X81049707Y-91001149D01*
X81052295Y-91003663D01*
X83161228Y-93112596D01*
X83191478Y-93161958D01*
X83246819Y-93332280D01*
X83246821Y-93332284D01*
X83341467Y-93496216D01*
X83468129Y-93636888D01*
X83621265Y-93748148D01*
X83621270Y-93748151D01*
X83794192Y-93825142D01*
X83794197Y-93825144D01*
X83979354Y-93864500D01*
X83979355Y-93864500D01*
X84168644Y-93864500D01*
X84168646Y-93864500D01*
X84353803Y-93825144D01*
X84526730Y-93748151D01*
X84679871Y-93636888D01*
X84806533Y-93496216D01*
X84901179Y-93332284D01*
X84959674Y-93152256D01*
X84979460Y-92964000D01*
X84959674Y-92775744D01*
X84901179Y-92595716D01*
X84806533Y-92431784D01*
X84679871Y-92291112D01*
X84679870Y-92291111D01*
X84526734Y-92179851D01*
X84526729Y-92179848D01*
X84353807Y-92102857D01*
X84353802Y-92102855D01*
X84288669Y-92089011D01*
X84227187Y-92055818D01*
X84226769Y-92055402D01*
X82360819Y-90189451D01*
X82327334Y-90128128D01*
X82324500Y-90101770D01*
X82324500Y-80600869D01*
X82344185Y-80533830D01*
X82377376Y-80499295D01*
X82419591Y-80469736D01*
X82581736Y-80307591D01*
X82713262Y-80119753D01*
X82810171Y-79911930D01*
X82869521Y-79690435D01*
X82889506Y-79462002D01*
X92704494Y-79462002D01*
X92724478Y-79690429D01*
X92724479Y-79690436D01*
X92783827Y-79911925D01*
X92783828Y-79911927D01*
X92783829Y-79911930D01*
X92880738Y-80119753D01*
X93012264Y-80307591D01*
X93012268Y-80307595D01*
X93174405Y-80469733D01*
X93174408Y-80469735D01*
X93174409Y-80469736D01*
X93216623Y-80499294D01*
X93260248Y-80553869D01*
X93269500Y-80600869D01*
X93269500Y-90400294D01*
X93268191Y-90418263D01*
X93264710Y-90442025D01*
X93269028Y-90491368D01*
X93269500Y-90502176D01*
X93269500Y-90507711D01*
X93273098Y-90538495D01*
X93273464Y-90542083D01*
X93280000Y-90616791D01*
X93281461Y-90623867D01*
X93281403Y-90623878D01*
X93283034Y-90631237D01*
X93283092Y-90631224D01*
X93284757Y-90638249D01*
X93310400Y-90708705D01*
X93311582Y-90712107D01*
X93335182Y-90783326D01*
X93338236Y-90789874D01*
X93338182Y-90789898D01*
X93341470Y-90796688D01*
X93341521Y-90796663D01*
X93344761Y-90803114D01*
X93385979Y-90865784D01*
X93387889Y-90868782D01*
X93418972Y-90919174D01*
X93427289Y-90932658D01*
X93431766Y-90938319D01*
X93431719Y-90938356D01*
X93436482Y-90944202D01*
X93436528Y-90944164D01*
X93441173Y-90949699D01*
X93495707Y-91001149D01*
X93498295Y-91003663D01*
X95607228Y-93112596D01*
X95637478Y-93161958D01*
X95692819Y-93332280D01*
X95692821Y-93332284D01*
X95787467Y-93496216D01*
X95914129Y-93636888D01*
X96067265Y-93748148D01*
X96067270Y-93748151D01*
X96240192Y-93825142D01*
X96240197Y-93825144D01*
X96425354Y-93864500D01*
X96425355Y-93864500D01*
X96614644Y-93864500D01*
X96614646Y-93864500D01*
X96799803Y-93825144D01*
X96972730Y-93748151D01*
X97125871Y-93636888D01*
X97252533Y-93496216D01*
X97347179Y-93332284D01*
X97405674Y-93152256D01*
X97425460Y-92964000D01*
X97405674Y-92775744D01*
X97347179Y-92595716D01*
X97252533Y-92431784D01*
X97125871Y-92291112D01*
X97125870Y-92291111D01*
X96972734Y-92179851D01*
X96972729Y-92179848D01*
X96799807Y-92102857D01*
X96799802Y-92102855D01*
X96734669Y-92089011D01*
X96673187Y-92055818D01*
X96672769Y-92055402D01*
X94806819Y-90189451D01*
X94773334Y-90128128D01*
X94770500Y-90101770D01*
X94770500Y-80600869D01*
X94790185Y-80533830D01*
X94823376Y-80499295D01*
X94865591Y-80469736D01*
X95027736Y-80307591D01*
X95159262Y-80119753D01*
X95256171Y-79911930D01*
X95315521Y-79690435D01*
X95335506Y-79462002D01*
X105150494Y-79462002D01*
X105170478Y-79690429D01*
X105170479Y-79690436D01*
X105229827Y-79911925D01*
X105229828Y-79911927D01*
X105229829Y-79911930D01*
X105326738Y-80119753D01*
X105458264Y-80307591D01*
X105620409Y-80469736D01*
X105808247Y-80601262D01*
X106016070Y-80698171D01*
X106237565Y-80757521D01*
X106400732Y-80771796D01*
X106465998Y-80777506D01*
X106466000Y-80777506D01*
X106466002Y-80777506D01*
X106523108Y-80772509D01*
X106694435Y-80757521D01*
X106915930Y-80698171D01*
X107123753Y-80601262D01*
X107311591Y-80469736D01*
X107473736Y-80307591D01*
X107605262Y-80119753D01*
X107702171Y-79911930D01*
X107761521Y-79690435D01*
X107781506Y-79462002D01*
X117596494Y-79462002D01*
X117616478Y-79690429D01*
X117616479Y-79690436D01*
X117675827Y-79911925D01*
X117675828Y-79911927D01*
X117675829Y-79911930D01*
X117772738Y-80119753D01*
X117904264Y-80307591D01*
X118066409Y-80469736D01*
X118254247Y-80601262D01*
X118462070Y-80698171D01*
X118683565Y-80757521D01*
X118846732Y-80771796D01*
X118911998Y-80777506D01*
X118912000Y-80777506D01*
X118912002Y-80777506D01*
X118969108Y-80772509D01*
X119140435Y-80757521D01*
X119361930Y-80698171D01*
X119569753Y-80601262D01*
X119757591Y-80469736D01*
X119919736Y-80307591D01*
X120051262Y-80119753D01*
X120148171Y-79911930D01*
X120207521Y-79690435D01*
X120227506Y-79462000D01*
X120207521Y-79233565D01*
X120148171Y-79012070D01*
X120051262Y-78804247D01*
X119919736Y-78616409D01*
X119757591Y-78454264D01*
X119569753Y-78322738D01*
X119361930Y-78225829D01*
X119361927Y-78225828D01*
X119361925Y-78225827D01*
X119140436Y-78166479D01*
X119140429Y-78166478D01*
X118912002Y-78146494D01*
X118911998Y-78146494D01*
X118683570Y-78166478D01*
X118683563Y-78166479D01*
X118462074Y-78225827D01*
X118462070Y-78225829D01*
X118254247Y-78322738D01*
X118066409Y-78454264D01*
X118066407Y-78454265D01*
X118066404Y-78454268D01*
X117904268Y-78616404D01*
X117772738Y-78804247D01*
X117675830Y-79012068D01*
X117675827Y-79012074D01*
X117616479Y-79233563D01*
X117616478Y-79233570D01*
X117596494Y-79461997D01*
X117596494Y-79462002D01*
X107781506Y-79462002D01*
X107781506Y-79462000D01*
X107761521Y-79233565D01*
X107702171Y-79012070D01*
X107605262Y-78804247D01*
X107473736Y-78616409D01*
X107311591Y-78454264D01*
X107123753Y-78322738D01*
X106915930Y-78225829D01*
X106915927Y-78225828D01*
X106915925Y-78225827D01*
X106694436Y-78166479D01*
X106694429Y-78166478D01*
X106466002Y-78146494D01*
X106465998Y-78146494D01*
X106237570Y-78166478D01*
X106237563Y-78166479D01*
X106016074Y-78225827D01*
X106016070Y-78225829D01*
X105808247Y-78322738D01*
X105620409Y-78454264D01*
X105620407Y-78454265D01*
X105620404Y-78454268D01*
X105458268Y-78616404D01*
X105326738Y-78804247D01*
X105229830Y-79012068D01*
X105229827Y-79012074D01*
X105170479Y-79233563D01*
X105170478Y-79233570D01*
X105150494Y-79461997D01*
X105150494Y-79462002D01*
X95335506Y-79462002D01*
X95335506Y-79462000D01*
X95315521Y-79233565D01*
X95256171Y-79012070D01*
X95159262Y-78804247D01*
X95027736Y-78616409D01*
X94865591Y-78454264D01*
X94677753Y-78322738D01*
X94469930Y-78225829D01*
X94469927Y-78225828D01*
X94469925Y-78225827D01*
X94248436Y-78166479D01*
X94248429Y-78166478D01*
X94020002Y-78146494D01*
X94019998Y-78146494D01*
X93791570Y-78166478D01*
X93791563Y-78166479D01*
X93570074Y-78225827D01*
X93570070Y-78225829D01*
X93362247Y-78322738D01*
X93174409Y-78454264D01*
X93174407Y-78454265D01*
X93174404Y-78454268D01*
X93012268Y-78616404D01*
X92880738Y-78804247D01*
X92783830Y-79012068D01*
X92783827Y-79012074D01*
X92724479Y-79233563D01*
X92724478Y-79233570D01*
X92704494Y-79461997D01*
X92704494Y-79462002D01*
X82889506Y-79462002D01*
X82889506Y-79462000D01*
X82869521Y-79233565D01*
X82810171Y-79012070D01*
X82713262Y-78804247D01*
X82581736Y-78616409D01*
X82419591Y-78454264D01*
X82231753Y-78322738D01*
X82023930Y-78225829D01*
X82023927Y-78225828D01*
X82023925Y-78225827D01*
X81802436Y-78166479D01*
X81802429Y-78166478D01*
X81574002Y-78146494D01*
X81573998Y-78146494D01*
X81345570Y-78166478D01*
X81345563Y-78166479D01*
X81124074Y-78225827D01*
X81124070Y-78225829D01*
X80916247Y-78322738D01*
X80728409Y-78454264D01*
X80728407Y-78454265D01*
X80728404Y-78454268D01*
X80566268Y-78616404D01*
X80434738Y-78804247D01*
X80337830Y-79012068D01*
X80337827Y-79012074D01*
X80278479Y-79233563D01*
X80278478Y-79233570D01*
X80258494Y-79461997D01*
X80258494Y-79462002D01*
X70443506Y-79462002D01*
X70443506Y-79462000D01*
X70423521Y-79233565D01*
X70364171Y-79012070D01*
X70267262Y-78804247D01*
X70135736Y-78616409D01*
X69973591Y-78454264D01*
X69785753Y-78322738D01*
X69577930Y-78225829D01*
X69577927Y-78225828D01*
X69577925Y-78225827D01*
X69356436Y-78166479D01*
X69356429Y-78166478D01*
X69128002Y-78146494D01*
X69127998Y-78146494D01*
X68899570Y-78166478D01*
X68899563Y-78166479D01*
X68678074Y-78225827D01*
X68678070Y-78225829D01*
X68470247Y-78322738D01*
X68282409Y-78454264D01*
X68282407Y-78454265D01*
X68282404Y-78454268D01*
X68120268Y-78616404D01*
X67988738Y-78804247D01*
X67891830Y-79012068D01*
X67891827Y-79012074D01*
X67832479Y-79233563D01*
X67832478Y-79233570D01*
X67812494Y-79461997D01*
X67812494Y-79462002D01*
X57997506Y-79462002D01*
X57997506Y-79462000D01*
X57977521Y-79233565D01*
X57918171Y-79012070D01*
X57821262Y-78804247D01*
X57689736Y-78616409D01*
X57527591Y-78454264D01*
X57339753Y-78322738D01*
X57131930Y-78225829D01*
X57131927Y-78225828D01*
X57131925Y-78225827D01*
X56910436Y-78166479D01*
X56910429Y-78166478D01*
X56682002Y-78146494D01*
X56681998Y-78146494D01*
X56453570Y-78166478D01*
X56453563Y-78166479D01*
X56232074Y-78225827D01*
X56232070Y-78225829D01*
X56024247Y-78322738D01*
X55836409Y-78454264D01*
X55836407Y-78454265D01*
X55836404Y-78454268D01*
X55674268Y-78616404D01*
X55542738Y-78804247D01*
X55445830Y-79012068D01*
X55445827Y-79012074D01*
X55386479Y-79233563D01*
X55386478Y-79233570D01*
X55366494Y-79461997D01*
X55366494Y-79462002D01*
X45551506Y-79462002D01*
X45551506Y-79462000D01*
X45531521Y-79233565D01*
X45472171Y-79012070D01*
X45375262Y-78804247D01*
X45243736Y-78616409D01*
X45081591Y-78454264D01*
X44893753Y-78322738D01*
X44685930Y-78225829D01*
X44685927Y-78225828D01*
X44685925Y-78225827D01*
X44464436Y-78166479D01*
X44464429Y-78166478D01*
X44236002Y-78146494D01*
X44235998Y-78146494D01*
X44007570Y-78166478D01*
X44007563Y-78166479D01*
X43786074Y-78225827D01*
X43786070Y-78225829D01*
X43578247Y-78322738D01*
X43390409Y-78454264D01*
X43390407Y-78454265D01*
X43390404Y-78454268D01*
X43228268Y-78616404D01*
X43096738Y-78804247D01*
X42999830Y-79012068D01*
X42999827Y-79012074D01*
X42940479Y-79233563D01*
X42940478Y-79233570D01*
X42920494Y-79461997D01*
X42920494Y-79462002D01*
X33105506Y-79462002D01*
X33105506Y-79462000D01*
X33085521Y-79233565D01*
X33026171Y-79012070D01*
X32929262Y-78804247D01*
X32797736Y-78616409D01*
X32635591Y-78454264D01*
X32447753Y-78322738D01*
X32239930Y-78225829D01*
X32239927Y-78225828D01*
X32239925Y-78225827D01*
X32018436Y-78166479D01*
X32018429Y-78166478D01*
X31790002Y-78146494D01*
X31789998Y-78146494D01*
X31561570Y-78166478D01*
X31561563Y-78166479D01*
X31340074Y-78225827D01*
X31340070Y-78225829D01*
X31132247Y-78322738D01*
X30944409Y-78454264D01*
X30944407Y-78454265D01*
X30944404Y-78454268D01*
X30782268Y-78616404D01*
X30650738Y-78804247D01*
X30553830Y-79012068D01*
X30553827Y-79012074D01*
X30494479Y-79233563D01*
X30494478Y-79233570D01*
X30474494Y-79461997D01*
X30474494Y-79462002D01*
X17780500Y-79462002D01*
X17780500Y-76962002D01*
X35474494Y-76962002D01*
X35494478Y-77190429D01*
X35494479Y-77190436D01*
X35553827Y-77411925D01*
X35553828Y-77411927D01*
X35553829Y-77411930D01*
X35650738Y-77619753D01*
X35782264Y-77807591D01*
X35944409Y-77969736D01*
X36132247Y-78101262D01*
X36340070Y-78198171D01*
X36561565Y-78257521D01*
X36724732Y-78271796D01*
X36789998Y-78277506D01*
X36790000Y-78277506D01*
X36790002Y-78277506D01*
X36847108Y-78272509D01*
X37018435Y-78257521D01*
X37239930Y-78198171D01*
X37447753Y-78101262D01*
X37635591Y-77969736D01*
X37797736Y-77807591D01*
X37827296Y-77765375D01*
X37881873Y-77721751D01*
X37928870Y-77712500D01*
X48097130Y-77712500D01*
X48164169Y-77732185D01*
X48198703Y-77765374D01*
X48228264Y-77807591D01*
X48390409Y-77969736D01*
X48578247Y-78101262D01*
X48786070Y-78198171D01*
X49007565Y-78257521D01*
X49170732Y-78271796D01*
X49235998Y-78277506D01*
X49236000Y-78277506D01*
X49236002Y-78277506D01*
X49293108Y-78272509D01*
X49464435Y-78257521D01*
X49685930Y-78198171D01*
X49893753Y-78101262D01*
X50081591Y-77969736D01*
X50243736Y-77807591D01*
X50273296Y-77765375D01*
X50327873Y-77721751D01*
X50374870Y-77712500D01*
X60543130Y-77712500D01*
X60610169Y-77732185D01*
X60644703Y-77765374D01*
X60674264Y-77807591D01*
X60836409Y-77969736D01*
X61024247Y-78101262D01*
X61232070Y-78198171D01*
X61453565Y-78257521D01*
X61616732Y-78271796D01*
X61681998Y-78277506D01*
X61682000Y-78277506D01*
X61682002Y-78277506D01*
X61739108Y-78272509D01*
X61910435Y-78257521D01*
X62131930Y-78198171D01*
X62339753Y-78101262D01*
X62527591Y-77969736D01*
X62689736Y-77807591D01*
X62719296Y-77765375D01*
X62773873Y-77721751D01*
X62820870Y-77712500D01*
X64230663Y-77712500D01*
X64297702Y-77732185D01*
X64303548Y-77736182D01*
X64317265Y-77746148D01*
X64317270Y-77746151D01*
X64490192Y-77823142D01*
X64490197Y-77823144D01*
X64675354Y-77862500D01*
X64675355Y-77862500D01*
X64864644Y-77862500D01*
X64864646Y-77862500D01*
X65049803Y-77823144D01*
X65222730Y-77746151D01*
X65224776Y-77744664D01*
X65236452Y-77736182D01*
X65302258Y-77712702D01*
X65309337Y-77712500D01*
X72989130Y-77712500D01*
X73056169Y-77732185D01*
X73090703Y-77765374D01*
X73120264Y-77807591D01*
X73282409Y-77969736D01*
X73470247Y-78101262D01*
X73678070Y-78198171D01*
X73899565Y-78257521D01*
X74062732Y-78271796D01*
X74127998Y-78277506D01*
X74128000Y-78277506D01*
X74128002Y-78277506D01*
X74185108Y-78272509D01*
X74356435Y-78257521D01*
X74577930Y-78198171D01*
X74785753Y-78101262D01*
X74973591Y-77969736D01*
X75135736Y-77807591D01*
X75165296Y-77765375D01*
X75219873Y-77721751D01*
X75266870Y-77712500D01*
X85435130Y-77712500D01*
X85502169Y-77732185D01*
X85536703Y-77765374D01*
X85566264Y-77807591D01*
X85728409Y-77969736D01*
X85916247Y-78101262D01*
X86124070Y-78198171D01*
X86345565Y-78257521D01*
X86508732Y-78271796D01*
X86573998Y-78277506D01*
X86574000Y-78277506D01*
X86574002Y-78277506D01*
X86631108Y-78272509D01*
X86802435Y-78257521D01*
X87023930Y-78198171D01*
X87231753Y-78101262D01*
X87419591Y-77969736D01*
X87581736Y-77807591D01*
X87611296Y-77765375D01*
X87665873Y-77721751D01*
X87712870Y-77712500D01*
X97881130Y-77712500D01*
X97948169Y-77732185D01*
X97982703Y-77765374D01*
X98012264Y-77807591D01*
X98174409Y-77969736D01*
X98362247Y-78101262D01*
X98570070Y-78198171D01*
X98791565Y-78257521D01*
X98954732Y-78271796D01*
X99019998Y-78277506D01*
X99020000Y-78277506D01*
X99020002Y-78277506D01*
X99077108Y-78272509D01*
X99248435Y-78257521D01*
X99469930Y-78198171D01*
X99677753Y-78101262D01*
X99865591Y-77969736D01*
X100027736Y-77807591D01*
X100057296Y-77765375D01*
X100111873Y-77721751D01*
X100158870Y-77712500D01*
X110327130Y-77712500D01*
X110394169Y-77732185D01*
X110428703Y-77765374D01*
X110458264Y-77807591D01*
X110620409Y-77969736D01*
X110808247Y-78101262D01*
X111016070Y-78198171D01*
X111237565Y-78257521D01*
X111400732Y-78271796D01*
X111465998Y-78277506D01*
X111466000Y-78277506D01*
X111466002Y-78277506D01*
X111523108Y-78272509D01*
X111694435Y-78257521D01*
X111915930Y-78198171D01*
X112123753Y-78101262D01*
X112311591Y-77969736D01*
X112473736Y-77807591D01*
X112503296Y-77765375D01*
X112557873Y-77721751D01*
X112604870Y-77712500D01*
X122773130Y-77712500D01*
X122840169Y-77732185D01*
X122874703Y-77765374D01*
X122904264Y-77807591D01*
X123066409Y-77969736D01*
X123254247Y-78101262D01*
X123462070Y-78198171D01*
X123683565Y-78257521D01*
X123846732Y-78271796D01*
X123911998Y-78277506D01*
X123912000Y-78277506D01*
X123912002Y-78277506D01*
X123969108Y-78272509D01*
X124140435Y-78257521D01*
X124361930Y-78198171D01*
X124569753Y-78101262D01*
X124757591Y-77969736D01*
X124919736Y-77807591D01*
X125051262Y-77619753D01*
X125148171Y-77411930D01*
X125207521Y-77190435D01*
X125227506Y-76962000D01*
X125207521Y-76733565D01*
X125148171Y-76512070D01*
X125051262Y-76304247D01*
X124919736Y-76116409D01*
X124757591Y-75954264D01*
X124569753Y-75822738D01*
X124361930Y-75725829D01*
X124361927Y-75725828D01*
X124361925Y-75725827D01*
X124140436Y-75666479D01*
X124140429Y-75666478D01*
X123912002Y-75646494D01*
X123911998Y-75646494D01*
X123683570Y-75666478D01*
X123683563Y-75666479D01*
X123462074Y-75725827D01*
X123462070Y-75725829D01*
X123254247Y-75822738D01*
X123066409Y-75954264D01*
X123066407Y-75954265D01*
X123066404Y-75954268D01*
X122904264Y-76116408D01*
X122887190Y-76140792D01*
X122874703Y-76158624D01*
X122820127Y-76202249D01*
X122773130Y-76211500D01*
X112604870Y-76211500D01*
X112537831Y-76191815D01*
X112503296Y-76158625D01*
X112473736Y-76116409D01*
X112311591Y-75954264D01*
X112123753Y-75822738D01*
X111915930Y-75725829D01*
X111915927Y-75725828D01*
X111915925Y-75725827D01*
X111694436Y-75666479D01*
X111694429Y-75666478D01*
X111466002Y-75646494D01*
X111465998Y-75646494D01*
X111237570Y-75666478D01*
X111237563Y-75666479D01*
X111016074Y-75725827D01*
X111016070Y-75725829D01*
X110808247Y-75822738D01*
X110620409Y-75954264D01*
X110620407Y-75954265D01*
X110620404Y-75954268D01*
X110458264Y-76116408D01*
X110441190Y-76140792D01*
X110428703Y-76158624D01*
X110374127Y-76202249D01*
X110327130Y-76211500D01*
X100158870Y-76211500D01*
X100091831Y-76191815D01*
X100057296Y-76158625D01*
X100027736Y-76116409D01*
X99865591Y-75954264D01*
X99677753Y-75822738D01*
X99469930Y-75725829D01*
X99469927Y-75725828D01*
X99469925Y-75725827D01*
X99248436Y-75666479D01*
X99248429Y-75666478D01*
X99020002Y-75646494D01*
X99019998Y-75646494D01*
X98791570Y-75666478D01*
X98791563Y-75666479D01*
X98570074Y-75725827D01*
X98570070Y-75725829D01*
X98362247Y-75822738D01*
X98174409Y-75954264D01*
X98174407Y-75954265D01*
X98174404Y-75954268D01*
X98012264Y-76116408D01*
X97995190Y-76140792D01*
X97982703Y-76158624D01*
X97928127Y-76202249D01*
X97881130Y-76211500D01*
X87712870Y-76211500D01*
X87645831Y-76191815D01*
X87611296Y-76158625D01*
X87581736Y-76116409D01*
X87419591Y-75954264D01*
X87231753Y-75822738D01*
X87023930Y-75725829D01*
X87023927Y-75725828D01*
X87023925Y-75725827D01*
X86802436Y-75666479D01*
X86802429Y-75666478D01*
X86574002Y-75646494D01*
X86573998Y-75646494D01*
X86345570Y-75666478D01*
X86345563Y-75666479D01*
X86124074Y-75725827D01*
X86124070Y-75725829D01*
X85916247Y-75822738D01*
X85728409Y-75954264D01*
X85728407Y-75954265D01*
X85728404Y-75954268D01*
X85566264Y-76116408D01*
X85549190Y-76140792D01*
X85536703Y-76158624D01*
X85482127Y-76202249D01*
X85435130Y-76211500D01*
X75266870Y-76211500D01*
X75199831Y-76191815D01*
X75165296Y-76158625D01*
X75135736Y-76116409D01*
X74973591Y-75954264D01*
X74785753Y-75822738D01*
X74577930Y-75725829D01*
X74577927Y-75725828D01*
X74577925Y-75725827D01*
X74356436Y-75666479D01*
X74356429Y-75666478D01*
X74128002Y-75646494D01*
X74127998Y-75646494D01*
X73899570Y-75666478D01*
X73899563Y-75666479D01*
X73678074Y-75725827D01*
X73678070Y-75725829D01*
X73470247Y-75822738D01*
X73282409Y-75954264D01*
X73282407Y-75954265D01*
X73282404Y-75954268D01*
X73120264Y-76116408D01*
X73103190Y-76140792D01*
X73090703Y-76158624D01*
X73036127Y-76202249D01*
X72989130Y-76211500D01*
X65309337Y-76211500D01*
X65242298Y-76191815D01*
X65236452Y-76187818D01*
X65222734Y-76177851D01*
X65222729Y-76177848D01*
X65049807Y-76100857D01*
X65049802Y-76100855D01*
X64904001Y-76069865D01*
X64864646Y-76061500D01*
X64675354Y-76061500D01*
X64642897Y-76068398D01*
X64490197Y-76100855D01*
X64490192Y-76100857D01*
X64317270Y-76177848D01*
X64317265Y-76177851D01*
X64303548Y-76187818D01*
X64237742Y-76211298D01*
X64230663Y-76211500D01*
X62820870Y-76211500D01*
X62753831Y-76191815D01*
X62719296Y-76158625D01*
X62689736Y-76116409D01*
X62527591Y-75954264D01*
X62339753Y-75822738D01*
X62131930Y-75725829D01*
X62131927Y-75725828D01*
X62131925Y-75725827D01*
X61910436Y-75666479D01*
X61910429Y-75666478D01*
X61682002Y-75646494D01*
X61681998Y-75646494D01*
X61453570Y-75666478D01*
X61453563Y-75666479D01*
X61232074Y-75725827D01*
X61232070Y-75725829D01*
X61024247Y-75822738D01*
X60836409Y-75954264D01*
X60836407Y-75954265D01*
X60836404Y-75954268D01*
X60674264Y-76116408D01*
X60657190Y-76140792D01*
X60644703Y-76158624D01*
X60590127Y-76202249D01*
X60543130Y-76211500D01*
X50374870Y-76211500D01*
X50307831Y-76191815D01*
X50273296Y-76158625D01*
X50243736Y-76116409D01*
X50081591Y-75954264D01*
X49893753Y-75822738D01*
X49685930Y-75725829D01*
X49685927Y-75725828D01*
X49685925Y-75725827D01*
X49464436Y-75666479D01*
X49464429Y-75666478D01*
X49236002Y-75646494D01*
X49235998Y-75646494D01*
X49007570Y-75666478D01*
X49007563Y-75666479D01*
X48786074Y-75725827D01*
X48786070Y-75725829D01*
X48578247Y-75822738D01*
X48390409Y-75954264D01*
X48390407Y-75954265D01*
X48390404Y-75954268D01*
X48228264Y-76116408D01*
X48211190Y-76140792D01*
X48198703Y-76158624D01*
X48144127Y-76202249D01*
X48097130Y-76211500D01*
X37928870Y-76211500D01*
X37861831Y-76191815D01*
X37827296Y-76158625D01*
X37797736Y-76116409D01*
X37635591Y-75954264D01*
X37447753Y-75822738D01*
X37239930Y-75725829D01*
X37239927Y-75725828D01*
X37239925Y-75725827D01*
X37018436Y-75666479D01*
X37018429Y-75666478D01*
X36790002Y-75646494D01*
X36789998Y-75646494D01*
X36561570Y-75666478D01*
X36561563Y-75666479D01*
X36340074Y-75725827D01*
X36340070Y-75725829D01*
X36132247Y-75822738D01*
X35944409Y-75954264D01*
X35944407Y-75954265D01*
X35944404Y-75954268D01*
X35782268Y-76116404D01*
X35782265Y-76116407D01*
X35782264Y-76116409D01*
X35650738Y-76304247D01*
X35553830Y-76512068D01*
X35553827Y-76512074D01*
X35494479Y-76733563D01*
X35494478Y-76733570D01*
X35474494Y-76961997D01*
X35474494Y-76962002D01*
X17780500Y-76962002D01*
X17780500Y-74462002D01*
X30474494Y-74462002D01*
X30494478Y-74690429D01*
X30494479Y-74690436D01*
X30553827Y-74911925D01*
X30553828Y-74911927D01*
X30553829Y-74911930D01*
X30650738Y-75119753D01*
X30782264Y-75307591D01*
X30944409Y-75469736D01*
X31132247Y-75601262D01*
X31340070Y-75698171D01*
X31561565Y-75757521D01*
X31724732Y-75771796D01*
X31789998Y-75777506D01*
X31790000Y-75777506D01*
X31790002Y-75777506D01*
X31847108Y-75772509D01*
X32018435Y-75757521D01*
X32239930Y-75698171D01*
X32447753Y-75601262D01*
X32635591Y-75469736D01*
X32797736Y-75307591D01*
X32827296Y-75265375D01*
X32881873Y-75221751D01*
X32928870Y-75212500D01*
X43097130Y-75212500D01*
X43164169Y-75232185D01*
X43198703Y-75265374D01*
X43228264Y-75307591D01*
X43390409Y-75469736D01*
X43578247Y-75601262D01*
X43786070Y-75698171D01*
X44007565Y-75757521D01*
X44170732Y-75771796D01*
X44235998Y-75777506D01*
X44236000Y-75777506D01*
X44236002Y-75777506D01*
X44293108Y-75772509D01*
X44464435Y-75757521D01*
X44685930Y-75698171D01*
X44893753Y-75601262D01*
X45081591Y-75469736D01*
X45243736Y-75307591D01*
X45273296Y-75265375D01*
X45327873Y-75221751D01*
X45374870Y-75212500D01*
X55543130Y-75212500D01*
X55610169Y-75232185D01*
X55644703Y-75265374D01*
X55674264Y-75307591D01*
X55836409Y-75469736D01*
X56024247Y-75601262D01*
X56232070Y-75698171D01*
X56453565Y-75757521D01*
X56616732Y-75771796D01*
X56681998Y-75777506D01*
X56682000Y-75777506D01*
X56682002Y-75777506D01*
X56739108Y-75772509D01*
X56910435Y-75757521D01*
X57131930Y-75698171D01*
X57339753Y-75601262D01*
X57527591Y-75469736D01*
X57689736Y-75307591D01*
X57719296Y-75265375D01*
X57773873Y-75221751D01*
X57820870Y-75212500D01*
X65829173Y-75212500D01*
X65879609Y-75223221D01*
X66014192Y-75283142D01*
X66014197Y-75283144D01*
X66199354Y-75322500D01*
X66199355Y-75322500D01*
X66388644Y-75322500D01*
X66388646Y-75322500D01*
X66573803Y-75283144D01*
X66643846Y-75251958D01*
X66708391Y-75223221D01*
X66758827Y-75212500D01*
X67989130Y-75212500D01*
X68056169Y-75232185D01*
X68090703Y-75265374D01*
X68120264Y-75307591D01*
X68282409Y-75469736D01*
X68470247Y-75601262D01*
X68678070Y-75698171D01*
X68899565Y-75757521D01*
X69062732Y-75771796D01*
X69127998Y-75777506D01*
X69128000Y-75777506D01*
X69128002Y-75777506D01*
X69185108Y-75772509D01*
X69356435Y-75757521D01*
X69577930Y-75698171D01*
X69785753Y-75601262D01*
X69973591Y-75469736D01*
X70135736Y-75307591D01*
X70165296Y-75265375D01*
X70219873Y-75221751D01*
X70266870Y-75212500D01*
X80435130Y-75212500D01*
X80502169Y-75232185D01*
X80536703Y-75265374D01*
X80566264Y-75307591D01*
X80728409Y-75469736D01*
X80916247Y-75601262D01*
X81124070Y-75698171D01*
X81345565Y-75757521D01*
X81508732Y-75771796D01*
X81573998Y-75777506D01*
X81574000Y-75777506D01*
X81574002Y-75777506D01*
X81631108Y-75772509D01*
X81802435Y-75757521D01*
X82023930Y-75698171D01*
X82231753Y-75601262D01*
X82419591Y-75469736D01*
X82581736Y-75307591D01*
X82611296Y-75265375D01*
X82665873Y-75221751D01*
X82712870Y-75212500D01*
X92881130Y-75212500D01*
X92948169Y-75232185D01*
X92982703Y-75265374D01*
X93012264Y-75307591D01*
X93174409Y-75469736D01*
X93362247Y-75601262D01*
X93570070Y-75698171D01*
X93791565Y-75757521D01*
X93954732Y-75771796D01*
X94019998Y-75777506D01*
X94020000Y-75777506D01*
X94020002Y-75777506D01*
X94077108Y-75772509D01*
X94248435Y-75757521D01*
X94469930Y-75698171D01*
X94677753Y-75601262D01*
X94865591Y-75469736D01*
X95027736Y-75307591D01*
X95057296Y-75265375D01*
X95111873Y-75221751D01*
X95158870Y-75212500D01*
X105327130Y-75212500D01*
X105394169Y-75232185D01*
X105428703Y-75265374D01*
X105458264Y-75307591D01*
X105620409Y-75469736D01*
X105808247Y-75601262D01*
X106016070Y-75698171D01*
X106237565Y-75757521D01*
X106400732Y-75771796D01*
X106465998Y-75777506D01*
X106466000Y-75777506D01*
X106466002Y-75777506D01*
X106523108Y-75772509D01*
X106694435Y-75757521D01*
X106915930Y-75698171D01*
X107123753Y-75601262D01*
X107311591Y-75469736D01*
X107473736Y-75307591D01*
X107503296Y-75265375D01*
X107557873Y-75221751D01*
X107604870Y-75212500D01*
X117773130Y-75212500D01*
X117840169Y-75232185D01*
X117874703Y-75265374D01*
X117904264Y-75307591D01*
X118066409Y-75469736D01*
X118254247Y-75601262D01*
X118462070Y-75698171D01*
X118683565Y-75757521D01*
X118846732Y-75771796D01*
X118911998Y-75777506D01*
X118912000Y-75777506D01*
X118912002Y-75777506D01*
X118969108Y-75772509D01*
X119140435Y-75757521D01*
X119361930Y-75698171D01*
X119569753Y-75601262D01*
X119757591Y-75469736D01*
X119919736Y-75307591D01*
X120051262Y-75119753D01*
X120148171Y-74911930D01*
X120207521Y-74690435D01*
X120227506Y-74462000D01*
X120207521Y-74233565D01*
X120148171Y-74012070D01*
X120051262Y-73804247D01*
X119919736Y-73616409D01*
X119757591Y-73454264D01*
X119569753Y-73322738D01*
X119361930Y-73225829D01*
X119361927Y-73225828D01*
X119361925Y-73225827D01*
X119140436Y-73166479D01*
X119140429Y-73166478D01*
X118912002Y-73146494D01*
X118911998Y-73146494D01*
X118683570Y-73166478D01*
X118683563Y-73166479D01*
X118462074Y-73225827D01*
X118462070Y-73225829D01*
X118254247Y-73322738D01*
X118066409Y-73454264D01*
X118066407Y-73454265D01*
X118066404Y-73454268D01*
X117904264Y-73616408D01*
X117889252Y-73637848D01*
X117874703Y-73658624D01*
X117820127Y-73702249D01*
X117773130Y-73711500D01*
X107604870Y-73711500D01*
X107537831Y-73691815D01*
X107503296Y-73658625D01*
X107473736Y-73616409D01*
X107311591Y-73454264D01*
X107123753Y-73322738D01*
X106915930Y-73225829D01*
X106915927Y-73225828D01*
X106915925Y-73225827D01*
X106694436Y-73166479D01*
X106694429Y-73166478D01*
X106466002Y-73146494D01*
X106465998Y-73146494D01*
X106237570Y-73166478D01*
X106237563Y-73166479D01*
X106016074Y-73225827D01*
X106016070Y-73225829D01*
X105808247Y-73322738D01*
X105620409Y-73454264D01*
X105620407Y-73454265D01*
X105620404Y-73454268D01*
X105458264Y-73616408D01*
X105443252Y-73637848D01*
X105428703Y-73658624D01*
X105374127Y-73702249D01*
X105327130Y-73711500D01*
X95158870Y-73711500D01*
X95091831Y-73691815D01*
X95057296Y-73658625D01*
X95027736Y-73616409D01*
X94865591Y-73454264D01*
X94677753Y-73322738D01*
X94469930Y-73225829D01*
X94469927Y-73225828D01*
X94469925Y-73225827D01*
X94248436Y-73166479D01*
X94248429Y-73166478D01*
X94020002Y-73146494D01*
X94019998Y-73146494D01*
X93791570Y-73166478D01*
X93791563Y-73166479D01*
X93570074Y-73225827D01*
X93570070Y-73225829D01*
X93362247Y-73322738D01*
X93174409Y-73454264D01*
X93174407Y-73454265D01*
X93174404Y-73454268D01*
X93012264Y-73616408D01*
X92997252Y-73637848D01*
X92982703Y-73658624D01*
X92928127Y-73702249D01*
X92881130Y-73711500D01*
X82712870Y-73711500D01*
X82645831Y-73691815D01*
X82611296Y-73658625D01*
X82581736Y-73616409D01*
X82419591Y-73454264D01*
X82231753Y-73322738D01*
X82023930Y-73225829D01*
X82023927Y-73225828D01*
X82023925Y-73225827D01*
X81802436Y-73166479D01*
X81802429Y-73166478D01*
X81574002Y-73146494D01*
X81573998Y-73146494D01*
X81345570Y-73166478D01*
X81345563Y-73166479D01*
X81124074Y-73225827D01*
X81124070Y-73225829D01*
X80916247Y-73322738D01*
X80728409Y-73454264D01*
X80728407Y-73454265D01*
X80728404Y-73454268D01*
X80566264Y-73616408D01*
X80551252Y-73637848D01*
X80536703Y-73658624D01*
X80482127Y-73702249D01*
X80435130Y-73711500D01*
X70266870Y-73711500D01*
X70199831Y-73691815D01*
X70165296Y-73658625D01*
X70135736Y-73616409D01*
X69973591Y-73454264D01*
X69785753Y-73322738D01*
X69577930Y-73225829D01*
X69577927Y-73225828D01*
X69577925Y-73225827D01*
X69356436Y-73166479D01*
X69356429Y-73166478D01*
X69128002Y-73146494D01*
X69127998Y-73146494D01*
X68899570Y-73166478D01*
X68899563Y-73166479D01*
X68678074Y-73225827D01*
X68678070Y-73225829D01*
X68470247Y-73322738D01*
X68282409Y-73454264D01*
X68282407Y-73454265D01*
X68282404Y-73454268D01*
X68120264Y-73616408D01*
X68105252Y-73637848D01*
X68090703Y-73658624D01*
X68036127Y-73702249D01*
X67989130Y-73711500D01*
X66888392Y-73711500D01*
X66821353Y-73691815D01*
X66815506Y-73687818D01*
X66746729Y-73637848D01*
X66573807Y-73560857D01*
X66573802Y-73560855D01*
X66428001Y-73529865D01*
X66388646Y-73521500D01*
X66199354Y-73521500D01*
X66166897Y-73528398D01*
X66014197Y-73560855D01*
X66014192Y-73560857D01*
X65841270Y-73637848D01*
X65772494Y-73687818D01*
X65706687Y-73711298D01*
X65699608Y-73711500D01*
X57820870Y-73711500D01*
X57753831Y-73691815D01*
X57719296Y-73658625D01*
X57689736Y-73616409D01*
X57527591Y-73454264D01*
X57339753Y-73322738D01*
X57131930Y-73225829D01*
X57131927Y-73225828D01*
X57131925Y-73225827D01*
X56910436Y-73166479D01*
X56910429Y-73166478D01*
X56682002Y-73146494D01*
X56681998Y-73146494D01*
X56453570Y-73166478D01*
X56453563Y-73166479D01*
X56232074Y-73225827D01*
X56232070Y-73225829D01*
X56024247Y-73322738D01*
X55836409Y-73454264D01*
X55836407Y-73454265D01*
X55836404Y-73454268D01*
X55674264Y-73616408D01*
X55659252Y-73637848D01*
X55644703Y-73658624D01*
X55590127Y-73702249D01*
X55543130Y-73711500D01*
X45374870Y-73711500D01*
X45307831Y-73691815D01*
X45273296Y-73658625D01*
X45243736Y-73616409D01*
X45081591Y-73454264D01*
X44893753Y-73322738D01*
X44685930Y-73225829D01*
X44685927Y-73225828D01*
X44685925Y-73225827D01*
X44464436Y-73166479D01*
X44464429Y-73166478D01*
X44236002Y-73146494D01*
X44235998Y-73146494D01*
X44007570Y-73166478D01*
X44007563Y-73166479D01*
X43786074Y-73225827D01*
X43786070Y-73225829D01*
X43578247Y-73322738D01*
X43390409Y-73454264D01*
X43390407Y-73454265D01*
X43390404Y-73454268D01*
X43228264Y-73616408D01*
X43213252Y-73637848D01*
X43198703Y-73658624D01*
X43144127Y-73702249D01*
X43097130Y-73711500D01*
X32928870Y-73711500D01*
X32861831Y-73691815D01*
X32827296Y-73658625D01*
X32797736Y-73616409D01*
X32635591Y-73454264D01*
X32447753Y-73322738D01*
X32239930Y-73225829D01*
X32239927Y-73225828D01*
X32239925Y-73225827D01*
X32018436Y-73166479D01*
X32018429Y-73166478D01*
X31790002Y-73146494D01*
X31789998Y-73146494D01*
X31561570Y-73166478D01*
X31561563Y-73166479D01*
X31340074Y-73225827D01*
X31340070Y-73225829D01*
X31132247Y-73322738D01*
X30944409Y-73454264D01*
X30944407Y-73454265D01*
X30944404Y-73454268D01*
X30782268Y-73616404D01*
X30782265Y-73616407D01*
X30782264Y-73616409D01*
X30650738Y-73804247D01*
X30553830Y-74012068D01*
X30553827Y-74012074D01*
X30494479Y-74233563D01*
X30494478Y-74233570D01*
X30474494Y-74461997D01*
X30474494Y-74462002D01*
X17780500Y-74462002D01*
X17780500Y-69302002D01*
X36570494Y-69302002D01*
X36590478Y-69530429D01*
X36590479Y-69530436D01*
X36649827Y-69751925D01*
X36649828Y-69751927D01*
X36649829Y-69751930D01*
X36746738Y-69959753D01*
X36878264Y-70147591D01*
X37040409Y-70309736D01*
X37228247Y-70441262D01*
X37436070Y-70538171D01*
X37657565Y-70597521D01*
X37820732Y-70611796D01*
X37885998Y-70617506D01*
X37886000Y-70617506D01*
X37886002Y-70617506D01*
X37943108Y-70612509D01*
X38114435Y-70597521D01*
X38335930Y-70538171D01*
X38543753Y-70441262D01*
X38731591Y-70309736D01*
X38893736Y-70147591D01*
X39025262Y-69959753D01*
X39122171Y-69751930D01*
X39181521Y-69530435D01*
X39201506Y-69302002D01*
X49270494Y-69302002D01*
X49290478Y-69530429D01*
X49290479Y-69530436D01*
X49349827Y-69751925D01*
X49349828Y-69751927D01*
X49349829Y-69751930D01*
X49446738Y-69959753D01*
X49578264Y-70147591D01*
X49740409Y-70309736D01*
X49928247Y-70441262D01*
X50136070Y-70538171D01*
X50357565Y-70597521D01*
X50520732Y-70611796D01*
X50585998Y-70617506D01*
X50586000Y-70617506D01*
X50586002Y-70617506D01*
X50643108Y-70612509D01*
X50814435Y-70597521D01*
X51035930Y-70538171D01*
X51243753Y-70441262D01*
X51431591Y-70309736D01*
X51593736Y-70147591D01*
X51725262Y-69959753D01*
X51822171Y-69751930D01*
X51881521Y-69530435D01*
X51901506Y-69302002D01*
X74162494Y-69302002D01*
X74182478Y-69530429D01*
X74182479Y-69530436D01*
X74241827Y-69751925D01*
X74241828Y-69751927D01*
X74241829Y-69751930D01*
X74338738Y-69959753D01*
X74470264Y-70147591D01*
X74632409Y-70309736D01*
X74820247Y-70441262D01*
X75028070Y-70538171D01*
X75249565Y-70597521D01*
X75412732Y-70611796D01*
X75477998Y-70617506D01*
X75478000Y-70617506D01*
X75478002Y-70617506D01*
X75535108Y-70612509D01*
X75706435Y-70597521D01*
X75927930Y-70538171D01*
X76135753Y-70441262D01*
X76323591Y-70309736D01*
X76485736Y-70147591D01*
X76617262Y-69959753D01*
X76714171Y-69751930D01*
X76773521Y-69530435D01*
X76793506Y-69302002D01*
X86608494Y-69302002D01*
X86628478Y-69530429D01*
X86628479Y-69530436D01*
X86687827Y-69751925D01*
X86687828Y-69751927D01*
X86687829Y-69751930D01*
X86784738Y-69959753D01*
X86916264Y-70147591D01*
X87078409Y-70309736D01*
X87266247Y-70441262D01*
X87474070Y-70538171D01*
X87695565Y-70597521D01*
X87858732Y-70611796D01*
X87923998Y-70617506D01*
X87924000Y-70617506D01*
X87924002Y-70617506D01*
X87981108Y-70612509D01*
X88152435Y-70597521D01*
X88373930Y-70538171D01*
X88581753Y-70441262D01*
X88769591Y-70309736D01*
X88931736Y-70147591D01*
X89063262Y-69959753D01*
X89160171Y-69751930D01*
X89219521Y-69530435D01*
X89239506Y-69302002D01*
X99054494Y-69302002D01*
X99074478Y-69530429D01*
X99074479Y-69530436D01*
X99133827Y-69751925D01*
X99133828Y-69751927D01*
X99133829Y-69751930D01*
X99230738Y-69959753D01*
X99362264Y-70147591D01*
X99524409Y-70309736D01*
X99712247Y-70441262D01*
X99920070Y-70538171D01*
X100141565Y-70597521D01*
X100304732Y-70611796D01*
X100369998Y-70617506D01*
X100370000Y-70617506D01*
X100370002Y-70617506D01*
X100427108Y-70612509D01*
X100598435Y-70597521D01*
X100819930Y-70538171D01*
X101027753Y-70441262D01*
X101215591Y-70309736D01*
X101377736Y-70147591D01*
X101509262Y-69959753D01*
X101606171Y-69751930D01*
X101665521Y-69530435D01*
X101685506Y-69302000D01*
X101665521Y-69073565D01*
X101606171Y-68852070D01*
X101509262Y-68644247D01*
X101377736Y-68456409D01*
X101215591Y-68294264D01*
X101027753Y-68162738D01*
X100819930Y-68065829D01*
X100819927Y-68065828D01*
X100819925Y-68065827D01*
X100598436Y-68006479D01*
X100598429Y-68006478D01*
X100370002Y-67986494D01*
X100369998Y-67986494D01*
X100141570Y-68006478D01*
X100141563Y-68006479D01*
X99920074Y-68065827D01*
X99920070Y-68065829D01*
X99712247Y-68162738D01*
X99524409Y-68294264D01*
X99524407Y-68294265D01*
X99524404Y-68294268D01*
X99362268Y-68456404D01*
X99230738Y-68644247D01*
X99133830Y-68852068D01*
X99133827Y-68852074D01*
X99074479Y-69073563D01*
X99074478Y-69073570D01*
X99054494Y-69301997D01*
X99054494Y-69302002D01*
X89239506Y-69302002D01*
X89239506Y-69302000D01*
X89219521Y-69073565D01*
X89160171Y-68852070D01*
X89063262Y-68644247D01*
X88931736Y-68456409D01*
X88769591Y-68294264D01*
X88581753Y-68162738D01*
X88373930Y-68065829D01*
X88373927Y-68065828D01*
X88373925Y-68065827D01*
X88152436Y-68006479D01*
X88152429Y-68006478D01*
X87924002Y-67986494D01*
X87923998Y-67986494D01*
X87695570Y-68006478D01*
X87695563Y-68006479D01*
X87474074Y-68065827D01*
X87474070Y-68065829D01*
X87266247Y-68162738D01*
X87078409Y-68294264D01*
X87078407Y-68294265D01*
X87078404Y-68294268D01*
X86916268Y-68456404D01*
X86784738Y-68644247D01*
X86687830Y-68852068D01*
X86687827Y-68852074D01*
X86628479Y-69073563D01*
X86628478Y-69073570D01*
X86608494Y-69301997D01*
X86608494Y-69302002D01*
X76793506Y-69302002D01*
X76793506Y-69302000D01*
X76773521Y-69073565D01*
X76714171Y-68852070D01*
X76617262Y-68644247D01*
X76485736Y-68456409D01*
X76323591Y-68294264D01*
X76135753Y-68162738D01*
X75927930Y-68065829D01*
X75927927Y-68065828D01*
X75927925Y-68065827D01*
X75706436Y-68006479D01*
X75706429Y-68006478D01*
X75478002Y-67986494D01*
X75477998Y-67986494D01*
X75249570Y-68006478D01*
X75249563Y-68006479D01*
X75028074Y-68065827D01*
X75028070Y-68065829D01*
X74820247Y-68162738D01*
X74632409Y-68294264D01*
X74632407Y-68294265D01*
X74632404Y-68294268D01*
X74470268Y-68456404D01*
X74338738Y-68644247D01*
X74241830Y-68852068D01*
X74241827Y-68852074D01*
X74182479Y-69073563D01*
X74182478Y-69073570D01*
X74162494Y-69301997D01*
X74162494Y-69302002D01*
X51901506Y-69302002D01*
X51901506Y-69302000D01*
X51881521Y-69073565D01*
X51822171Y-68852070D01*
X51725262Y-68644247D01*
X51593736Y-68456409D01*
X51431591Y-68294264D01*
X51243753Y-68162738D01*
X51035930Y-68065829D01*
X51035927Y-68065828D01*
X51035925Y-68065827D01*
X50814436Y-68006479D01*
X50814429Y-68006478D01*
X50586002Y-67986494D01*
X50585998Y-67986494D01*
X50357570Y-68006478D01*
X50357563Y-68006479D01*
X50136074Y-68065827D01*
X50136070Y-68065829D01*
X49928247Y-68162738D01*
X49740409Y-68294264D01*
X49740407Y-68294265D01*
X49740404Y-68294268D01*
X49578268Y-68456404D01*
X49446738Y-68644247D01*
X49349830Y-68852068D01*
X49349827Y-68852074D01*
X49290479Y-69073563D01*
X49290478Y-69073570D01*
X49270494Y-69301997D01*
X49270494Y-69302002D01*
X39201506Y-69302002D01*
X39201506Y-69302000D01*
X39181521Y-69073565D01*
X39122171Y-68852070D01*
X39025262Y-68644247D01*
X38893736Y-68456409D01*
X38731591Y-68294264D01*
X38543753Y-68162738D01*
X38335930Y-68065829D01*
X38335927Y-68065828D01*
X38335925Y-68065827D01*
X38114436Y-68006479D01*
X38114429Y-68006478D01*
X37886002Y-67986494D01*
X37885998Y-67986494D01*
X37657570Y-68006478D01*
X37657563Y-68006479D01*
X37436074Y-68065827D01*
X37436070Y-68065829D01*
X37228247Y-68162738D01*
X37040409Y-68294264D01*
X37040407Y-68294265D01*
X37040404Y-68294268D01*
X36878268Y-68456404D01*
X36746738Y-68644247D01*
X36649830Y-68852068D01*
X36649827Y-68852074D01*
X36590479Y-69073563D01*
X36590478Y-69073570D01*
X36570494Y-69301997D01*
X36570494Y-69302002D01*
X17780500Y-69302002D01*
X17780500Y-66802002D01*
X41570494Y-66802002D01*
X41590478Y-67030429D01*
X41590479Y-67030436D01*
X41649827Y-67251925D01*
X41649828Y-67251927D01*
X41649829Y-67251930D01*
X41746738Y-67459753D01*
X41878264Y-67647591D01*
X42040409Y-67809736D01*
X42228247Y-67941262D01*
X42436070Y-68038171D01*
X42657565Y-68097521D01*
X42820732Y-68111796D01*
X42885998Y-68117506D01*
X42886000Y-68117506D01*
X42886002Y-68117506D01*
X42943108Y-68112509D01*
X43114435Y-68097521D01*
X43335930Y-68038171D01*
X43543753Y-67941262D01*
X43731591Y-67809736D01*
X43893736Y-67647591D01*
X43923296Y-67605375D01*
X43977873Y-67561751D01*
X44024870Y-67552500D01*
X54447130Y-67552500D01*
X54514169Y-67572185D01*
X54548703Y-67605374D01*
X54578264Y-67647591D01*
X54740409Y-67809736D01*
X54928247Y-67941262D01*
X55136070Y-68038171D01*
X55357565Y-68097521D01*
X55520732Y-68111796D01*
X55585998Y-68117506D01*
X55586000Y-68117506D01*
X55586002Y-68117506D01*
X55643108Y-68112509D01*
X55814435Y-68097521D01*
X56035930Y-68038171D01*
X56243753Y-67941262D01*
X56431591Y-67809736D01*
X56593736Y-67647591D01*
X56623296Y-67605375D01*
X56677873Y-67561751D01*
X56724870Y-67552500D01*
X64230663Y-67552500D01*
X64297702Y-67572185D01*
X64303548Y-67576182D01*
X64317265Y-67586148D01*
X64317270Y-67586151D01*
X64490192Y-67663142D01*
X64490197Y-67663144D01*
X64675354Y-67702500D01*
X64675355Y-67702500D01*
X64864644Y-67702500D01*
X64864646Y-67702500D01*
X65049803Y-67663144D01*
X65222730Y-67586151D01*
X65224776Y-67584664D01*
X65236452Y-67576182D01*
X65302258Y-67552702D01*
X65309337Y-67552500D01*
X79339130Y-67552500D01*
X79406169Y-67572185D01*
X79440703Y-67605374D01*
X79470264Y-67647591D01*
X79632409Y-67809736D01*
X79820247Y-67941262D01*
X80028070Y-68038171D01*
X80249565Y-68097521D01*
X80412732Y-68111796D01*
X80477998Y-68117506D01*
X80478000Y-68117506D01*
X80478002Y-68117506D01*
X80535108Y-68112509D01*
X80706435Y-68097521D01*
X80927930Y-68038171D01*
X81135753Y-67941262D01*
X81323591Y-67809736D01*
X81485736Y-67647591D01*
X81515296Y-67605375D01*
X81569873Y-67561751D01*
X81616870Y-67552500D01*
X91785130Y-67552500D01*
X91852169Y-67572185D01*
X91886703Y-67605374D01*
X91916264Y-67647591D01*
X92078409Y-67809736D01*
X92266247Y-67941262D01*
X92474070Y-68038171D01*
X92695565Y-68097521D01*
X92858732Y-68111796D01*
X92923998Y-68117506D01*
X92924000Y-68117506D01*
X92924002Y-68117506D01*
X92981108Y-68112509D01*
X93152435Y-68097521D01*
X93373930Y-68038171D01*
X93581753Y-67941262D01*
X93769591Y-67809736D01*
X93931736Y-67647591D01*
X93961296Y-67605375D01*
X94015873Y-67561751D01*
X94062870Y-67552500D01*
X104231130Y-67552500D01*
X104298169Y-67572185D01*
X104332703Y-67605374D01*
X104362264Y-67647591D01*
X104524409Y-67809736D01*
X104712247Y-67941262D01*
X104920070Y-68038171D01*
X105141565Y-68097521D01*
X105304732Y-68111796D01*
X105369998Y-68117506D01*
X105370000Y-68117506D01*
X105370002Y-68117506D01*
X105427108Y-68112509D01*
X105598435Y-68097521D01*
X105819930Y-68038171D01*
X106027753Y-67941262D01*
X106215591Y-67809736D01*
X106377736Y-67647591D01*
X106509262Y-67459753D01*
X106606171Y-67251930D01*
X106665521Y-67030435D01*
X106685506Y-66802000D01*
X106665521Y-66573565D01*
X106606171Y-66352070D01*
X106509262Y-66144247D01*
X106377736Y-65956409D01*
X106215591Y-65794264D01*
X106027753Y-65662738D01*
X105819930Y-65565829D01*
X105819927Y-65565828D01*
X105819925Y-65565827D01*
X105598436Y-65506479D01*
X105598429Y-65506478D01*
X105370002Y-65486494D01*
X105369998Y-65486494D01*
X105141570Y-65506478D01*
X105141563Y-65506479D01*
X104920074Y-65565827D01*
X104920070Y-65565829D01*
X104712247Y-65662738D01*
X104524409Y-65794264D01*
X104524407Y-65794265D01*
X104524404Y-65794268D01*
X104362264Y-65956408D01*
X104345190Y-65980792D01*
X104332703Y-65998624D01*
X104278127Y-66042249D01*
X104231130Y-66051500D01*
X94062870Y-66051500D01*
X93995831Y-66031815D01*
X93961296Y-65998625D01*
X93931736Y-65956409D01*
X93769591Y-65794264D01*
X93581753Y-65662738D01*
X93373930Y-65565829D01*
X93373927Y-65565828D01*
X93373925Y-65565827D01*
X93152436Y-65506479D01*
X93152429Y-65506478D01*
X92924002Y-65486494D01*
X92923998Y-65486494D01*
X92695570Y-65506478D01*
X92695563Y-65506479D01*
X92474074Y-65565827D01*
X92474070Y-65565829D01*
X92266247Y-65662738D01*
X92078409Y-65794264D01*
X92078407Y-65794265D01*
X92078404Y-65794268D01*
X91916264Y-65956408D01*
X91899190Y-65980792D01*
X91886703Y-65998624D01*
X91832127Y-66042249D01*
X91785130Y-66051500D01*
X81616870Y-66051500D01*
X81549831Y-66031815D01*
X81515296Y-65998625D01*
X81485736Y-65956409D01*
X81323591Y-65794264D01*
X81135753Y-65662738D01*
X80927930Y-65565829D01*
X80927927Y-65565828D01*
X80927925Y-65565827D01*
X80706436Y-65506479D01*
X80706429Y-65506478D01*
X80478002Y-65486494D01*
X80477998Y-65486494D01*
X80249570Y-65506478D01*
X80249563Y-65506479D01*
X80028074Y-65565827D01*
X80028070Y-65565829D01*
X79820247Y-65662738D01*
X79632409Y-65794264D01*
X79632407Y-65794265D01*
X79632404Y-65794268D01*
X79470264Y-65956408D01*
X79453190Y-65980792D01*
X79440703Y-65998624D01*
X79386127Y-66042249D01*
X79339130Y-66051500D01*
X65309337Y-66051500D01*
X65242298Y-66031815D01*
X65236452Y-66027818D01*
X65222734Y-66017851D01*
X65222729Y-66017848D01*
X65049807Y-65940857D01*
X65049802Y-65940855D01*
X64904001Y-65909865D01*
X64864646Y-65901500D01*
X64675354Y-65901500D01*
X64642897Y-65908398D01*
X64490197Y-65940855D01*
X64490192Y-65940857D01*
X64317270Y-66017848D01*
X64317265Y-66017851D01*
X64303548Y-66027818D01*
X64237742Y-66051298D01*
X64230663Y-66051500D01*
X56724870Y-66051500D01*
X56657831Y-66031815D01*
X56623296Y-65998625D01*
X56593736Y-65956409D01*
X56431591Y-65794264D01*
X56243753Y-65662738D01*
X56035930Y-65565829D01*
X56035927Y-65565828D01*
X56035925Y-65565827D01*
X55814436Y-65506479D01*
X55814429Y-65506478D01*
X55586002Y-65486494D01*
X55585998Y-65486494D01*
X55357570Y-65506478D01*
X55357563Y-65506479D01*
X55136074Y-65565827D01*
X55136070Y-65565829D01*
X54928247Y-65662738D01*
X54740409Y-65794264D01*
X54740407Y-65794265D01*
X54740404Y-65794268D01*
X54578264Y-65956408D01*
X54561190Y-65980792D01*
X54548703Y-65998624D01*
X54494127Y-66042249D01*
X54447130Y-66051500D01*
X44024870Y-66051500D01*
X43957831Y-66031815D01*
X43923296Y-65998625D01*
X43893736Y-65956409D01*
X43731591Y-65794264D01*
X43543753Y-65662738D01*
X43335930Y-65565829D01*
X43335927Y-65565828D01*
X43335925Y-65565827D01*
X43114436Y-65506479D01*
X43114429Y-65506478D01*
X42886002Y-65486494D01*
X42885998Y-65486494D01*
X42657570Y-65506478D01*
X42657563Y-65506479D01*
X42436074Y-65565827D01*
X42436070Y-65565829D01*
X42228247Y-65662738D01*
X42040409Y-65794264D01*
X42040407Y-65794265D01*
X42040404Y-65794268D01*
X41878268Y-65956404D01*
X41878265Y-65956407D01*
X41878264Y-65956409D01*
X41746738Y-66144247D01*
X41649830Y-66352068D01*
X41649827Y-66352074D01*
X41590479Y-66573563D01*
X41590478Y-66573570D01*
X41570494Y-66801997D01*
X41570494Y-66802002D01*
X17780500Y-66802002D01*
X17780500Y-64302002D01*
X36570494Y-64302002D01*
X36590478Y-64530429D01*
X36590479Y-64530436D01*
X36649827Y-64751925D01*
X36649828Y-64751927D01*
X36649829Y-64751930D01*
X36746738Y-64959753D01*
X36878264Y-65147591D01*
X37040409Y-65309736D01*
X37228247Y-65441262D01*
X37436070Y-65538171D01*
X37657565Y-65597521D01*
X37820732Y-65611796D01*
X37885998Y-65617506D01*
X37886000Y-65617506D01*
X37886002Y-65617506D01*
X37943108Y-65612509D01*
X38114435Y-65597521D01*
X38335930Y-65538171D01*
X38543753Y-65441262D01*
X38731591Y-65309736D01*
X38893736Y-65147591D01*
X38923296Y-65105375D01*
X38977873Y-65061751D01*
X39024870Y-65052500D01*
X49447130Y-65052500D01*
X49514169Y-65072185D01*
X49548703Y-65105374D01*
X49578264Y-65147591D01*
X49740409Y-65309736D01*
X49928247Y-65441262D01*
X50136070Y-65538171D01*
X50357565Y-65597521D01*
X50520732Y-65611796D01*
X50585998Y-65617506D01*
X50586000Y-65617506D01*
X50586002Y-65617506D01*
X50643108Y-65612509D01*
X50814435Y-65597521D01*
X51035930Y-65538171D01*
X51243753Y-65441262D01*
X51431591Y-65309736D01*
X51593736Y-65147591D01*
X51623296Y-65105375D01*
X51677873Y-65061751D01*
X51724870Y-65052500D01*
X65829173Y-65052500D01*
X65879609Y-65063221D01*
X66014192Y-65123142D01*
X66014197Y-65123144D01*
X66199354Y-65162500D01*
X66199355Y-65162500D01*
X66388644Y-65162500D01*
X66388646Y-65162500D01*
X66573803Y-65123144D01*
X66643846Y-65091958D01*
X66708391Y-65063221D01*
X66758827Y-65052500D01*
X74339130Y-65052500D01*
X74406169Y-65072185D01*
X74440703Y-65105374D01*
X74470264Y-65147591D01*
X74632409Y-65309736D01*
X74820247Y-65441262D01*
X75028070Y-65538171D01*
X75249565Y-65597521D01*
X75412732Y-65611796D01*
X75477998Y-65617506D01*
X75478000Y-65617506D01*
X75478002Y-65617506D01*
X75535108Y-65612509D01*
X75706435Y-65597521D01*
X75927930Y-65538171D01*
X76135753Y-65441262D01*
X76323591Y-65309736D01*
X76485736Y-65147591D01*
X76515296Y-65105375D01*
X76569873Y-65061751D01*
X76616870Y-65052500D01*
X86785130Y-65052500D01*
X86852169Y-65072185D01*
X86886703Y-65105374D01*
X86916264Y-65147591D01*
X87078409Y-65309736D01*
X87266247Y-65441262D01*
X87474070Y-65538171D01*
X87695565Y-65597521D01*
X87858732Y-65611796D01*
X87923998Y-65617506D01*
X87924000Y-65617506D01*
X87924002Y-65617506D01*
X87981108Y-65612509D01*
X88152435Y-65597521D01*
X88373930Y-65538171D01*
X88581753Y-65441262D01*
X88769591Y-65309736D01*
X88931736Y-65147591D01*
X88961296Y-65105375D01*
X89015873Y-65061751D01*
X89062870Y-65052500D01*
X99231130Y-65052500D01*
X99298169Y-65072185D01*
X99332703Y-65105374D01*
X99362264Y-65147591D01*
X99524409Y-65309736D01*
X99712247Y-65441262D01*
X99920070Y-65538171D01*
X100141565Y-65597521D01*
X100304732Y-65611796D01*
X100369998Y-65617506D01*
X100370000Y-65617506D01*
X100370002Y-65617506D01*
X100427108Y-65612509D01*
X100598435Y-65597521D01*
X100819930Y-65538171D01*
X101027753Y-65441262D01*
X101215591Y-65309736D01*
X101377736Y-65147591D01*
X101509262Y-64959753D01*
X101606171Y-64751930D01*
X101665521Y-64530435D01*
X101685506Y-64302000D01*
X101665521Y-64073565D01*
X101606171Y-63852070D01*
X101509262Y-63644247D01*
X101377736Y-63456409D01*
X101215591Y-63294264D01*
X101027753Y-63162738D01*
X100819930Y-63065829D01*
X100819927Y-63065828D01*
X100819925Y-63065827D01*
X100598436Y-63006479D01*
X100598429Y-63006478D01*
X100370002Y-62986494D01*
X100369998Y-62986494D01*
X100141570Y-63006478D01*
X100141563Y-63006479D01*
X99920074Y-63065827D01*
X99920070Y-63065829D01*
X99712247Y-63162738D01*
X99524409Y-63294264D01*
X99524407Y-63294265D01*
X99524404Y-63294268D01*
X99362264Y-63456408D01*
X99347252Y-63477848D01*
X99332703Y-63498624D01*
X99278127Y-63542249D01*
X99231130Y-63551500D01*
X89062870Y-63551500D01*
X88995831Y-63531815D01*
X88961296Y-63498625D01*
X88931736Y-63456409D01*
X88769591Y-63294264D01*
X88581753Y-63162738D01*
X88373930Y-63065829D01*
X88373927Y-63065828D01*
X88373925Y-63065827D01*
X88152436Y-63006479D01*
X88152429Y-63006478D01*
X87924002Y-62986494D01*
X87923998Y-62986494D01*
X87695570Y-63006478D01*
X87695563Y-63006479D01*
X87474074Y-63065827D01*
X87474070Y-63065829D01*
X87266247Y-63162738D01*
X87078409Y-63294264D01*
X87078407Y-63294265D01*
X87078404Y-63294268D01*
X86916264Y-63456408D01*
X86901252Y-63477848D01*
X86886703Y-63498624D01*
X86832127Y-63542249D01*
X86785130Y-63551500D01*
X76616870Y-63551500D01*
X76549831Y-63531815D01*
X76515296Y-63498625D01*
X76485736Y-63456409D01*
X76323591Y-63294264D01*
X76135753Y-63162738D01*
X75927930Y-63065829D01*
X75927927Y-63065828D01*
X75927925Y-63065827D01*
X75706436Y-63006479D01*
X75706429Y-63006478D01*
X75478002Y-62986494D01*
X75477998Y-62986494D01*
X75249570Y-63006478D01*
X75249563Y-63006479D01*
X75028074Y-63065827D01*
X75028070Y-63065829D01*
X74820247Y-63162738D01*
X74632409Y-63294264D01*
X74632407Y-63294265D01*
X74632404Y-63294268D01*
X74470264Y-63456408D01*
X74455252Y-63477848D01*
X74440703Y-63498624D01*
X74386127Y-63542249D01*
X74339130Y-63551500D01*
X66888392Y-63551500D01*
X66821353Y-63531815D01*
X66815506Y-63527818D01*
X66746729Y-63477848D01*
X66573807Y-63400857D01*
X66573802Y-63400855D01*
X66428001Y-63369865D01*
X66388646Y-63361500D01*
X66199354Y-63361500D01*
X66166897Y-63368398D01*
X66014197Y-63400855D01*
X66014192Y-63400857D01*
X65841270Y-63477848D01*
X65772494Y-63527818D01*
X65706687Y-63551298D01*
X65699608Y-63551500D01*
X51724870Y-63551500D01*
X51657831Y-63531815D01*
X51623296Y-63498625D01*
X51593736Y-63456409D01*
X51431591Y-63294264D01*
X51243753Y-63162738D01*
X51035930Y-63065829D01*
X51035927Y-63065828D01*
X51035925Y-63065827D01*
X50814436Y-63006479D01*
X50814429Y-63006478D01*
X50586002Y-62986494D01*
X50585998Y-62986494D01*
X50357570Y-63006478D01*
X50357563Y-63006479D01*
X50136074Y-63065827D01*
X50136070Y-63065829D01*
X49928247Y-63162738D01*
X49740409Y-63294264D01*
X49740407Y-63294265D01*
X49740404Y-63294268D01*
X49578264Y-63456408D01*
X49563252Y-63477848D01*
X49548703Y-63498624D01*
X49494127Y-63542249D01*
X49447130Y-63551500D01*
X39024870Y-63551500D01*
X38957831Y-63531815D01*
X38923296Y-63498625D01*
X38893736Y-63456409D01*
X38731591Y-63294264D01*
X38543753Y-63162738D01*
X38335930Y-63065829D01*
X38335927Y-63065828D01*
X38335925Y-63065827D01*
X38114436Y-63006479D01*
X38114429Y-63006478D01*
X37886002Y-62986494D01*
X37885998Y-62986494D01*
X37657570Y-63006478D01*
X37657563Y-63006479D01*
X37436074Y-63065827D01*
X37436070Y-63065829D01*
X37228247Y-63162738D01*
X37040409Y-63294264D01*
X37040407Y-63294265D01*
X37040404Y-63294268D01*
X36878268Y-63456404D01*
X36878265Y-63456407D01*
X36878264Y-63456409D01*
X36746738Y-63644247D01*
X36649830Y-63852068D01*
X36649827Y-63852074D01*
X36590479Y-64073563D01*
X36590478Y-64073570D01*
X36570494Y-64301997D01*
X36570494Y-64302002D01*
X17780500Y-64302002D01*
X17780500Y-35052000D01*
X57006540Y-35052000D01*
X57026326Y-35240256D01*
X57026327Y-35240259D01*
X57084818Y-35420277D01*
X57084821Y-35420284D01*
X57179467Y-35584216D01*
X57261660Y-35675500D01*
X57306129Y-35724888D01*
X57459265Y-35836148D01*
X57459270Y-35836151D01*
X57632192Y-35913142D01*
X57632197Y-35913144D01*
X57817354Y-35952500D01*
X57817355Y-35952500D01*
X58006644Y-35952500D01*
X58006646Y-35952500D01*
X58191803Y-35913144D01*
X58364730Y-35836151D01*
X58517871Y-35724888D01*
X58644533Y-35584216D01*
X58739179Y-35420284D01*
X58794522Y-35249956D01*
X58824768Y-35200598D01*
X60218549Y-33806819D01*
X60279872Y-33773334D01*
X60306230Y-33770500D01*
X67334461Y-33770500D01*
X67401500Y-33790185D01*
X67447255Y-33842989D01*
X67457199Y-33912147D01*
X67428174Y-33975703D01*
X67392916Y-34003857D01*
X67283550Y-34062315D01*
X67283548Y-34062316D01*
X67283547Y-34062317D01*
X67123589Y-34193589D01*
X66992317Y-34353547D01*
X66894769Y-34536043D01*
X66834699Y-34734067D01*
X66814417Y-34940000D01*
X66834699Y-35145932D01*
X66834700Y-35145934D01*
X66894768Y-35343954D01*
X66992315Y-35526450D01*
X66992317Y-35526452D01*
X67123589Y-35686410D01*
X67220209Y-35765702D01*
X67283550Y-35817685D01*
X67466046Y-35915232D01*
X67664066Y-35975300D01*
X67664065Y-35975300D01*
X67702647Y-35979100D01*
X67818392Y-35990500D01*
X67818395Y-35990500D01*
X67921605Y-35990500D01*
X67921608Y-35990500D01*
X68075934Y-35975300D01*
X68273954Y-35915232D01*
X68456450Y-35817685D01*
X68616410Y-35686410D01*
X68747685Y-35526450D01*
X68845232Y-35343954D01*
X68905300Y-35145934D01*
X68925583Y-34940000D01*
X68905300Y-34734066D01*
X68845232Y-34536046D01*
X68747685Y-34353550D01*
X68687714Y-34280475D01*
X68616410Y-34193589D01*
X68456452Y-34062317D01*
X68456453Y-34062317D01*
X68456450Y-34062315D01*
X68347084Y-34003857D01*
X68297241Y-33954895D01*
X68281781Y-33886757D01*
X68305613Y-33821078D01*
X68361171Y-33778709D01*
X68405539Y-33770500D01*
X79655501Y-33770500D01*
X79722540Y-33790185D01*
X79768295Y-33842989D01*
X79779501Y-33894500D01*
X79779501Y-34067876D01*
X79785908Y-34127483D01*
X79836202Y-34262328D01*
X79836206Y-34262335D01*
X79922452Y-34377544D01*
X79922455Y-34377547D01*
X80037664Y-34463793D01*
X80037671Y-34463797D01*
X80172517Y-34514091D01*
X80172516Y-34514091D01*
X80179444Y-34514835D01*
X80232127Y-34520500D01*
X81667769Y-34520499D01*
X81734808Y-34540184D01*
X81755450Y-34556818D01*
X95944267Y-48745634D01*
X95956048Y-48759266D01*
X95956432Y-48759782D01*
X95970390Y-48778530D01*
X96008343Y-48810376D01*
X96016319Y-48817686D01*
X96020220Y-48821588D01*
X96044543Y-48840820D01*
X96047304Y-48843069D01*
X96084302Y-48874114D01*
X96104789Y-48891305D01*
X96110818Y-48895270D01*
X96110785Y-48895319D01*
X96117147Y-48899372D01*
X96117179Y-48899321D01*
X96123319Y-48903108D01*
X96123323Y-48903111D01*
X96143960Y-48912734D01*
X96191320Y-48934819D01*
X96194566Y-48936391D01*
X96261562Y-48970038D01*
X96268357Y-48972511D01*
X96268336Y-48972567D01*
X96275455Y-48975042D01*
X96275474Y-48974986D01*
X96282324Y-48977255D01*
X96282327Y-48977257D01*
X96355842Y-48992435D01*
X96359290Y-48993200D01*
X96404496Y-49003915D01*
X96432274Y-49010499D01*
X96432275Y-49010499D01*
X96432279Y-49010500D01*
X96432283Y-49010500D01*
X96439452Y-49011338D01*
X96439444Y-49011397D01*
X96446945Y-49012164D01*
X96446951Y-49012105D01*
X96454140Y-49012734D01*
X96454144Y-49012733D01*
X96454145Y-49012734D01*
X96529131Y-49010552D01*
X96532738Y-49010500D01*
X102215501Y-49010500D01*
X102282540Y-49030185D01*
X102328295Y-49082989D01*
X102339501Y-49134500D01*
X102339501Y-49607876D01*
X102345908Y-49667483D01*
X102396202Y-49802328D01*
X102396206Y-49802335D01*
X102482452Y-49917544D01*
X102482455Y-49917547D01*
X102597664Y-50003793D01*
X102597671Y-50003797D01*
X102732517Y-50054091D01*
X102732516Y-50054091D01*
X102739444Y-50054835D01*
X102792127Y-50060500D01*
X104788770Y-50060499D01*
X104855809Y-50080184D01*
X104901564Y-50132987D01*
X104911508Y-50202146D01*
X104882483Y-50265702D01*
X104876451Y-50272180D01*
X103865451Y-51283181D01*
X103804128Y-51316666D01*
X103777770Y-51319500D01*
X82648778Y-51319500D01*
X82581739Y-51299815D01*
X82535984Y-51247011D01*
X82526040Y-51177853D01*
X82529003Y-51163407D01*
X82544507Y-51105541D01*
X82565635Y-51026692D01*
X82585468Y-50800000D01*
X82581968Y-50760000D01*
X82577672Y-50710888D01*
X82565635Y-50573308D01*
X82506739Y-50353504D01*
X82410568Y-50147266D01*
X82280047Y-49960861D01*
X82280045Y-49960858D01*
X82119141Y-49799954D01*
X81932734Y-49669432D01*
X81932728Y-49669429D01*
X81874725Y-49642382D01*
X81822285Y-49596210D01*
X81803133Y-49529017D01*
X81823348Y-49462135D01*
X81874725Y-49417618D01*
X81932734Y-49390568D01*
X82119139Y-49260047D01*
X82280047Y-49099139D01*
X82410568Y-48912734D01*
X82506739Y-48706496D01*
X82565635Y-48486692D01*
X82582634Y-48292384D01*
X82585468Y-48260001D01*
X82585468Y-48259998D01*
X82565635Y-48033313D01*
X82565635Y-48033308D01*
X82506739Y-47813504D01*
X82410568Y-47607266D01*
X82280047Y-47420861D01*
X82280045Y-47420858D01*
X82119141Y-47259954D01*
X81932734Y-47129432D01*
X81932728Y-47129429D01*
X81874725Y-47102382D01*
X81822285Y-47056210D01*
X81803133Y-46989017D01*
X81823348Y-46922135D01*
X81874725Y-46877618D01*
X81932734Y-46850568D01*
X82119139Y-46720047D01*
X82280047Y-46559139D01*
X82410568Y-46372734D01*
X82506739Y-46166496D01*
X82565635Y-45946692D01*
X82585468Y-45720000D01*
X82565635Y-45493308D01*
X82506739Y-45273504D01*
X82410568Y-45067266D01*
X82280047Y-44880861D01*
X82280045Y-44880858D01*
X82119141Y-44719954D01*
X81932734Y-44589432D01*
X81932732Y-44589431D01*
X81726497Y-44493261D01*
X81726488Y-44493258D01*
X81506697Y-44434366D01*
X81506693Y-44434365D01*
X81506692Y-44434365D01*
X81506691Y-44434364D01*
X81506686Y-44434364D01*
X81280002Y-44414532D01*
X81279998Y-44414532D01*
X81053313Y-44434364D01*
X81053302Y-44434366D01*
X80833511Y-44493258D01*
X80833502Y-44493261D01*
X80627267Y-44589431D01*
X80627265Y-44589432D01*
X80440858Y-44719954D01*
X80279954Y-44880858D01*
X80149432Y-45067265D01*
X80149431Y-45067267D01*
X80053261Y-45273502D01*
X80053258Y-45273511D01*
X79994366Y-45493302D01*
X79994364Y-45493313D01*
X79974532Y-45719998D01*
X79974532Y-45720003D01*
X79989129Y-45886861D01*
X79975362Y-45955360D01*
X79953282Y-45985348D01*
X76984358Y-48954272D01*
X76970729Y-48966051D01*
X76951469Y-48980390D01*
X76919632Y-49018331D01*
X76912346Y-49026284D01*
X76908407Y-49030224D01*
X76889176Y-49054545D01*
X76886902Y-49057337D01*
X76838694Y-49114790D01*
X76834729Y-49120819D01*
X76834682Y-49120788D01*
X76830630Y-49127147D01*
X76830679Y-49127177D01*
X76826889Y-49133321D01*
X76795192Y-49201294D01*
X76793623Y-49204536D01*
X76759957Y-49271572D01*
X76757488Y-49278357D01*
X76757432Y-49278336D01*
X76754960Y-49285450D01*
X76755015Y-49285469D01*
X76752743Y-49292325D01*
X76737573Y-49365788D01*
X76736793Y-49369304D01*
X76719499Y-49442279D01*
X76718661Y-49449454D01*
X76718601Y-49449447D01*
X76717835Y-49456946D01*
X76717895Y-49456952D01*
X76717265Y-49464142D01*
X76718365Y-49501947D01*
X76701805Y-49567550D01*
X76642820Y-49669716D01*
X76584327Y-49849740D01*
X76584326Y-49849744D01*
X76564540Y-50038000D01*
X76584326Y-50226256D01*
X76584327Y-50226259D01*
X76642818Y-50406277D01*
X76642821Y-50406284D01*
X76737467Y-50570216D01*
X76864129Y-50710888D01*
X77017265Y-50822148D01*
X77017270Y-50822151D01*
X77190192Y-50899142D01*
X77190197Y-50899144D01*
X77375354Y-50938500D01*
X77375355Y-50938500D01*
X77564644Y-50938500D01*
X77564646Y-50938500D01*
X77749803Y-50899144D01*
X77922730Y-50822151D01*
X78075871Y-50710888D01*
X78202533Y-50570216D01*
X78297179Y-50406284D01*
X78355674Y-50226256D01*
X78375460Y-50038000D01*
X78355674Y-49849744D01*
X78343827Y-49813286D01*
X78341833Y-49743447D01*
X78374076Y-49687290D01*
X79772568Y-48288797D01*
X79833891Y-48255313D01*
X79903583Y-48260297D01*
X79959516Y-48302169D01*
X79983777Y-48365671D01*
X79994364Y-48486687D01*
X79994366Y-48486697D01*
X80053258Y-48706488D01*
X80053261Y-48706497D01*
X80149431Y-48912732D01*
X80149432Y-48912734D01*
X80279954Y-49099141D01*
X80440858Y-49260045D01*
X80465217Y-49277101D01*
X80627266Y-49390568D01*
X80685275Y-49417618D01*
X80737714Y-49463791D01*
X80756866Y-49530984D01*
X80736650Y-49597865D01*
X80685275Y-49642382D01*
X80627267Y-49669431D01*
X80627265Y-49669432D01*
X80440858Y-49799954D01*
X80279954Y-49960858D01*
X80149432Y-50147265D01*
X80149431Y-50147267D01*
X80053261Y-50353502D01*
X80053258Y-50353511D01*
X79994366Y-50573302D01*
X79994364Y-50573313D01*
X79974532Y-50799998D01*
X79974532Y-50800001D01*
X79994364Y-51026686D01*
X79994366Y-51026697D01*
X80030997Y-51163407D01*
X80029334Y-51233257D01*
X79990171Y-51291119D01*
X79925943Y-51318623D01*
X79911222Y-51319500D01*
X75292230Y-51319500D01*
X75225191Y-51299815D01*
X75204549Y-51283181D01*
X74986716Y-51065348D01*
X74953231Y-51004025D01*
X74950869Y-50966863D01*
X74965468Y-50800000D01*
X74950869Y-50633137D01*
X74964635Y-50564639D01*
X74986713Y-50534653D01*
X76685638Y-48835727D01*
X76699267Y-48823950D01*
X76702440Y-48821588D01*
X76718530Y-48809610D01*
X76733143Y-48792195D01*
X76750366Y-48771669D01*
X76757683Y-48763684D01*
X76758992Y-48762374D01*
X76761590Y-48759777D01*
X76780859Y-48735404D01*
X76783020Y-48732751D01*
X76831302Y-48675214D01*
X76831308Y-48675201D01*
X76835272Y-48669176D01*
X76835324Y-48669210D01*
X76839371Y-48662858D01*
X76839317Y-48662825D01*
X76843106Y-48656681D01*
X76843110Y-48656677D01*
X76874819Y-48588674D01*
X76876348Y-48585516D01*
X76910040Y-48518433D01*
X76910043Y-48518417D01*
X76912510Y-48511644D01*
X76912568Y-48511665D01*
X76915043Y-48504546D01*
X76914985Y-48504527D01*
X76917255Y-48497677D01*
X76919524Y-48486687D01*
X76932431Y-48424171D01*
X76933186Y-48420767D01*
X76950500Y-48347721D01*
X76950500Y-48347719D01*
X76950501Y-48347715D01*
X76951339Y-48340548D01*
X76951397Y-48340554D01*
X76952164Y-48333056D01*
X76952104Y-48333051D01*
X76952733Y-48325860D01*
X76950552Y-48250889D01*
X76950500Y-48247283D01*
X76950500Y-37110321D01*
X76967113Y-37048321D01*
X77027179Y-36944284D01*
X77085674Y-36764256D01*
X77105460Y-36576000D01*
X77085674Y-36387744D01*
X77027179Y-36207716D01*
X76932533Y-36043784D01*
X76805871Y-35903112D01*
X76805870Y-35903111D01*
X76652734Y-35791851D01*
X76652729Y-35791848D01*
X76479807Y-35714857D01*
X76479802Y-35714855D01*
X76334001Y-35683865D01*
X76294646Y-35675500D01*
X76105354Y-35675500D01*
X76072897Y-35682398D01*
X75920197Y-35714855D01*
X75920192Y-35714857D01*
X75747270Y-35791848D01*
X75747265Y-35791851D01*
X75594129Y-35903111D01*
X75467466Y-36043785D01*
X75372821Y-36207715D01*
X75372818Y-36207722D01*
X75314327Y-36387740D01*
X75314326Y-36387744D01*
X75294540Y-36576000D01*
X75314326Y-36764256D01*
X75314327Y-36764259D01*
X75372818Y-36944277D01*
X75372821Y-36944284D01*
X75432887Y-37048321D01*
X75449500Y-37110321D01*
X75449500Y-47897770D01*
X75429815Y-47964809D01*
X75413181Y-47985451D01*
X75167431Y-48231200D01*
X75106108Y-48264685D01*
X75036416Y-48259701D01*
X74980483Y-48217829D01*
X74956222Y-48154328D01*
X74945635Y-48033308D01*
X74886739Y-47813504D01*
X74790568Y-47607266D01*
X74660047Y-47420861D01*
X74660045Y-47420858D01*
X74499143Y-47259956D01*
X74474536Y-47242726D01*
X74430912Y-47188149D01*
X74423719Y-47118650D01*
X74455241Y-47056296D01*
X74515471Y-47020882D01*
X74532404Y-47017861D01*
X74567483Y-47014091D01*
X74702331Y-46963796D01*
X74817546Y-46877546D01*
X74903796Y-46762331D01*
X74954091Y-46627483D01*
X74960500Y-46567873D01*
X74960499Y-44872128D01*
X74954091Y-44812517D01*
X74919567Y-44719954D01*
X74903797Y-44677671D01*
X74903793Y-44677664D01*
X74817547Y-44562455D01*
X74817544Y-44562452D01*
X74702335Y-44476206D01*
X74702328Y-44476202D01*
X74567482Y-44425908D01*
X74567483Y-44425908D01*
X74507883Y-44419501D01*
X74507881Y-44419500D01*
X74507873Y-44419500D01*
X74507864Y-44419500D01*
X72812129Y-44419500D01*
X72812123Y-44419501D01*
X72752516Y-44425908D01*
X72617671Y-44476202D01*
X72617664Y-44476206D01*
X72502455Y-44562452D01*
X72502452Y-44562455D01*
X72416206Y-44677664D01*
X72416202Y-44677671D01*
X72365908Y-44812517D01*
X72359501Y-44872116D01*
X72359501Y-44872123D01*
X72359500Y-44872135D01*
X72359500Y-46567870D01*
X72359501Y-46567876D01*
X72365908Y-46627483D01*
X72416202Y-46762328D01*
X72416206Y-46762335D01*
X72502452Y-46877544D01*
X72502455Y-46877547D01*
X72617664Y-46963793D01*
X72617671Y-46963797D01*
X72662618Y-46980561D01*
X72752517Y-47014091D01*
X72787596Y-47017862D01*
X72852144Y-47044599D01*
X72891993Y-47101991D01*
X72894488Y-47171816D01*
X72858836Y-47231905D01*
X72845464Y-47242725D01*
X72820858Y-47259954D01*
X72659954Y-47420858D01*
X72634912Y-47456623D01*
X72580335Y-47500248D01*
X72533337Y-47509500D01*
X59546663Y-47509500D01*
X59479624Y-47489815D01*
X59445088Y-47456623D01*
X59420045Y-47420858D01*
X59259141Y-47259954D01*
X59072734Y-47129432D01*
X59072732Y-47129431D01*
X58866497Y-47033261D01*
X58866488Y-47033258D01*
X58646697Y-46974366D01*
X58646693Y-46974365D01*
X58646692Y-46974365D01*
X58646691Y-46974364D01*
X58646686Y-46974364D01*
X58420002Y-46954532D01*
X58419998Y-46954532D01*
X58193313Y-46974364D01*
X58193302Y-46974366D01*
X57973511Y-47033258D01*
X57973502Y-47033261D01*
X57767267Y-47129431D01*
X57767265Y-47129432D01*
X57580858Y-47259954D01*
X57419954Y-47420858D01*
X57289432Y-47607265D01*
X57289431Y-47607267D01*
X57193261Y-47813502D01*
X57193258Y-47813511D01*
X57134366Y-48033302D01*
X57134364Y-48033313D01*
X57114532Y-48259998D01*
X57114532Y-48260001D01*
X57134364Y-48486686D01*
X57134366Y-48486697D01*
X57193258Y-48706488D01*
X57193261Y-48706497D01*
X57289431Y-48912732D01*
X57289432Y-48912734D01*
X57419954Y-49099141D01*
X57580858Y-49260045D01*
X57605217Y-49277101D01*
X57767266Y-49390568D01*
X57782387Y-49397619D01*
X57834825Y-49443791D01*
X57853976Y-49510985D01*
X57833760Y-49577866D01*
X57782387Y-49622380D01*
X57767266Y-49629432D01*
X57767264Y-49629433D01*
X57580858Y-49759954D01*
X57419954Y-49920858D01*
X57289432Y-50107265D01*
X57289431Y-50107267D01*
X57193261Y-50313502D01*
X57193258Y-50313511D01*
X57134366Y-50533302D01*
X57134364Y-50533313D01*
X57114532Y-50759998D01*
X57114532Y-50760001D01*
X57134364Y-50986686D01*
X57134366Y-50986697D01*
X57193258Y-51206488D01*
X57193261Y-51206497D01*
X57289431Y-51412732D01*
X57289432Y-51412734D01*
X57419954Y-51599141D01*
X57580858Y-51760045D01*
X57580861Y-51760047D01*
X57767266Y-51890568D01*
X57973504Y-51986739D01*
X58193308Y-52045635D01*
X58355230Y-52059801D01*
X58419998Y-52065468D01*
X58420000Y-52065468D01*
X58420002Y-52065468D01*
X58476673Y-52060509D01*
X58646692Y-52045635D01*
X58866496Y-51986739D01*
X59072734Y-51890568D01*
X59259139Y-51760047D01*
X59420047Y-51599139D01*
X59550568Y-51412734D01*
X59646739Y-51206496D01*
X59705635Y-50986692D01*
X59725468Y-50760000D01*
X59705635Y-50533308D01*
X59646739Y-50313504D01*
X59550568Y-50107266D01*
X59433965Y-49940738D01*
X59420045Y-49920858D01*
X59259141Y-49759954D01*
X59072734Y-49629432D01*
X59057614Y-49622381D01*
X59005176Y-49576211D01*
X58986023Y-49509018D01*
X59006238Y-49442136D01*
X59057614Y-49397618D01*
X59072734Y-49390568D01*
X59259139Y-49260047D01*
X59420047Y-49099139D01*
X59445088Y-49063377D01*
X59499665Y-49019752D01*
X59546663Y-49010500D01*
X72533337Y-49010500D01*
X72600376Y-49030185D01*
X72634912Y-49063377D01*
X72659954Y-49099141D01*
X72820858Y-49260045D01*
X72845217Y-49277101D01*
X73007266Y-49390568D01*
X73065275Y-49417618D01*
X73117714Y-49463791D01*
X73136866Y-49530984D01*
X73116650Y-49597865D01*
X73065275Y-49642382D01*
X73007267Y-49669431D01*
X73007265Y-49669432D01*
X72820858Y-49799954D01*
X72659954Y-49960858D01*
X72529432Y-50147265D01*
X72529431Y-50147267D01*
X72433261Y-50353502D01*
X72433258Y-50353511D01*
X72374366Y-50573302D01*
X72374364Y-50573313D01*
X72354532Y-50799998D01*
X72354532Y-50800001D01*
X72374364Y-51026686D01*
X72374366Y-51026697D01*
X72433258Y-51246488D01*
X72433261Y-51246497D01*
X72529431Y-51452732D01*
X72529432Y-51452734D01*
X72659954Y-51639141D01*
X72820858Y-51800045D01*
X72820861Y-51800047D01*
X73007266Y-51930568D01*
X73065275Y-51957618D01*
X73117714Y-52003791D01*
X73136866Y-52070984D01*
X73116650Y-52137865D01*
X73065275Y-52182382D01*
X73007267Y-52209431D01*
X73007265Y-52209432D01*
X72820858Y-52339954D01*
X72659954Y-52500858D01*
X72529432Y-52687265D01*
X72529431Y-52687267D01*
X72433261Y-52893502D01*
X72433258Y-52893511D01*
X72374366Y-53113302D01*
X72374364Y-53113313D01*
X72354532Y-53339998D01*
X72354532Y-53340001D01*
X72374364Y-53566686D01*
X72374366Y-53566697D01*
X72433258Y-53786488D01*
X72433261Y-53786497D01*
X72529431Y-53992732D01*
X72529432Y-53992734D01*
X72659954Y-54179141D01*
X72820858Y-54340045D01*
X72820861Y-54340047D01*
X73007266Y-54470568D01*
X73213504Y-54566739D01*
X73433308Y-54625635D01*
X73595230Y-54639801D01*
X73659998Y-54645468D01*
X73660000Y-54645468D01*
X73660002Y-54645468D01*
X73716673Y-54640509D01*
X73886692Y-54625635D01*
X74106496Y-54566739D01*
X74312734Y-54470568D01*
X74499139Y-54340047D01*
X74660047Y-54179139D01*
X74790568Y-53992734D01*
X74886739Y-53786496D01*
X74945635Y-53566692D01*
X74965468Y-53340000D01*
X74945635Y-53113308D01*
X74909003Y-52976593D01*
X74910666Y-52906743D01*
X74949829Y-52848881D01*
X75014057Y-52821377D01*
X75028778Y-52820500D01*
X79911222Y-52820500D01*
X79978261Y-52840185D01*
X80024016Y-52892989D01*
X80033960Y-52962147D01*
X80030997Y-52976593D01*
X79994366Y-53113302D01*
X79994364Y-53113313D01*
X79974532Y-53339998D01*
X79974532Y-53340001D01*
X79994364Y-53566686D01*
X79994366Y-53566697D01*
X80053258Y-53786488D01*
X80053261Y-53786497D01*
X80149431Y-53992732D01*
X80149432Y-53992734D01*
X80279954Y-54179141D01*
X80440858Y-54340045D01*
X80440861Y-54340047D01*
X80627266Y-54470568D01*
X80833504Y-54566739D01*
X81053308Y-54625635D01*
X81215230Y-54639801D01*
X81279998Y-54645468D01*
X81280000Y-54645468D01*
X81280002Y-54645468D01*
X81336673Y-54640509D01*
X81506692Y-54625635D01*
X81726496Y-54566739D01*
X81932734Y-54470568D01*
X82119139Y-54340047D01*
X82280047Y-54179139D01*
X82410568Y-53992734D01*
X82506739Y-53786496D01*
X82565635Y-53566692D01*
X82585468Y-53340000D01*
X82565635Y-53113308D01*
X82529003Y-52976593D01*
X82530666Y-52906743D01*
X82569829Y-52848881D01*
X82634057Y-52821377D01*
X82648778Y-52820500D01*
X104076295Y-52820500D01*
X104094265Y-52821809D01*
X104118023Y-52825289D01*
X104167369Y-52820971D01*
X104178176Y-52820500D01*
X104183704Y-52820500D01*
X104183709Y-52820500D01*
X104214556Y-52816893D01*
X104218030Y-52816539D01*
X104292797Y-52809999D01*
X104292805Y-52809996D01*
X104299866Y-52808539D01*
X104299878Y-52808598D01*
X104307243Y-52806965D01*
X104307229Y-52806906D01*
X104314249Y-52805241D01*
X104314255Y-52805241D01*
X104384779Y-52779572D01*
X104388117Y-52778412D01*
X104459334Y-52754814D01*
X104459342Y-52754808D01*
X104465882Y-52751760D01*
X104465908Y-52751816D01*
X104472690Y-52748532D01*
X104472663Y-52748478D01*
X104479113Y-52745238D01*
X104479117Y-52745237D01*
X104541837Y-52703984D01*
X104544732Y-52702140D01*
X104608656Y-52662712D01*
X104608662Y-52662705D01*
X104614325Y-52658229D01*
X104614362Y-52658277D01*
X104620204Y-52653518D01*
X104620164Y-52653471D01*
X104625686Y-52648835D01*
X104625696Y-52648830D01*
X104677185Y-52594253D01*
X104679632Y-52591734D01*
X107268303Y-50003062D01*
X107329624Y-49969579D01*
X107392531Y-49972253D01*
X107548228Y-50020280D01*
X107548229Y-50020280D01*
X107548232Y-50020281D01*
X107815063Y-50060499D01*
X107815068Y-50060499D01*
X107815071Y-50060500D01*
X107815072Y-50060500D01*
X108084928Y-50060500D01*
X108084929Y-50060500D01*
X108084936Y-50060499D01*
X108351767Y-50020281D01*
X108351768Y-50020280D01*
X108351772Y-50020280D01*
X108609641Y-49940738D01*
X108852775Y-49823651D01*
X109075741Y-49671635D01*
X109251001Y-49509018D01*
X109273557Y-49488089D01*
X109273557Y-49488087D01*
X109273561Y-49488085D01*
X109441815Y-49277102D01*
X109576743Y-49043398D01*
X109675334Y-48792195D01*
X109735383Y-48529103D01*
X109747630Y-48365671D01*
X109755549Y-48260004D01*
X109755549Y-48259995D01*
X109735383Y-47990898D01*
X109734140Y-47985451D01*
X109675334Y-47727805D01*
X109576743Y-47476602D01*
X109441815Y-47242898D01*
X109273561Y-47031915D01*
X109273560Y-47031914D01*
X109273557Y-47031910D01*
X109210180Y-46973106D01*
X109174425Y-46913078D01*
X109176800Y-46843248D01*
X109206838Y-46794528D01*
X122986557Y-33014808D01*
X123047878Y-32981325D01*
X123117570Y-32986309D01*
X123173503Y-33028181D01*
X123197764Y-33091683D01*
X123204478Y-33168430D01*
X123204479Y-33168436D01*
X123263827Y-33389925D01*
X123263828Y-33389927D01*
X123263829Y-33389930D01*
X123360738Y-33597753D01*
X123492264Y-33785591D01*
X123654409Y-33947736D01*
X123842247Y-34079262D01*
X124050070Y-34176171D01*
X124271565Y-34235521D01*
X124434732Y-34249796D01*
X124499998Y-34255506D01*
X124500000Y-34255506D01*
X124500002Y-34255506D01*
X124557108Y-34250509D01*
X124728435Y-34235521D01*
X124949930Y-34176171D01*
X125157753Y-34079262D01*
X125345591Y-33947736D01*
X125507736Y-33785591D01*
X125639262Y-33597753D01*
X125736171Y-33389930D01*
X125795521Y-33168435D01*
X125815506Y-32940002D01*
X128184494Y-32940002D01*
X128204478Y-33168429D01*
X128204479Y-33168436D01*
X128263827Y-33389925D01*
X128263828Y-33389927D01*
X128263829Y-33389930D01*
X128360738Y-33597753D01*
X128492264Y-33785591D01*
X128654409Y-33947736D01*
X128842247Y-34079262D01*
X129050070Y-34176171D01*
X129271565Y-34235521D01*
X129434732Y-34249796D01*
X129499998Y-34255506D01*
X129500000Y-34255506D01*
X129500002Y-34255506D01*
X129557108Y-34250509D01*
X129728435Y-34235521D01*
X129949930Y-34176171D01*
X130157753Y-34079262D01*
X130345591Y-33947736D01*
X130507736Y-33785591D01*
X130639262Y-33597753D01*
X130736171Y-33389930D01*
X130795521Y-33168435D01*
X130815506Y-32940000D01*
X130795521Y-32711565D01*
X130736171Y-32490070D01*
X130639262Y-32282247D01*
X130507736Y-32094409D01*
X130345591Y-31932264D01*
X130157753Y-31800738D01*
X129949930Y-31703829D01*
X129949927Y-31703828D01*
X129949925Y-31703827D01*
X129728436Y-31644479D01*
X129728429Y-31644478D01*
X129500002Y-31624494D01*
X129499998Y-31624494D01*
X129271570Y-31644478D01*
X129271563Y-31644479D01*
X129050074Y-31703827D01*
X129050070Y-31703829D01*
X128842247Y-31800738D01*
X128654409Y-31932264D01*
X128654407Y-31932265D01*
X128654404Y-31932268D01*
X128492268Y-32094404D01*
X128492265Y-32094407D01*
X128492264Y-32094409D01*
X128396972Y-32230500D01*
X128360738Y-32282247D01*
X128263830Y-32490068D01*
X128263827Y-32490074D01*
X128204479Y-32711563D01*
X128204478Y-32711570D01*
X128184494Y-32939997D01*
X128184494Y-32940002D01*
X125815506Y-32940002D01*
X125815506Y-32940000D01*
X125795521Y-32711565D01*
X125736171Y-32490070D01*
X125639262Y-32282247D01*
X125507736Y-32094409D01*
X125345591Y-31932264D01*
X125157753Y-31800738D01*
X124949930Y-31703829D01*
X124949927Y-31703828D01*
X124949925Y-31703827D01*
X124728436Y-31644479D01*
X124728430Y-31644478D01*
X124651683Y-31637764D01*
X124586615Y-31612311D01*
X124545636Y-31555720D01*
X124541758Y-31485958D01*
X124574808Y-31426557D01*
X126725420Y-29275945D01*
X126786741Y-29242462D01*
X126823905Y-29240100D01*
X126900851Y-29246831D01*
X126999998Y-29255506D01*
X127000000Y-29255506D01*
X127000002Y-29255506D01*
X127073108Y-29249110D01*
X127228435Y-29235521D01*
X127449930Y-29176171D01*
X127657753Y-29079262D01*
X127845591Y-28947736D01*
X128007736Y-28785591D01*
X128139262Y-28597753D01*
X128236171Y-28389930D01*
X128295521Y-28168435D01*
X128315506Y-27940000D01*
X128295521Y-27711565D01*
X128236171Y-27490070D01*
X128139262Y-27282247D01*
X128007736Y-27094409D01*
X127845591Y-26932264D01*
X127657753Y-26800738D01*
X127449930Y-26703829D01*
X127449927Y-26703828D01*
X127449925Y-26703827D01*
X127228436Y-26644479D01*
X127228429Y-26644478D01*
X127000002Y-26624494D01*
X126999998Y-26624494D01*
X126771570Y-26644478D01*
X126771563Y-26644479D01*
X126550074Y-26703827D01*
X126550070Y-26703829D01*
X126342247Y-26800738D01*
X126154409Y-26932264D01*
X126154407Y-26932265D01*
X126154404Y-26932268D01*
X125992268Y-27094404D01*
X125992265Y-27094407D01*
X125992264Y-27094409D01*
X125922761Y-27193669D01*
X125860738Y-27282247D01*
X125763830Y-27490068D01*
X125763827Y-27490074D01*
X125704479Y-27711563D01*
X125704478Y-27711570D01*
X125684494Y-27939997D01*
X125684494Y-27940002D01*
X125699899Y-28116091D01*
X125686132Y-28184591D01*
X125664052Y-28214579D01*
X107464358Y-46414272D01*
X107450729Y-46426051D01*
X107431469Y-46440390D01*
X107399632Y-46478331D01*
X107392346Y-46486284D01*
X107388407Y-46490224D01*
X107369176Y-46514545D01*
X107366901Y-46517338D01*
X107347028Y-46541022D01*
X107294142Y-46576208D01*
X107294676Y-46577568D01*
X107290361Y-46579261D01*
X107047230Y-46696346D01*
X106824258Y-46848365D01*
X106626442Y-47031910D01*
X106458185Y-47242898D01*
X106323258Y-47476599D01*
X106323256Y-47476603D01*
X106224666Y-47727804D01*
X106224664Y-47727811D01*
X106185390Y-47899882D01*
X106151281Y-47960860D01*
X106089620Y-47993718D01*
X106019983Y-47988023D01*
X105964479Y-47945583D01*
X105940731Y-47879873D01*
X105940499Y-47872289D01*
X105940499Y-46912129D01*
X105940498Y-46912123D01*
X105940497Y-46912116D01*
X105934091Y-46852517D01*
X105932542Y-46848365D01*
X105883797Y-46717671D01*
X105883793Y-46717664D01*
X105797547Y-46602455D01*
X105797544Y-46602452D01*
X105682335Y-46516206D01*
X105682328Y-46516202D01*
X105547482Y-46465908D01*
X105547483Y-46465908D01*
X105487883Y-46459501D01*
X105487881Y-46459500D01*
X105487873Y-46459500D01*
X105487864Y-46459500D01*
X102792129Y-46459500D01*
X102792123Y-46459501D01*
X102732516Y-46465908D01*
X102597671Y-46516202D01*
X102597664Y-46516206D01*
X102482455Y-46602452D01*
X102482452Y-46602455D01*
X102396206Y-46717664D01*
X102396202Y-46717671D01*
X102345908Y-46852517D01*
X102343210Y-46877618D01*
X102339501Y-46912123D01*
X102339500Y-46912135D01*
X102339500Y-47385500D01*
X102319815Y-47452539D01*
X102267011Y-47498294D01*
X102215500Y-47509500D01*
X96882229Y-47509500D01*
X96815190Y-47489815D01*
X96794548Y-47473181D01*
X82816818Y-33495450D01*
X82783333Y-33434127D01*
X82780499Y-33407769D01*
X82780499Y-33020005D01*
X87374357Y-33020005D01*
X87394890Y-33267812D01*
X87394892Y-33267824D01*
X87455936Y-33508881D01*
X87555826Y-33736606D01*
X87691833Y-33944782D01*
X87701143Y-33954895D01*
X87860256Y-34127738D01*
X88056491Y-34280474D01*
X88275190Y-34398828D01*
X88510386Y-34479571D01*
X88755665Y-34520500D01*
X89004335Y-34520500D01*
X89249614Y-34479571D01*
X89484810Y-34398828D01*
X89703509Y-34280474D01*
X89899744Y-34127738D01*
X90068164Y-33944785D01*
X90204173Y-33736607D01*
X90304063Y-33508881D01*
X90365108Y-33267821D01*
X90365109Y-33267812D01*
X90385643Y-33020005D01*
X90385643Y-33019994D01*
X90365109Y-32772187D01*
X90365107Y-32772175D01*
X90304063Y-32531118D01*
X90204173Y-32303393D01*
X90068166Y-32095217D01*
X90046557Y-32071744D01*
X89899744Y-31912262D01*
X89703509Y-31759526D01*
X89703507Y-31759525D01*
X89703506Y-31759524D01*
X89484811Y-31641172D01*
X89484802Y-31641169D01*
X89249616Y-31560429D01*
X89004335Y-31519500D01*
X88755665Y-31519500D01*
X88510383Y-31560429D01*
X88275197Y-31641169D01*
X88275188Y-31641172D01*
X88056493Y-31759524D01*
X87860257Y-31912261D01*
X87691833Y-32095217D01*
X87555826Y-32303393D01*
X87455936Y-32531118D01*
X87394892Y-32772175D01*
X87394890Y-32772187D01*
X87374357Y-33019994D01*
X87374357Y-33020005D01*
X82780499Y-33020005D01*
X82780499Y-31972129D01*
X82780498Y-31972123D01*
X82780497Y-31972116D01*
X82774091Y-31912517D01*
X82764763Y-31887508D01*
X82723797Y-31777671D01*
X82723793Y-31777664D01*
X82637547Y-31662455D01*
X82637544Y-31662452D01*
X82522335Y-31576206D01*
X82522328Y-31576202D01*
X82387482Y-31525908D01*
X82387483Y-31525908D01*
X82327883Y-31519501D01*
X82327881Y-31519500D01*
X82327873Y-31519500D01*
X82327864Y-31519500D01*
X80232129Y-31519500D01*
X80232123Y-31519501D01*
X80172516Y-31525908D01*
X80037671Y-31576202D01*
X80037664Y-31576206D01*
X79922455Y-31662452D01*
X79922452Y-31662455D01*
X79836206Y-31777664D01*
X79836202Y-31777671D01*
X79785908Y-31912517D01*
X79780628Y-31961632D01*
X79779501Y-31972123D01*
X79779500Y-31972135D01*
X79779500Y-32145500D01*
X79759815Y-32212539D01*
X79707011Y-32258294D01*
X79655500Y-32269500D01*
X60007705Y-32269500D01*
X59989735Y-32268191D01*
X59965972Y-32264710D01*
X59918843Y-32268834D01*
X59916630Y-32269028D01*
X59905824Y-32269500D01*
X59900284Y-32269500D01*
X59869501Y-32273098D01*
X59865916Y-32273464D01*
X59791199Y-32280001D01*
X59784132Y-32281460D01*
X59784120Y-32281404D01*
X59776763Y-32283035D01*
X59776777Y-32283092D01*
X59769740Y-32284760D01*
X59699231Y-32310421D01*
X59695854Y-32311595D01*
X59656848Y-32324521D01*
X59624668Y-32335185D01*
X59618126Y-32338236D01*
X59618101Y-32338183D01*
X59611308Y-32341471D01*
X59611334Y-32341523D01*
X59604880Y-32344764D01*
X59542221Y-32385975D01*
X59539181Y-32387912D01*
X59475348Y-32427285D01*
X59469683Y-32431765D01*
X59469647Y-32431719D01*
X59463798Y-32436484D01*
X59463835Y-32436528D01*
X59458310Y-32441164D01*
X59406832Y-32495726D01*
X59404320Y-32498311D01*
X57759228Y-34143402D01*
X57697905Y-34176887D01*
X57697329Y-34177011D01*
X57632196Y-34190856D01*
X57632192Y-34190857D01*
X57459270Y-34267848D01*
X57459265Y-34267851D01*
X57306129Y-34379111D01*
X57179466Y-34519785D01*
X57084821Y-34683715D01*
X57084818Y-34683722D01*
X57026327Y-34863740D01*
X57026326Y-34863744D01*
X57006540Y-35052000D01*
X17780500Y-35052000D01*
X17780500Y-31192887D01*
X99999500Y-31192887D01*
X100014317Y-31381151D01*
X100073126Y-31626110D01*
X100169533Y-31858859D01*
X100301160Y-32073653D01*
X100301161Y-32073656D01*
X100319576Y-32095217D01*
X100464776Y-32265224D01*
X100606157Y-32385975D01*
X100656343Y-32428838D01*
X100656346Y-32428839D01*
X100871140Y-32560466D01*
X101103889Y-32656873D01*
X101348852Y-32715683D01*
X101600000Y-32735449D01*
X101851148Y-32715683D01*
X102096111Y-32656873D01*
X102328859Y-32560466D01*
X102543659Y-32428836D01*
X102735224Y-32265224D01*
X102735229Y-32265217D01*
X102738663Y-32261784D01*
X102739797Y-32262918D01*
X102792397Y-32228556D01*
X102841477Y-32223979D01*
X102842516Y-32224090D01*
X102842517Y-32224091D01*
X102902127Y-32230500D01*
X104497872Y-32230499D01*
X104557483Y-32224091D01*
X104692331Y-32173796D01*
X104807546Y-32087546D01*
X104836849Y-32048402D01*
X104892781Y-32006531D01*
X104962473Y-32001547D01*
X105004426Y-32019226D01*
X105105033Y-32085636D01*
X105312004Y-32174100D01*
X105312007Y-32174101D01*
X105312012Y-32174103D01*
X105531463Y-32224191D01*
X105756330Y-32234290D01*
X105979387Y-32204075D01*
X106193464Y-32134517D01*
X106391681Y-32027852D01*
X106567666Y-31887508D01*
X106606123Y-31843489D01*
X106665054Y-31805956D01*
X106734923Y-31806240D01*
X106785196Y-31835447D01*
X106917176Y-31961633D01*
X107105033Y-32085636D01*
X107312004Y-32174100D01*
X107312007Y-32174101D01*
X107312012Y-32174103D01*
X107531463Y-32224191D01*
X107756330Y-32234290D01*
X107979387Y-32204075D01*
X108193464Y-32134517D01*
X108351802Y-32049311D01*
X108420162Y-32034878D01*
X108485476Y-32059695D01*
X108504846Y-32077970D01*
X108664776Y-32265224D01*
X108806157Y-32385975D01*
X108856343Y-32428838D01*
X108856346Y-32428839D01*
X109071140Y-32560466D01*
X109303889Y-32656873D01*
X109548852Y-32715683D01*
X109800000Y-32735449D01*
X110051148Y-32715683D01*
X110296111Y-32656873D01*
X110528859Y-32560466D01*
X110743659Y-32428836D01*
X110935224Y-32265224D01*
X111098836Y-32073659D01*
X111230466Y-31858859D01*
X111326873Y-31626111D01*
X111385683Y-31381148D01*
X111400500Y-31192882D01*
X111400500Y-29767118D01*
X111385683Y-29578852D01*
X111326873Y-29333889D01*
X111289003Y-29242462D01*
X111230466Y-29101140D01*
X111098839Y-28886346D01*
X111098838Y-28886343D01*
X111040198Y-28817685D01*
X110935224Y-28694776D01*
X110806598Y-28584919D01*
X110743656Y-28531161D01*
X110743653Y-28531160D01*
X110528859Y-28399533D01*
X110296110Y-28303126D01*
X110051151Y-28244317D01*
X109800000Y-28224551D01*
X109548848Y-28244317D01*
X109303889Y-28303126D01*
X109071140Y-28399533D01*
X108856346Y-28531160D01*
X108856343Y-28531161D01*
X108664776Y-28694776D01*
X108504525Y-28882405D01*
X108446018Y-28920598D01*
X108376150Y-28921096D01*
X108341924Y-28905360D01*
X108294966Y-28874363D01*
X108087995Y-28785899D01*
X108087982Y-28785895D01*
X107868542Y-28735810D01*
X107868538Y-28735809D01*
X107868537Y-28735809D01*
X107868536Y-28735808D01*
X107868531Y-28735808D01*
X107643674Y-28725710D01*
X107643673Y-28725710D01*
X107643670Y-28725710D01*
X107420613Y-28755925D01*
X107420610Y-28755925D01*
X107420609Y-28755926D01*
X107206534Y-28825483D01*
X107008321Y-28932146D01*
X107008318Y-28932148D01*
X106832337Y-29072488D01*
X106832329Y-29072496D01*
X106793874Y-29116511D01*
X106734942Y-29154044D01*
X106665073Y-29153758D01*
X106614803Y-29124552D01*
X106567433Y-29079262D01*
X106482825Y-28998368D01*
X106482823Y-28998366D01*
X106294966Y-28874363D01*
X106087995Y-28785899D01*
X106087982Y-28785895D01*
X105868542Y-28735810D01*
X105868538Y-28735809D01*
X105868537Y-28735809D01*
X105868536Y-28735808D01*
X105868531Y-28735808D01*
X105643674Y-28725710D01*
X105643673Y-28725710D01*
X105643670Y-28725710D01*
X105420613Y-28755925D01*
X105420610Y-28755925D01*
X105420609Y-28755926D01*
X105206534Y-28825483D01*
X105008311Y-28932152D01*
X105003669Y-28935217D01*
X105002614Y-28933619D01*
X104945817Y-28956788D01*
X104877126Y-28944012D01*
X104833960Y-28907739D01*
X104817945Y-28886346D01*
X104807546Y-28872454D01*
X104807545Y-28872453D01*
X104807544Y-28872452D01*
X104692335Y-28786206D01*
X104692328Y-28786202D01*
X104557482Y-28735908D01*
X104557483Y-28735908D01*
X104497883Y-28729501D01*
X104497881Y-28729500D01*
X104497873Y-28729500D01*
X104497864Y-28729500D01*
X102902129Y-28729500D01*
X102902118Y-28729501D01*
X102841472Y-28736020D01*
X102772713Y-28723612D01*
X102739368Y-28697521D01*
X102738669Y-28698221D01*
X102735227Y-28694779D01*
X102735225Y-28694777D01*
X102735224Y-28694776D01*
X102606598Y-28584919D01*
X102543656Y-28531161D01*
X102543653Y-28531160D01*
X102328859Y-28399533D01*
X102096110Y-28303126D01*
X101851151Y-28244317D01*
X101600000Y-28224551D01*
X101348848Y-28244317D01*
X101103889Y-28303126D01*
X100871140Y-28399533D01*
X100656346Y-28531160D01*
X100656343Y-28531161D01*
X100464776Y-28694776D01*
X100301161Y-28886343D01*
X100301160Y-28886346D01*
X100169533Y-29101140D01*
X100073126Y-29333889D01*
X100014317Y-29578848D01*
X99999500Y-29767112D01*
X99999500Y-31192887D01*
X17780500Y-31192887D01*
X17780500Y-30482560D01*
X17780606Y-30477436D01*
X17789489Y-30262656D01*
X17795462Y-30125850D01*
X17795609Y-30123159D01*
X17801054Y-30040083D01*
X17801523Y-30034721D01*
X17804746Y-30005302D01*
X17804918Y-30003819D01*
X17826024Y-29834499D01*
X17826112Y-29833824D01*
X17845607Y-29685740D01*
X17845974Y-29683173D01*
X17857676Y-29607143D01*
X17858859Y-29600628D01*
X17898791Y-29410182D01*
X17899012Y-29409156D01*
X17933923Y-29251684D01*
X17934489Y-29249252D01*
X17949381Y-29188394D01*
X17950955Y-29182588D01*
X18007294Y-28993351D01*
X18007779Y-28991766D01*
X18059717Y-28827042D01*
X18060539Y-28824534D01*
X18075827Y-28779493D01*
X18077687Y-28774393D01*
X18150753Y-28587140D01*
X18151586Y-28585069D01*
X18222055Y-28414941D01*
X18223045Y-28412624D01*
X18235884Y-28383443D01*
X18237937Y-28379022D01*
X18328085Y-28194621D01*
X18329443Y-28191931D01*
X18419672Y-28018603D01*
X18420882Y-28016339D01*
X18428064Y-28003247D01*
X18430194Y-27999522D01*
X18465661Y-27940000D01*
X66814417Y-27940000D01*
X66834699Y-28145932D01*
X66846426Y-28184591D01*
X66894768Y-28343954D01*
X66992315Y-28526450D01*
X66996184Y-28531164D01*
X67123589Y-28686410D01*
X67183905Y-28735909D01*
X67283550Y-28817685D01*
X67466046Y-28915232D01*
X67664066Y-28975300D01*
X67664065Y-28975300D01*
X67702647Y-28979100D01*
X67818392Y-28990500D01*
X67818395Y-28990500D01*
X67921605Y-28990500D01*
X67921608Y-28990500D01*
X68075934Y-28975300D01*
X68273954Y-28915232D01*
X68456450Y-28817685D01*
X68616410Y-28686410D01*
X68747685Y-28526450D01*
X68845232Y-28343954D01*
X68905300Y-28145934D01*
X68925583Y-27940000D01*
X68905300Y-27734066D01*
X68845232Y-27536046D01*
X68747685Y-27353550D01*
X68695702Y-27290209D01*
X68616410Y-27193589D01*
X68456452Y-27062317D01*
X68456453Y-27062317D01*
X68456450Y-27062315D01*
X68273954Y-26964768D01*
X68075934Y-26904700D01*
X68075932Y-26904699D01*
X68075934Y-26904699D01*
X67956805Y-26892966D01*
X67921608Y-26889500D01*
X67818392Y-26889500D01*
X67780298Y-26893251D01*
X67664067Y-26904699D01*
X67466043Y-26964769D01*
X67355898Y-27023643D01*
X67283550Y-27062315D01*
X67283548Y-27062316D01*
X67283547Y-27062317D01*
X67123589Y-27193589D01*
X66992317Y-27353547D01*
X66992315Y-27353550D01*
X66953643Y-27425898D01*
X66894769Y-27536043D01*
X66834699Y-27734067D01*
X66814417Y-27940000D01*
X18465661Y-27940000D01*
X18538096Y-27818439D01*
X18539976Y-27815389D01*
X18649904Y-27642837D01*
X18653516Y-27637484D01*
X18779238Y-27461401D01*
X18781724Y-27458043D01*
X18906269Y-27295732D01*
X18909968Y-27291144D01*
X19049824Y-27126016D01*
X19052881Y-27122545D01*
X19191184Y-26971615D01*
X19194835Y-26967802D01*
X19347802Y-26814835D01*
X19351615Y-26811184D01*
X19502545Y-26672881D01*
X19506016Y-26669824D01*
X19671144Y-26529968D01*
X19675732Y-26526269D01*
X19838043Y-26401724D01*
X19841401Y-26399238D01*
X20017484Y-26273516D01*
X20022837Y-26269904D01*
X20195389Y-26159976D01*
X20198439Y-26158096D01*
X20379522Y-26050194D01*
X20383247Y-26048064D01*
X20396339Y-26040882D01*
X20398603Y-26039672D01*
X20571931Y-25949443D01*
X20574621Y-25948085D01*
X20759022Y-25857937D01*
X20763443Y-25855884D01*
X20792624Y-25843045D01*
X20794941Y-25842055D01*
X20965069Y-25771586D01*
X20967140Y-25770753D01*
X21154393Y-25697687D01*
X21159493Y-25695827D01*
X21204571Y-25680526D01*
X21207042Y-25679717D01*
X21371766Y-25627779D01*
X21373351Y-25627294D01*
X21562588Y-25570955D01*
X21568394Y-25569381D01*
X21629252Y-25554489D01*
X21631684Y-25553923D01*
X21789156Y-25519012D01*
X21790182Y-25518791D01*
X21980628Y-25478859D01*
X21987143Y-25477676D01*
X22063173Y-25465974D01*
X22065740Y-25465607D01*
X22214043Y-25446083D01*
X22214434Y-25446032D01*
X22383819Y-25424918D01*
X22385302Y-25424746D01*
X22414721Y-25421523D01*
X22420083Y-25421054D01*
X22503168Y-25415608D01*
X22505850Y-25415462D01*
X22642338Y-25409502D01*
X22857437Y-25400605D01*
X22862561Y-25400500D01*
X126997439Y-25400500D01*
X127002562Y-25400605D01*
G37*
%TD.AperFunction*%
%TA.AperFunction,NonConductor*%
G36*
X106145702Y-48553997D02*
G01*
X106183476Y-48612775D01*
X106185390Y-48620117D01*
X106224663Y-48792183D01*
X106224667Y-48792199D01*
X106232145Y-48811252D01*
X106238312Y-48880849D01*
X106205873Y-48942732D01*
X106204398Y-48944232D01*
X106152181Y-48996450D01*
X106090858Y-49029936D01*
X106021167Y-49024952D01*
X105965233Y-48983081D01*
X105940815Y-48917617D01*
X105940499Y-48908770D01*
X105940499Y-48647710D01*
X105960184Y-48580671D01*
X106012988Y-48534916D01*
X106082146Y-48524972D01*
X106145702Y-48553997D01*
G37*
%TD.AperFunction*%
%TA.AperFunction,Conductor*%
%TO.N,/VCC_Sw*%
G36*
X132022539Y-40659685D02*
G01*
X132068294Y-40712489D01*
X132079500Y-40764000D01*
X132079500Y-55756000D01*
X132059815Y-55823039D01*
X132007011Y-55868794D01*
X131955500Y-55880000D01*
X124511362Y-55880000D01*
X124444323Y-55860315D01*
X124423681Y-55843681D01*
X119416319Y-50836319D01*
X119382834Y-50774996D01*
X119380000Y-50748638D01*
X119380000Y-45771362D01*
X119399685Y-45704323D01*
X119416319Y-45683681D01*
X124423681Y-40676319D01*
X124485004Y-40642834D01*
X124511362Y-40640000D01*
X131955500Y-40640000D01*
X132022539Y-40659685D01*
G37*
%TD.AperFunction*%
%TD*%
M02*
