M48
; DRILL file {KiCad 7.0.10} date Thu Feb 15 17:51:51 2024
; FORMAT={-:-/ absolute / inch / decimal}
; #@! TF.CreationDate,2024-02-15T17:51:51+01:00
; #@! TF.GenerationSoftware,Kicad,Pcbnew,7.0.10
; #@! TF.FileFunction,Plated,1,2,PTH
FMAT,2
INCH
; #@! TA.AperFunction,Plated,PTH,ViaDrill
T1C0.0157
; #@! TA.AperFunction,Plated,PTH,ComponentDrill
T2C0.0315
; #@! TA.AperFunction,Plated,PTH,ComponentDrill
T3C0.0354
; #@! TA.AperFunction,Plated,PTH,ComponentDrill
T4C0.0394
; #@! TA.AperFunction,Plated,PTH,ComponentDrill
T5C0.0512
; #@! TA.AperFunction,Plated,PTH,ComponentDrill
T6C0.0591
%
G90
G05
T1
X1.84Y-3.66
X2.28Y-1.38
X2.54Y-2.63
X2.54Y-3.03
X2.62Y-2.53
X2.62Y-2.93
X3.0Y-1.44
X3.05Y-1.97
X3.31Y-3.66
X3.8Y-3.66
X4.8Y-1.9
T2
X2.3Y-1.9
X2.3Y-1.9984
X2.9Y-1.8
X2.9Y-1.9
X2.9Y-2.0
X2.9Y-2.1
X3.2Y-1.8
X3.2Y-1.9
X3.2Y-2.0
X3.2Y-2.1
X4.0827Y-1.2
X4.1614Y-1.2
X4.2402Y-1.2
T3
X1.2516Y-2.9316
X1.2516Y-3.1284
X1.4484Y-3.03
X1.4916Y-2.5316
X1.4916Y-2.7284
X1.6884Y-2.63
X1.7416Y-2.9316
X1.7416Y-3.1284
X1.9384Y-3.03
X1.9916Y-2.5316
X1.9916Y-2.7284
X2.1884Y-2.63
X2.2316Y-2.9316
X2.2316Y-3.1284
X2.4284Y-3.03
X2.7216Y-2.9316
X2.7216Y-3.1284
X2.9184Y-3.03
X2.9716Y-2.5316
X2.9716Y-2.7284
X3.1684Y-2.63
X3.2116Y-2.9316
X3.2116Y-3.1284
X3.4084Y-3.03
X3.4616Y-2.5316
X3.4616Y-2.7284
X3.6584Y-2.63
X3.7016Y-2.9316
X3.7016Y-3.1284
X3.8984Y-3.03
X3.9516Y-2.5316
X3.9516Y-2.7284
X4.1484Y-2.63
X4.1916Y-2.9316
X4.1916Y-3.1284
X4.3884Y-3.03
X4.6816Y-2.9316
X4.6816Y-3.1284
X4.8784Y-3.03
X4.9016Y-1.2969
X5.0Y-1.1
X5.0984Y-1.2969
T4
X3.2Y-1.3
X3.4992Y-1.3
T5
X1.1126Y-1.6
X1.9Y-1.6
X4.1Y-1.9
X4.25Y-1.9
T6
X4.0Y-1.2
X4.3228Y-1.2
M30
