%TF.GenerationSoftware,KiCad,Pcbnew,7.0.10*%
%TF.CreationDate,2024-01-23T19:45:53+01:00*%
%TF.ProjectId,stylophone,7374796c-6f70-4686-9f6e-652e6b696361,rev?*%
%TF.SameCoordinates,Original*%
%TF.FileFunction,Copper,L2,Bot*%
%TF.FilePolarity,Positive*%
%FSLAX46Y46*%
G04 Gerber Fmt 4.6, Leading zero omitted, Abs format (unit mm)*
G04 Created by KiCad (PCBNEW 7.0.10) date 2024-01-23 19:45:53*
%MOMM*%
%LPD*%
G01*
G04 APERTURE LIST*
%TA.AperFunction,ComponentPad*%
%ADD10R,2.000000X2.000000*%
%TD*%
%TA.AperFunction,ComponentPad*%
%ADD11C,2.000000*%
%TD*%
%TA.AperFunction,ComponentPad*%
%ADD12C,1.620000*%
%TD*%
%TA.AperFunction,ComponentPad*%
%ADD13O,2.200000X3.500000*%
%TD*%
%TA.AperFunction,ComponentPad*%
%ADD14R,1.500000X2.500000*%
%TD*%
%TA.AperFunction,ComponentPad*%
%ADD15O,1.500000X2.500000*%
%TD*%
%TA.AperFunction,ComponentPad*%
%ADD16C,1.600000*%
%TD*%
%TA.AperFunction,ComponentPad*%
%ADD17R,1.600000X1.600000*%
%TD*%
%TA.AperFunction,ComponentPad*%
%ADD18O,1.600000X1.600000*%
%TD*%
%TA.AperFunction,Conductor*%
%ADD19C,0.500000*%
%TD*%
G04 APERTURE END LIST*
D10*
%TO.P,BZ1,1,-*%
%TO.N,Net-(BZ1--)*%
X81280000Y-33020000D03*
D11*
%TO.P,BZ1,2,+*%
%TO.N,Net-(BT1--)*%
X88880000Y-33020000D03*
%TD*%
D12*
%TO.P,RV8,1,1*%
%TO.N,Net-(BT1--)*%
X86320000Y-65960000D03*
%TO.P,RV8,2,2*%
%TO.N,Net-(U1-DIS)*%
X91320000Y-63460000D03*
%TO.P,RV8,3,3*%
%TO.N,Net-(U1-R)*%
X86320000Y-60960000D03*
%TD*%
%TO.P,RV3,1,1*%
%TO.N,Net-(BT1--)*%
X43140000Y-65960000D03*
%TO.P,RV3,2,2*%
%TO.N,Net-(U1-DIS)*%
X48140000Y-63460000D03*
%TO.P,RV3,3,3*%
%TO.N,Net-(U1-R)*%
X43140000Y-60960000D03*
%TD*%
%TO.P,RV18,1,1*%
%TO.N,Net-(BT1--)*%
X101560000Y-65960000D03*
%TO.P,RV18,2,2*%
%TO.N,Net-(U1-DIS)*%
X106560000Y-63460000D03*
%TO.P,RV18,3,3*%
%TO.N,Net-(U1-R)*%
X101560000Y-60960000D03*
%TD*%
%TO.P,RV16,1,1*%
%TO.N,Net-(BT1--)*%
X66000000Y-78740000D03*
%TO.P,RV16,2,2*%
%TO.N,Net-(U1-DIS)*%
X71000000Y-76240000D03*
%TO.P,RV16,3,3*%
%TO.N,Net-(U1-R)*%
X66000000Y-73740000D03*
%TD*%
%TO.P,RV1,1,1*%
%TO.N,Net-(BT1--)*%
X58420000Y-78660000D03*
%TO.P,RV1,2,2*%
%TO.N,Net-(U1-DIS)*%
X63420000Y-76160000D03*
%TO.P,RV1,3,3*%
%TO.N,Net-(U1-R)*%
X58420000Y-73660000D03*
%TD*%
D13*
%TO.P,SW1,*%
%TO.N,*%
X101600000Y-30480000D03*
X109800000Y-30480000D03*
D14*
%TO.P,SW1,1,A*%
%TO.N,Net-(BT1-+)*%
X103700000Y-30480000D03*
D15*
%TO.P,SW1,2,A*%
X105700000Y-30480000D03*
%TO.P,SW1,3,B*%
%TO.N,Net-(U1-R)*%
X107700000Y-30480000D03*
%TD*%
D12*
%TO.P,RV12,1,1*%
%TO.N,Net-(BT1--)*%
X111760000Y-78660000D03*
%TO.P,RV12,2,2*%
%TO.N,Net-(U1-DIS)*%
X116760000Y-76160000D03*
%TO.P,RV12,3,3*%
%TO.N,Net-(U1-R)*%
X111760000Y-73660000D03*
%TD*%
%TO.P,RV2,1,1*%
%TO.N,Net-(BT1--)*%
X129500000Y-32940000D03*
%TO.P,RV2,2,2*%
%TO.N,Net-(D1-A2)*%
X127000000Y-27940000D03*
%TO.P,RV2,3,3*%
%TO.N,unconnected-(RV2-Pad3)*%
X124500000Y-32940000D03*
%TD*%
%TO.P,RV10,1,1*%
%TO.N,Net-(BT1--)*%
X73620000Y-78740000D03*
%TO.P,RV10,2,2*%
%TO.N,Net-(U1-DIS)*%
X78620000Y-76240000D03*
%TO.P,RV10,3,3*%
%TO.N,Net-(U1-R)*%
X73620000Y-73740000D03*
%TD*%
%TO.P,RV14,1,1*%
%TO.N,Net-(BT1--)*%
X43180000Y-78660000D03*
%TO.P,RV14,2,2*%
%TO.N,Net-(U1-DIS)*%
X48180000Y-76160000D03*
%TO.P,RV14,3,3*%
%TO.N,Net-(U1-R)*%
X43180000Y-73660000D03*
%TD*%
%TO.P,RV11,1,1*%
%TO.N,Net-(BT1--)*%
X104140000Y-78660000D03*
%TO.P,RV11,2,2*%
%TO.N,Net-(U1-DIS)*%
X109140000Y-76160000D03*
%TO.P,RV11,3,3*%
%TO.N,Net-(U1-R)*%
X104140000Y-73660000D03*
%TD*%
%TO.P,RV6,1,1*%
%TO.N,Net-(BT1--)*%
X96520000Y-78660000D03*
%TO.P,RV6,2,2*%
%TO.N,Net-(U1-DIS)*%
X101520000Y-76160000D03*
%TO.P,RV6,3,3*%
%TO.N,Net-(U1-R)*%
X96520000Y-73660000D03*
%TD*%
%TO.P,RV7,1,1*%
%TO.N,Net-(BT1--)*%
X50760000Y-78740000D03*
%TO.P,RV7,2,2*%
%TO.N,Net-(U1-DIS)*%
X55760000Y-76240000D03*
%TO.P,RV7,3,3*%
%TO.N,Net-(U1-R)*%
X50760000Y-73740000D03*
%TD*%
D16*
%TO.P,C1,1*%
%TO.N,Net-(BT1--)*%
X58420000Y-50760000D03*
%TO.P,C1,2*%
X58420000Y-48260000D03*
%TD*%
D17*
%TO.P,U1,1,GND*%
%TO.N,Net-(BT1--)*%
X73660000Y-45720000D03*
D18*
%TO.P,U1,2,TR*%
X73660000Y-48260000D03*
%TO.P,U1,3,Q*%
%TO.N,Net-(D1-A2)*%
X73660000Y-50800000D03*
%TO.P,U1,4,R*%
%TO.N,Net-(U1-R)*%
X73660000Y-53340000D03*
%TO.P,U1,5,CV*%
%TO.N,unconnected-(U1-CV-Pad5)*%
X81280000Y-53340000D03*
%TO.P,U1,6,THR*%
%TO.N,Net-(BT1--)*%
X81280000Y-50800000D03*
%TO.P,U1,7,DIS*%
%TO.N,Net-(U1-DIS)*%
X81280000Y-48260000D03*
%TO.P,U1,8,VCC*%
%TO.N,Net-(U1-R)*%
X81280000Y-45720000D03*
%TD*%
D12*
%TO.P,RV17,1,1*%
%TO.N,Net-(BT1--)*%
X119380000Y-78660000D03*
%TO.P,RV17,2,2*%
%TO.N,Net-(U1-DIS)*%
X124380000Y-76160000D03*
%TO.P,RV17,3,3*%
%TO.N,Net-(U1-R)*%
X119380000Y-73660000D03*
%TD*%
%TO.P,RV15,1,1*%
%TO.N,Net-(BT1--)*%
X93980000Y-65960000D03*
%TO.P,RV15,2,2*%
%TO.N,Net-(U1-DIS)*%
X98980000Y-63460000D03*
%TO.P,RV15,3,3*%
%TO.N,Net-(U1-R)*%
X93980000Y-60960000D03*
%TD*%
%TO.P,RV5,1,1*%
%TO.N,Net-(BT1--)*%
X88900000Y-78660000D03*
%TO.P,RV5,2,2*%
%TO.N,Net-(U1-DIS)*%
X93900000Y-76160000D03*
%TO.P,RV5,3,3*%
%TO.N,Net-(U1-R)*%
X88900000Y-73660000D03*
%TD*%
%TO.P,RV9,1,1*%
%TO.N,Net-(BT1--)*%
X50760000Y-65960000D03*
%TO.P,RV9,2,2*%
%TO.N,Net-(U1-DIS)*%
X55760000Y-63460000D03*
%TO.P,RV9,3,3*%
%TO.N,Net-(U1-R)*%
X50760000Y-60960000D03*
%TD*%
%TO.P,RV4,1,1*%
%TO.N,Net-(BT1--)*%
X81280000Y-78660000D03*
%TO.P,RV4,2,2*%
%TO.N,Net-(U1-DIS)*%
X86280000Y-76160000D03*
%TO.P,RV4,3,3*%
%TO.N,Net-(U1-R)*%
X81280000Y-73660000D03*
%TD*%
%TO.P,RV13,1,1*%
%TO.N,Net-(BT1--)*%
X35560000Y-78660000D03*
%TO.P,RV13,2,2*%
%TO.N,Net-(U1-DIS)*%
X40560000Y-76160000D03*
%TO.P,RV13,3,3*%
%TO.N,Net-(U1-R)*%
X35560000Y-73660000D03*
%TD*%
D19*
%TO.N,Net-(BT1--)*%
X129500000Y-32940000D02*
X128240000Y-34200000D01*
%TD*%
%TA.AperFunction,NonConductor*%
G36*
X132022539Y-40659685D02*
G01*
X132068294Y-40712489D01*
X132079500Y-40764000D01*
X132079500Y-55756000D01*
X132059815Y-55823039D01*
X132007011Y-55868794D01*
X131955500Y-55880000D01*
X124511362Y-55880000D01*
X124444323Y-55860315D01*
X124423681Y-55843681D01*
X119416319Y-50836319D01*
X119382834Y-50774996D01*
X119380000Y-50748638D01*
X119380000Y-45771362D01*
X119399685Y-45704323D01*
X119416319Y-45683681D01*
X124423681Y-40676319D01*
X124485004Y-40642834D01*
X124511362Y-40640000D01*
X131955500Y-40640000D01*
X132022539Y-40659685D01*
G37*
%TD.AperFunction*%
M02*
