%TF.GenerationSoftware,KiCad,Pcbnew,7.0.10*%
%TF.CreationDate,2024-02-15T17:51:49+01:00*%
%TF.ProjectId,stylophone,7374796c-6f70-4686-9f6e-652e6b696361,rev?*%
%TF.SameCoordinates,Original*%
%TF.FileFunction,Copper,L1,Top*%
%TF.FilePolarity,Positive*%
%FSLAX46Y46*%
G04 Gerber Fmt 4.6, Leading zero omitted, Abs format (unit mm)*
G04 Created by KiCad (PCBNEW 7.0.10) date 2024-02-15 17:51:49*
%MOMM*%
%LPD*%
G01*
G04 APERTURE LIST*
%TA.AperFunction,ComponentPad*%
%ADD10C,2.600000*%
%TD*%
%TA.AperFunction,ComponentPad*%
%ADD11O,2.200000X3.500000*%
%TD*%
%TA.AperFunction,ComponentPad*%
%ADD12R,1.500000X2.500000*%
%TD*%
%TA.AperFunction,ComponentPad*%
%ADD13O,1.500000X2.500000*%
%TD*%
%TA.AperFunction,SMDPad,CuDef*%
%ADD14R,2.500000X1.200000*%
%TD*%
%TA.AperFunction,ComponentPad*%
%ADD15R,2.600000X2.600000*%
%TD*%
%TA.AperFunction,ComponentPad*%
%ADD16O,2.000000X2.000000*%
%TD*%
%TA.AperFunction,ComponentPad*%
%ADD17R,2.600000X2.000000*%
%TD*%
%TA.AperFunction,ComponentPad*%
%ADD18O,2.600000X2.000000*%
%TD*%
%TA.AperFunction,ComponentPad*%
%ADD19O,2.600000X2.600000*%
%TD*%
%TA.AperFunction,ViaPad*%
%ADD20C,2.000000*%
%TD*%
%TA.AperFunction,Conductor*%
%ADD21C,0.900000*%
%TD*%
G04 APERTURE END LIST*
D10*
%TO.P,RV_G1,1,1*%
%TO.N,/G*%
X81574000Y-79462000D03*
%TO.P,RV_G1,2,2*%
%TO.N,/DIS*%
X86574000Y-76962000D03*
%TO.P,RV_G1,3,3*%
%TO.N,/GND*%
X81574000Y-74462000D03*
%TD*%
%TO.P,RV_F#1,1,1*%
%TO.N,/F#*%
X75478000Y-69302000D03*
%TO.P,RV_F#1,2,2*%
%TO.N,/DIS*%
X80478000Y-66802000D03*
%TO.P,RV_F#1,3,3*%
%TO.N,/GND*%
X75478000Y-64302000D03*
%TD*%
%TO.P,RV_G#1,1,1*%
%TO.N,/G#*%
X87924000Y-69302000D03*
%TO.P,RV_G#1,2,2*%
%TO.N,/DIS*%
X92924000Y-66802000D03*
%TO.P,RV_G#1,3,3*%
%TO.N,/GND*%
X87924000Y-64302000D03*
%TD*%
D11*
%TO.P,SW1,*%
%TO.N,*%
X101600000Y-30480000D03*
X109800000Y-30480000D03*
D12*
%TO.P,SW1,1,A*%
%TO.N,/VCC*%
X103700000Y-30480000D03*
D13*
%TO.P,SW1,2,A*%
X105700000Y-30480000D03*
%TO.P,SW1,3,B*%
%TO.N,/VCC_Sw*%
X107700000Y-30480000D03*
%TD*%
D10*
%TO.P,RV_E1,1,1*%
%TO.N,/E*%
X56682000Y-79462000D03*
%TO.P,RV_E1,2,2*%
%TO.N,/DIS*%
X61682000Y-76962000D03*
%TO.P,RV_E1,3,3*%
%TO.N,/GND*%
X56682000Y-74462000D03*
%TD*%
%TO.P,RV2,1,1*%
%TO.N,/GND*%
X129500000Y-32940000D03*
%TO.P,RV2,2,2*%
%TO.N,/Q*%
X127000000Y-27940000D03*
%TO.P,RV2,3,3*%
%TO.N,unconnected-(RV2-Pad3)*%
X124500000Y-32940000D03*
%TD*%
%TO.P,RV_C#1,1,1*%
%TO.N,/C#*%
X37886000Y-69302000D03*
%TO.P,RV_C#1,2,2*%
%TO.N,/DIS*%
X42886000Y-66802000D03*
%TO.P,RV_C#1,3,3*%
%TO.N,/GND*%
X37886000Y-64302000D03*
%TD*%
D14*
%TO.P,J1,R1*%
%TO.N,/Q*%
X71120000Y-32540000D03*
%TO.P,J1,R2*%
%TO.N,/GND*%
X71120000Y-29540000D03*
%TO.P,J1,S*%
%TO.N,Net-(BZ1--)*%
X64620000Y-37640000D03*
%TO.P,J1,T*%
%TO.N,/Q*%
X71120000Y-36540000D03*
%TD*%
D10*
%TO.P,RV_F1,1,1*%
%TO.N,/F*%
X69128000Y-79462000D03*
%TO.P,RV_F1,2,2*%
%TO.N,/DIS*%
X74128000Y-76962000D03*
%TO.P,RV_F1,3,3*%
%TO.N,/GND*%
X69128000Y-74462000D03*
%TD*%
D15*
%TO.P,BZ1,1,-*%
%TO.N,Net-(BZ1--)*%
X81280000Y-33020000D03*
D10*
%TO.P,BZ1,2,+*%
%TO.N,/GND*%
X88880000Y-33020000D03*
%TD*%
%TO.P,RV_B1,1,1*%
%TO.N,/B*%
X106466000Y-79462000D03*
%TO.P,RV_B1,2,2*%
%TO.N,/DIS*%
X111466000Y-76962000D03*
%TO.P,RV_B1,3,3*%
%TO.N,/GND*%
X106466000Y-74462000D03*
%TD*%
D16*
%TO.P,C1,1*%
%TO.N,/GND*%
X58420000Y-50760000D03*
%TO.P,C1,2*%
%TO.N,Net-(U1-THR)*%
X58420000Y-48260000D03*
%TD*%
D17*
%TO.P,U1,1,GND*%
%TO.N,/GND*%
X73660000Y-45720000D03*
D18*
%TO.P,U1,2,TR*%
%TO.N,Net-(U1-THR)*%
X73660000Y-48260000D03*
%TO.P,U1,3,Q*%
%TO.N,/Q*%
X73660000Y-50800000D03*
%TO.P,U1,4,R*%
%TO.N,/VCC_Sw*%
X73660000Y-53340000D03*
%TO.P,U1,5,CV*%
%TO.N,unconnected-(U1-CV-Pad5)*%
X81280000Y-53340000D03*
%TO.P,U1,6,THR*%
%TO.N,Net-(U1-THR)*%
X81280000Y-50800000D03*
%TO.P,U1,7,DIS*%
%TO.N,/DIS*%
X81280000Y-48260000D03*
%TO.P,U1,8,VCC*%
%TO.N,/VCC_Sw*%
X81280000Y-45720000D03*
%TD*%
D10*
%TO.P,RV_D1,1,1*%
%TO.N,/D*%
X44236000Y-79462000D03*
%TO.P,RV_D1,2,2*%
%TO.N,/DIS*%
X49236000Y-76962000D03*
%TO.P,RV_D1,3,3*%
%TO.N,/GND*%
X44236000Y-74462000D03*
%TD*%
%TO.P,RV_A#1,1,1*%
%TO.N,/A#*%
X100370000Y-69302000D03*
%TO.P,RV_A#1,2,2*%
%TO.N,/DIS*%
X105370000Y-66802000D03*
%TO.P,RV_A#1,3,3*%
%TO.N,/GND*%
X100370000Y-64302000D03*
%TD*%
%TO.P,RV_C1,1,1*%
%TO.N,/C*%
X31790000Y-79462000D03*
%TO.P,RV_C1,2,2*%
%TO.N,/DIS*%
X36790000Y-76962000D03*
%TO.P,RV_C1,3,3*%
%TO.N,/GND*%
X31790000Y-74462000D03*
%TD*%
%TO.P,RV_C2,1,1*%
%TO.N,/C2*%
X118912000Y-79462000D03*
%TO.P,RV_C2,2,2*%
%TO.N,/DIS*%
X123912000Y-76962000D03*
%TO.P,RV_C2,3,3*%
%TO.N,/GND*%
X118912000Y-74462000D03*
%TD*%
D15*
%TO.P,BT1,1,+*%
%TO.N,/VCC*%
X48260000Y-40640000D03*
D10*
%TO.P,BT1,2,-*%
%TO.N,/GND*%
X28260000Y-40640000D03*
%TD*%
%TO.P,RV_A1,1,1*%
%TO.N,/A*%
X94020000Y-79462000D03*
%TO.P,RV_A1,2,2*%
%TO.N,/DIS*%
X99020000Y-76962000D03*
%TO.P,RV_A1,3,3*%
%TO.N,/GND*%
X94020000Y-74462000D03*
%TD*%
D15*
%TO.P,D1,1,K*%
%TO.N,Net-(BZ1--)*%
X104140000Y-48260000D03*
D19*
%TO.P,D1,2,A*%
%TO.N,/Q*%
X107950000Y-48260000D03*
%TD*%
D10*
%TO.P,RV_D#1,1,1*%
%TO.N,/D#*%
X50586000Y-69302000D03*
%TO.P,RV_D#1,2,2*%
%TO.N,/DIS*%
X55586000Y-66802000D03*
%TO.P,RV_D#1,3,3*%
%TO.N,/GND*%
X50586000Y-64302000D03*
%TD*%
D20*
%TO.N,Net-(BZ1--)*%
X57912000Y-35052000D03*
%TO.N,/A*%
X96520000Y-92964000D03*
%TO.N,/D*%
X46736000Y-92964000D03*
%TO.N,/G*%
X84074000Y-92964000D03*
%TO.N,/GND*%
X66548000Y-74422000D03*
X66548000Y-64262000D03*
%TO.N,/Q*%
X76200000Y-36576000D03*
%TO.N,/DIS*%
X64516000Y-66802000D03*
X64516000Y-76962000D03*
%TO.N,/VCC_Sw*%
X121920000Y-48260000D03*
X77470000Y-50038000D03*
%TD*%
D21*
%TO.N,/GND*%
X127661523Y-32940000D02*
X129500000Y-32940000D01*
X122901523Y-28180000D02*
X127661523Y-32940000D01*
X93720000Y-28180000D02*
X122901523Y-28180000D01*
X88880000Y-33020000D02*
X93720000Y-28180000D01*
%TO.N,Net-(BZ1--)*%
X60500000Y-37640000D02*
X64620000Y-37640000D01*
X57912000Y-35052000D02*
X60500000Y-37640000D01*
%TO.N,/A#*%
X100370000Y-69302000D02*
X102616000Y-71548000D01*
X102616000Y-71548000D02*
X102616000Y-86868000D01*
%TO.N,/B*%
X109942000Y-79462000D02*
X111506000Y-81026000D01*
X111506000Y-81026000D02*
X111506000Y-88392000D01*
X106466000Y-79462000D02*
X109942000Y-79462000D01*
%TO.N,/C#*%
X40640000Y-72056000D02*
X40640000Y-86360000D01*
X37886000Y-69302000D02*
X40640000Y-72056000D01*
%TO.N,/C*%
X31790000Y-88860000D02*
X31750000Y-88900000D01*
X31790000Y-79462000D02*
X31790000Y-88860000D01*
%TO.N,/C2*%
X118912000Y-79462000D02*
X118912000Y-88432000D01*
X118912000Y-88432000D02*
X120650000Y-90170000D01*
%TO.N,/D#*%
X52832000Y-71548000D02*
X52832000Y-87376000D01*
X50586000Y-69302000D02*
X52832000Y-71548000D01*
%TO.N,/E*%
X62230000Y-81788000D02*
X62230000Y-88392000D01*
X59904000Y-79462000D02*
X62230000Y-81788000D01*
X56682000Y-79462000D02*
X59904000Y-79462000D01*
%TO.N,/F#*%
X77724000Y-71548000D02*
X77724000Y-86360000D01*
X75478000Y-69302000D02*
X77724000Y-71548000D01*
%TO.N,/F*%
X69128000Y-86828000D02*
X68580000Y-87376000D01*
X69128000Y-79462000D02*
X69128000Y-86828000D01*
%TO.N,/G#*%
X87924000Y-69302000D02*
X90424000Y-71802000D01*
X90424000Y-71802000D02*
X90424000Y-86360000D01*
%TO.N,/VCC*%
X95290000Y-40640000D02*
X103700000Y-32230000D01*
X48260000Y-40640000D02*
X95290000Y-40640000D01*
X103700000Y-30480000D02*
X105700000Y-30480000D01*
X103700000Y-32230000D02*
X103700000Y-30480000D01*
%TO.N,/GND*%
X28260000Y-54676000D02*
X28260000Y-40640000D01*
X58420000Y-56388000D02*
X58420000Y-50760000D01*
X39360000Y-29540000D02*
X71120000Y-29540000D01*
X58420000Y-50760000D02*
X68620000Y-50760000D01*
X28260000Y-40640000D02*
X39360000Y-29540000D01*
X66294000Y-64262000D02*
X58420000Y-56388000D01*
X85400000Y-29540000D02*
X71120000Y-29540000D01*
X68620000Y-50760000D02*
X73660000Y-45720000D01*
X66548000Y-74422000D02*
X66548000Y-64262000D01*
X88880000Y-33020000D02*
X85400000Y-29540000D01*
X37886000Y-64302000D02*
X28260000Y-54676000D01*
%TO.N,Net-(U1-THR)*%
X73660000Y-48260000D02*
X78740000Y-48260000D01*
X78740000Y-48260000D02*
X81280000Y-50800000D01*
%TO.N,/Q*%
X71120000Y-36540000D02*
X71120000Y-32540000D01*
X76200000Y-36576000D02*
X76164000Y-36540000D01*
X76164000Y-36540000D02*
X71120000Y-36540000D01*
%TO.N,/DIS*%
X105370000Y-66802000D02*
X99822000Y-66802000D01*
X99822000Y-66802000D02*
X81280000Y-48260000D01*
X64516000Y-66802000D02*
X64516000Y-76962000D01*
%TO.N,/VCC_Sw*%
X76962000Y-50038000D02*
X77470000Y-50038000D01*
X81280000Y-45720000D02*
X92960000Y-45720000D01*
X92960000Y-45720000D02*
X107700000Y-30980000D01*
X107700000Y-30980000D02*
X107700000Y-30480000D01*
X107700000Y-34040000D02*
X107700000Y-30480000D01*
X73660000Y-53340000D02*
X76962000Y-50038000D01*
X121920000Y-48260000D02*
X107700000Y-34040000D01*
%TD*%
%TA.AperFunction,Conductor*%
%TO.N,/C#*%
G36*
X46425039Y-83585685D02*
G01*
X46470794Y-83638489D01*
X46482000Y-83690000D01*
X46482000Y-91023841D01*
X46462315Y-91090880D01*
X46409511Y-91136635D01*
X46401335Y-91140022D01*
X46363946Y-91153967D01*
X46363935Y-91153972D01*
X46304576Y-91186384D01*
X46303102Y-91187154D01*
X46302619Y-91187452D01*
X46187436Y-91273678D01*
X46187424Y-91273688D01*
X43771434Y-93689681D01*
X43710111Y-93723166D01*
X43683753Y-93726000D01*
X37342246Y-93726000D01*
X37275207Y-93706315D01*
X37254565Y-93689681D01*
X34831819Y-91266935D01*
X34798334Y-91205612D01*
X34795500Y-91179254D01*
X34795500Y-83690000D01*
X34815185Y-83622961D01*
X34867989Y-83577206D01*
X34919500Y-83566000D01*
X46358000Y-83566000D01*
X46425039Y-83585685D01*
G37*
%TD.AperFunction*%
%TD*%
%TA.AperFunction,Conductor*%
%TO.N,/D*%
G36*
X46675891Y-91602622D02*
G01*
X46720238Y-91631123D01*
X47075979Y-91986864D01*
X47075986Y-91986870D01*
X47075994Y-91986878D01*
X47131261Y-92034678D01*
X47159924Y-92056051D01*
X47159935Y-92056059D01*
X47221495Y-92095376D01*
X47221504Y-92095380D01*
X47221508Y-92095383D01*
X47266319Y-92119633D01*
X47273030Y-92123265D01*
X47290175Y-92134466D01*
X47404100Y-92223137D01*
X47419165Y-92237005D01*
X47516926Y-92343202D01*
X47529505Y-92359364D01*
X47656610Y-92553915D01*
X47662814Y-92561030D01*
X47678067Y-92581485D01*
X47678070Y-92581488D01*
X47678074Y-92581493D01*
X47725865Y-92636750D01*
X47725870Y-92636755D01*
X48817616Y-93728500D01*
X49136239Y-94047123D01*
X49136255Y-94047137D01*
X49136262Y-94047144D01*
X49176480Y-94083271D01*
X49176492Y-94083281D01*
X49176500Y-94083288D01*
X49197142Y-94099922D01*
X49241026Y-94131567D01*
X49371903Y-94191338D01*
X49438942Y-94211023D01*
X49438946Y-94211024D01*
X49478034Y-94216644D01*
X49507840Y-94224820D01*
X49529998Y-94233998D01*
X49530000Y-94234000D01*
X52456500Y-94234000D01*
X52523539Y-94253685D01*
X52569294Y-94306489D01*
X52580500Y-94358000D01*
X52580500Y-104016000D01*
X52560815Y-104083039D01*
X52508011Y-104128794D01*
X52456500Y-104140000D01*
X41015500Y-104140000D01*
X40948461Y-104120315D01*
X40902706Y-104067511D01*
X40891500Y-104016000D01*
X40891500Y-94358000D01*
X40911185Y-94290961D01*
X40963989Y-94245206D01*
X41015500Y-94234000D01*
X43942000Y-94234000D01*
X46544878Y-91631121D01*
X46606199Y-91597638D01*
X46675891Y-91602622D01*
G37*
%TD.AperFunction*%
%TD*%
%TA.AperFunction,Conductor*%
%TO.N,/F*%
G36*
X71319539Y-83585685D02*
G01*
X71365294Y-83638489D01*
X71376500Y-83690000D01*
X71376500Y-91134640D01*
X71379397Y-91188688D01*
X71379397Y-91188689D01*
X71382229Y-91215022D01*
X71382232Y-91215049D01*
X71390885Y-91268445D01*
X71390885Y-91268447D01*
X71392837Y-91273680D01*
X71441168Y-91403257D01*
X71474653Y-91464580D01*
X71560877Y-91579761D01*
X71560881Y-91579765D01*
X71560886Y-91579771D01*
X73709616Y-93728500D01*
X74028239Y-94047123D01*
X74028255Y-94047137D01*
X74028262Y-94047144D01*
X74068480Y-94083271D01*
X74068492Y-94083281D01*
X74068500Y-94083288D01*
X74089142Y-94099922D01*
X74133026Y-94131567D01*
X74263903Y-94191338D01*
X74330942Y-94211023D01*
X74330946Y-94211024D01*
X74370034Y-94216644D01*
X74399840Y-94224820D01*
X74421998Y-94233998D01*
X74422000Y-94234000D01*
X77348500Y-94234000D01*
X77415539Y-94253685D01*
X77461294Y-94306489D01*
X77472500Y-94358000D01*
X77472500Y-104016000D01*
X77452815Y-104083039D01*
X77400011Y-104128794D01*
X77348500Y-104140000D01*
X65907500Y-104140000D01*
X65840461Y-104120315D01*
X65794706Y-104067511D01*
X65783500Y-104016000D01*
X65783500Y-83690000D01*
X65803185Y-83622961D01*
X65855989Y-83577206D01*
X65907500Y-83566000D01*
X71252500Y-83566000D01*
X71319539Y-83585685D01*
G37*
%TD.AperFunction*%
%TD*%
%TA.AperFunction,Conductor*%
%TO.N,/A*%
G36*
X96563332Y-91706063D02*
G01*
X96607680Y-91734564D01*
X96859979Y-91986864D01*
X96859986Y-91986870D01*
X96859994Y-91986878D01*
X96915261Y-92034678D01*
X96943920Y-92056048D01*
X96943935Y-92056059D01*
X97005495Y-92095376D01*
X97005504Y-92095380D01*
X97005508Y-92095383D01*
X97050319Y-92119633D01*
X97057030Y-92123265D01*
X97074175Y-92134466D01*
X97188100Y-92223137D01*
X97203165Y-92237005D01*
X97300926Y-92343202D01*
X97313505Y-92359364D01*
X97440610Y-92553915D01*
X97446814Y-92561030D01*
X97462067Y-92581485D01*
X97462070Y-92581488D01*
X97462074Y-92581493D01*
X97509865Y-92636750D01*
X97509870Y-92636755D01*
X98537232Y-93664116D01*
X98920239Y-94047123D01*
X98920246Y-94047129D01*
X98920262Y-94047144D01*
X98960480Y-94083271D01*
X98960492Y-94083281D01*
X98960500Y-94083288D01*
X98981142Y-94099922D01*
X99025026Y-94131567D01*
X99155903Y-94191338D01*
X99222942Y-94211023D01*
X99222946Y-94211024D01*
X99262034Y-94216644D01*
X99291840Y-94224820D01*
X99313998Y-94233998D01*
X99314000Y-94234000D01*
X102240500Y-94234000D01*
X102307539Y-94253685D01*
X102353294Y-94306489D01*
X102364500Y-94358000D01*
X102364500Y-104016000D01*
X102344815Y-104083039D01*
X102292011Y-104128794D01*
X102240500Y-104140000D01*
X90799500Y-104140000D01*
X90732461Y-104120315D01*
X90686706Y-104067511D01*
X90675500Y-104016000D01*
X90675500Y-94358000D01*
X90695185Y-94290961D01*
X90747989Y-94245206D01*
X90799500Y-94234000D01*
X93725998Y-94234000D01*
X93726000Y-94234000D01*
X93726001Y-94233998D01*
X93726621Y-94233742D01*
X93754251Y-94225895D01*
X93755014Y-94225771D01*
X93755036Y-94225769D01*
X93808448Y-94217114D01*
X93943257Y-94166832D01*
X94004580Y-94133347D01*
X94119762Y-94047123D01*
X95530139Y-92636744D01*
X95577918Y-92581503D01*
X95593203Y-92561007D01*
X95596252Y-92558715D01*
X95619012Y-92523876D01*
X95619013Y-92523877D01*
X95726494Y-92359361D01*
X95739069Y-92343206D01*
X95811388Y-92264646D01*
X95836836Y-92237001D01*
X95851901Y-92223134D01*
X95965816Y-92134472D01*
X95982959Y-92123272D01*
X96008227Y-92109596D01*
X96034494Y-92095382D01*
X96096079Y-92056048D01*
X96124741Y-92034675D01*
X96180002Y-91986881D01*
X96432319Y-91734562D01*
X96493640Y-91701079D01*
X96563332Y-91706063D01*
G37*
%TD.AperFunction*%
%TD*%
%TA.AperFunction,Conductor*%
%TO.N,/A#*%
G36*
X108403539Y-83585685D02*
G01*
X108449294Y-83638489D01*
X108460500Y-83690000D01*
X108460500Y-91179254D01*
X108440815Y-91246293D01*
X108424181Y-91266935D01*
X106001435Y-93689681D01*
X105940112Y-93723166D01*
X105913754Y-93726000D01*
X99365362Y-93726000D01*
X99298323Y-93706315D01*
X99277681Y-93689681D01*
X97867304Y-92279304D01*
X97845931Y-92250642D01*
X97844177Y-92247402D01*
X97844173Y-92247393D01*
X97763853Y-92124454D01*
X97708166Y-92039217D01*
X97686557Y-92015744D01*
X97539744Y-91856262D01*
X97343509Y-91703526D01*
X97343508Y-91703525D01*
X97343505Y-91703523D01*
X97343499Y-91703519D01*
X97246099Y-91650809D01*
X97217436Y-91629436D01*
X96810319Y-91222319D01*
X96776834Y-91160996D01*
X96774000Y-91134638D01*
X96774000Y-83690000D01*
X96793685Y-83622961D01*
X96846489Y-83577206D01*
X96898000Y-83566000D01*
X108336500Y-83566000D01*
X108403539Y-83585685D01*
G37*
%TD.AperFunction*%
%TD*%
%TA.AperFunction,Conductor*%
%TO.N,/C2*%
G36*
X122671560Y-83585685D02*
G01*
X122715968Y-83635635D01*
X127749447Y-93954266D01*
X127762000Y-94008631D01*
X127762000Y-104016000D01*
X127742315Y-104083039D01*
X127689511Y-104128794D01*
X127638000Y-104140000D01*
X115691500Y-104140000D01*
X115624461Y-104120315D01*
X115578706Y-104067511D01*
X115567500Y-104016000D01*
X115567500Y-83690000D01*
X115587185Y-83622961D01*
X115639989Y-83577206D01*
X115691500Y-83566000D01*
X122604521Y-83566000D01*
X122671560Y-83585685D01*
G37*
%TD.AperFunction*%
%TD*%
%TA.AperFunction,Conductor*%
%TO.N,/D#*%
G36*
X58619539Y-83585685D02*
G01*
X58665294Y-83638489D01*
X58676500Y-83690000D01*
X58676500Y-91179254D01*
X58656815Y-91246293D01*
X58640181Y-91266935D01*
X56217435Y-93689681D01*
X56156112Y-93723166D01*
X56129754Y-93726000D01*
X49581362Y-93726000D01*
X49514323Y-93706315D01*
X49493681Y-93689681D01*
X48083304Y-92279304D01*
X48061931Y-92250642D01*
X48060177Y-92247402D01*
X48060173Y-92247393D01*
X47979853Y-92124454D01*
X47924166Y-92039217D01*
X47902557Y-92015744D01*
X47755744Y-91856262D01*
X47559509Y-91703526D01*
X47559508Y-91703525D01*
X47559505Y-91703523D01*
X47559499Y-91703519D01*
X47462099Y-91650809D01*
X47433436Y-91629436D01*
X47026319Y-91222319D01*
X46992834Y-91160996D01*
X46990000Y-91134638D01*
X46990000Y-83690000D01*
X47009685Y-83622961D01*
X47062489Y-83577206D01*
X47114000Y-83566000D01*
X58552500Y-83566000D01*
X58619539Y-83585685D01*
G37*
%TD.AperFunction*%
%TD*%
%TA.AperFunction,Conductor*%
%TO.N,/G#*%
G36*
X96209039Y-83585685D02*
G01*
X96254794Y-83638489D01*
X96266000Y-83690000D01*
X96266000Y-91134637D01*
X96246315Y-91201676D01*
X96229681Y-91222318D01*
X95822560Y-91629438D01*
X95793898Y-91650811D01*
X95704196Y-91699356D01*
X95696491Y-91703526D01*
X95696490Y-91703527D01*
X95500257Y-91856261D01*
X95331833Y-92039217D01*
X95195824Y-92247397D01*
X95194063Y-92250651D01*
X95172696Y-92279302D01*
X93762319Y-93689681D01*
X93700996Y-93723166D01*
X93674638Y-93726000D01*
X87126246Y-93726000D01*
X87059207Y-93706315D01*
X87038565Y-93689681D01*
X84622571Y-91273687D01*
X84622564Y-91273680D01*
X84569386Y-91230826D01*
X84538415Y-91205867D01*
X84538413Y-91205866D01*
X84494077Y-91177373D01*
X84494073Y-91177371D01*
X84494070Y-91177369D01*
X84447321Y-91153968D01*
X84396494Y-91128525D01*
X84345358Y-91080914D01*
X84328000Y-91017642D01*
X84328000Y-83690000D01*
X84347685Y-83622961D01*
X84400489Y-83577206D01*
X84452000Y-83566000D01*
X96142000Y-83566000D01*
X96209039Y-83585685D01*
G37*
%TD.AperFunction*%
%TD*%
%TA.AperFunction,Conductor*%
%TO.N,/E*%
G36*
X65221039Y-83585685D02*
G01*
X65266794Y-83638489D01*
X65278000Y-83690000D01*
X65278000Y-104016000D01*
X65258315Y-104083039D01*
X65205511Y-104128794D01*
X65154000Y-104140000D01*
X53210000Y-104140000D01*
X53142961Y-104120315D01*
X53097206Y-104067511D01*
X53086000Y-104016000D01*
X53086000Y-94358000D01*
X53105685Y-94290961D01*
X53158489Y-94245206D01*
X53210000Y-94234000D01*
X56388000Y-94234000D01*
X59182000Y-91440000D01*
X59182000Y-83690000D01*
X59201685Y-83622961D01*
X59254489Y-83577206D01*
X59306000Y-83566000D01*
X65154000Y-83566000D01*
X65221039Y-83585685D01*
G37*
%TD.AperFunction*%
%TD*%
%TA.AperFunction,Conductor*%
%TO.N,/C*%
G36*
X34233039Y-83585685D02*
G01*
X34278794Y-83638489D01*
X34290000Y-83690000D01*
X34290000Y-91440000D01*
X37084000Y-94234000D01*
X40262000Y-94234000D01*
X40329039Y-94253685D01*
X40374794Y-94306489D01*
X40386000Y-94358000D01*
X40386000Y-104016000D01*
X40366315Y-104083039D01*
X40313511Y-104128794D01*
X40262000Y-104140000D01*
X28064000Y-104140000D01*
X27996961Y-104120315D01*
X27951206Y-104067511D01*
X27940000Y-104016000D01*
X27940000Y-94001970D01*
X27947549Y-93959366D01*
X31720221Y-83647396D01*
X31761741Y-83591201D01*
X31827050Y-83566374D01*
X31836672Y-83566000D01*
X34166000Y-83566000D01*
X34233039Y-83585685D01*
G37*
%TD.AperFunction*%
%TD*%
%TA.AperFunction,Conductor*%
%TO.N,/G*%
G36*
X84220774Y-91602621D02*
G01*
X84265122Y-91631122D01*
X86868000Y-94234000D01*
X90046000Y-94234000D01*
X90113039Y-94253685D01*
X90158794Y-94306489D01*
X90170000Y-94358000D01*
X90170000Y-104016000D01*
X90150315Y-104083039D01*
X90097511Y-104128794D01*
X90046000Y-104140000D01*
X78102000Y-104140000D01*
X78034961Y-104120315D01*
X77989206Y-104067511D01*
X77978000Y-104016000D01*
X77978000Y-94358000D01*
X77997685Y-94290961D01*
X78050489Y-94245206D01*
X78102000Y-94234000D01*
X81279998Y-94234000D01*
X81280000Y-94234000D01*
X81280001Y-94233998D01*
X81280621Y-94233742D01*
X81308251Y-94225895D01*
X81309014Y-94225771D01*
X81309036Y-94225769D01*
X81362448Y-94217114D01*
X81497257Y-94166832D01*
X81558580Y-94133347D01*
X81673762Y-94047123D01*
X83084139Y-92636744D01*
X83131918Y-92581503D01*
X83147203Y-92561007D01*
X83150252Y-92558715D01*
X83173012Y-92523876D01*
X83173013Y-92523877D01*
X83280494Y-92359361D01*
X83293069Y-92343206D01*
X83333336Y-92299463D01*
X83390836Y-92237001D01*
X83405897Y-92223136D01*
X83519816Y-92134472D01*
X83536959Y-92123272D01*
X83562227Y-92109596D01*
X83588494Y-92095382D01*
X83650079Y-92056048D01*
X83678741Y-92034675D01*
X83734002Y-91986881D01*
X84089764Y-91631119D01*
X84151083Y-91597637D01*
X84220774Y-91602621D01*
G37*
%TD.AperFunction*%
%TD*%
%TA.AperFunction,Conductor*%
%TO.N,/B*%
G36*
X115005039Y-83585685D02*
G01*
X115050794Y-83638489D01*
X115062000Y-83690000D01*
X115062000Y-104016000D01*
X115042315Y-104083039D01*
X114989511Y-104128794D01*
X114938000Y-104140000D01*
X102994000Y-104140000D01*
X102926961Y-104120315D01*
X102881206Y-104067511D01*
X102870000Y-104016000D01*
X102870000Y-94358000D01*
X102889685Y-94290961D01*
X102942489Y-94245206D01*
X102994000Y-94234000D01*
X106172000Y-94234000D01*
X108966000Y-91440000D01*
X108966000Y-83690000D01*
X108985685Y-83622961D01*
X109038489Y-83577206D01*
X109090000Y-83566000D01*
X114938000Y-83566000D01*
X115005039Y-83585685D01*
G37*
%TD.AperFunction*%
%TD*%
%TA.AperFunction,Conductor*%
%TO.N,/F#*%
G36*
X83763039Y-83585685D02*
G01*
X83808794Y-83638489D01*
X83820000Y-83690000D01*
X83820000Y-91134637D01*
X83800315Y-91201676D01*
X83783681Y-91222318D01*
X83376560Y-91629438D01*
X83347898Y-91650811D01*
X83258196Y-91699356D01*
X83250491Y-91703526D01*
X83250490Y-91703527D01*
X83054257Y-91856261D01*
X82885833Y-92039217D01*
X82749824Y-92247397D01*
X82748063Y-92250651D01*
X82726696Y-92279302D01*
X81316319Y-93689681D01*
X81254996Y-93723166D01*
X81228638Y-93726000D01*
X74473362Y-93726000D01*
X74406323Y-93706315D01*
X74385681Y-93689681D01*
X71918319Y-91222319D01*
X71884834Y-91160996D01*
X71882000Y-91134638D01*
X71882000Y-83690000D01*
X71901685Y-83622961D01*
X71954489Y-83577206D01*
X72006000Y-83566000D01*
X83696000Y-83566000D01*
X83763039Y-83585685D01*
G37*
%TD.AperFunction*%
%TD*%
%TA.AperFunction,Conductor*%
%TO.N,/VCC_Sw*%
G36*
X132022539Y-40659685D02*
G01*
X132068294Y-40712489D01*
X132079500Y-40764000D01*
X132079500Y-55756000D01*
X132059815Y-55823039D01*
X132007011Y-55868794D01*
X131955500Y-55880000D01*
X124511362Y-55880000D01*
X124444323Y-55860315D01*
X124423681Y-55843681D01*
X119416319Y-50836319D01*
X119382834Y-50774996D01*
X119380000Y-50748638D01*
X119380000Y-45771362D01*
X119399685Y-45704323D01*
X119416319Y-45683681D01*
X124423681Y-40676319D01*
X124485004Y-40642834D01*
X124511362Y-40640000D01*
X131955500Y-40640000D01*
X132022539Y-40659685D01*
G37*
%TD.AperFunction*%
%TD*%
M02*
