%TF.GenerationSoftware,KiCad,Pcbnew,7.0.10-7.0.10~ubuntu22.04.1*%
%TF.CreationDate,2024-01-23T19:21:39+01:00*%
%TF.ProjectId,stylophone,7374796c-6f70-4686-9f6e-652e6b696361,rev?*%
%TF.SameCoordinates,Original*%
%TF.FileFunction,Copper,L1,Top*%
%TF.FilePolarity,Positive*%
%FSLAX46Y46*%
G04 Gerber Fmt 4.6, Leading zero omitted, Abs format (unit mm)*
G04 Created by KiCad (PCBNEW 7.0.10-7.0.10~ubuntu22.04.1) date 2024-01-23 19:21:39*
%MOMM*%
%LPD*%
G01*
G04 APERTURE LIST*
%TA.AperFunction,NonConductor*%
%ADD10C,0.200000*%
%TD*%
%TA.AperFunction,ComponentPad*%
%ADD11O,2.200000X3.500000*%
%TD*%
%TA.AperFunction,ComponentPad*%
%ADD12R,1.500000X2.500000*%
%TD*%
%TA.AperFunction,ComponentPad*%
%ADD13O,1.500000X2.500000*%
%TD*%
%TA.AperFunction,SMDPad,CuDef*%
%ADD14R,2.500000X1.200000*%
%TD*%
%TA.AperFunction,ComponentPad*%
%ADD15R,1.600000X1.600000*%
%TD*%
%TA.AperFunction,ComponentPad*%
%ADD16O,1.600000X1.600000*%
%TD*%
%TA.AperFunction,ComponentPad*%
%ADD17C,1.620000*%
%TD*%
%TA.AperFunction,ComponentPad*%
%ADD18R,2.600000X2.600000*%
%TD*%
%TA.AperFunction,ComponentPad*%
%ADD19O,2.600000X2.600000*%
%TD*%
%TA.AperFunction,ComponentPad*%
%ADD20C,1.600000*%
%TD*%
%TA.AperFunction,ComponentPad*%
%ADD21R,2.000000X2.000000*%
%TD*%
%TA.AperFunction,ComponentPad*%
%ADD22C,2.000000*%
%TD*%
%TA.AperFunction,SMDPad,CuDef*%
%ADD23R,2.540000X3.510000*%
%TD*%
%TA.AperFunction,ViaPad*%
%ADD24C,0.800000*%
%TD*%
%TA.AperFunction,Conductor*%
%ADD25C,0.500000*%
%TD*%
G04 APERTURE END LIST*
D10*
X121920000Y-40640000D02*
G75*
G03*
X121920000Y-60960000I0J-10160000D01*
G01*
X132080000Y-60960000D02*
X132080000Y-40640000D01*
X121920000Y-60960000D02*
X132080000Y-60960000D01*
X132080000Y-40640000D02*
X121920000Y-40640000D01*
X110490000Y-91440000D02*
X110490000Y-83820000D01*
X107950000Y-93980000D02*
X110490000Y-91440000D01*
X100330000Y-93980000D02*
X107950000Y-93980000D01*
X97790000Y-91440000D02*
X100330000Y-93980000D01*
X97790000Y-91440000D02*
X97790000Y-83820000D01*
X95250000Y-93980000D02*
X97790000Y-91440000D01*
X87630000Y-93980000D02*
X95250000Y-93980000D01*
X85090000Y-91440000D02*
X87630000Y-93980000D01*
X85090000Y-91440000D02*
X85090000Y-83820000D01*
X82550000Y-93980000D02*
X85090000Y-91440000D01*
X74930000Y-93980000D02*
X82550000Y-93980000D01*
X72390000Y-91440000D02*
X74930000Y-93980000D01*
X72390000Y-83820000D02*
X72390000Y-91440000D01*
X66040000Y-83820000D02*
X69850000Y-83820000D01*
X66040000Y-93980000D02*
X66040000Y-83820000D01*
X34290000Y-91440000D02*
X34290000Y-83820000D01*
X36830000Y-93980000D02*
X34290000Y-91440000D01*
X44450000Y-93980000D02*
X36830000Y-93980000D01*
X46990000Y-91440000D02*
X46990000Y-83820000D01*
X59690000Y-91440000D02*
X59690000Y-83820000D01*
X57150000Y-93980000D02*
X59690000Y-91440000D01*
X49530000Y-93980000D02*
X57150000Y-93980000D01*
X116840000Y-93980000D02*
X116840000Y-83820000D01*
X46990000Y-91440000D02*
X49530000Y-93980000D01*
X44450000Y-93980000D02*
X46990000Y-91440000D01*
X116840000Y-93980000D02*
X116840000Y-104140000D01*
X104140000Y-93980000D02*
X104140000Y-104140000D01*
X91440000Y-93980000D02*
X91440000Y-104140000D01*
X78740000Y-93980000D02*
X78740000Y-104140000D01*
X66040000Y-104140000D02*
X78740000Y-104140000D01*
X66040000Y-104140000D02*
X66040000Y-93980000D01*
X53340000Y-104140000D02*
X66040000Y-104140000D01*
X53340000Y-104140000D02*
X53340000Y-93980000D01*
X40640000Y-104140000D02*
X53340000Y-104140000D01*
X40640000Y-104140000D02*
X40640000Y-93980000D01*
X129540000Y-93980000D02*
X124460000Y-83820000D01*
X129540000Y-104140000D02*
X129540000Y-93980000D01*
X129540000Y-104140000D02*
X27940000Y-104140000D01*
X31750000Y-83820000D02*
X124460000Y-83820000D01*
X27940000Y-93980000D02*
X31750000Y-83820000D01*
X27940000Y-104140000D02*
X27940000Y-93980000D01*
D11*
%TO.P,SW1,*%
%TO.N,*%
X101600000Y-30480000D03*
X109800000Y-30480000D03*
D12*
%TO.P,SW1,1,A*%
%TO.N,Net-(BT1-+)*%
X103700000Y-30480000D03*
D13*
%TO.P,SW1,2,A*%
X105700000Y-30480000D03*
%TO.P,SW1,3,B*%
%TO.N,Net-(U1-R)*%
X107700000Y-30480000D03*
%TD*%
D14*
%TO.P,J1,R1*%
%TO.N,Net-(D1-A2)*%
X71120000Y-32540000D03*
%TO.P,J1,R2*%
%TO.N,Net-(BT1--)*%
X71120000Y-29540000D03*
%TO.P,J1,S*%
%TO.N,Net-(BZ1--)*%
X64620000Y-37640000D03*
%TO.P,J1,T*%
%TO.N,Net-(D1-A2)*%
X71120000Y-36540000D03*
%TD*%
D15*
%TO.P,U1,1,GND*%
%TO.N,Net-(BT1--)*%
X73660000Y-45720000D03*
D16*
%TO.P,U1,2,TR*%
X73660000Y-48260000D03*
%TO.P,U1,3,Q*%
%TO.N,Net-(D1-A2)*%
X73660000Y-50800000D03*
%TO.P,U1,4,R*%
%TO.N,Net-(U1-R)*%
X73660000Y-53340000D03*
%TO.P,U1,5,CV*%
%TO.N,unconnected-(U1-CV-Pad5)*%
X81280000Y-53340000D03*
%TO.P,U1,6,THR*%
%TO.N,Net-(BT1--)*%
X81280000Y-50800000D03*
%TO.P,U1,7,DIS*%
%TO.N,Net-(U1-DIS)*%
X81280000Y-48260000D03*
%TO.P,U1,8,VCC*%
%TO.N,Net-(U1-R)*%
X81280000Y-45720000D03*
%TD*%
D17*
%TO.P,RV18,3,3*%
%TO.N,Net-(U1-R)*%
X101560000Y-60960000D03*
%TO.P,RV18,2,2*%
%TO.N,Net-(U1-DIS)*%
X106560000Y-63460000D03*
%TO.P,RV18,1,1*%
%TO.N,Net-(BT1--)*%
X101560000Y-65960000D03*
%TD*%
%TO.P,RV17,3,3*%
%TO.N,Net-(U1-R)*%
X119380000Y-73660000D03*
%TO.P,RV17,2,2*%
%TO.N,Net-(U1-DIS)*%
X124380000Y-76160000D03*
%TO.P,RV17,1,1*%
%TO.N,Net-(BT1--)*%
X119380000Y-78660000D03*
%TD*%
%TO.P,RV16,1,1*%
%TO.N,Net-(BT1--)*%
X66000000Y-78740000D03*
%TO.P,RV16,2,2*%
%TO.N,Net-(U1-DIS)*%
X71000000Y-76240000D03*
%TO.P,RV16,3,3*%
%TO.N,Net-(U1-R)*%
X66000000Y-73740000D03*
%TD*%
%TO.P,RV15,3,3*%
%TO.N,Net-(U1-R)*%
X93980000Y-60960000D03*
%TO.P,RV15,2,2*%
%TO.N,Net-(U1-DIS)*%
X98980000Y-63460000D03*
%TO.P,RV15,1,1*%
%TO.N,Net-(BT1--)*%
X93980000Y-65960000D03*
%TD*%
%TO.P,RV14,1,1*%
%TO.N,Net-(BT1--)*%
X43180000Y-78660000D03*
%TO.P,RV14,2,2*%
%TO.N,Net-(U1-DIS)*%
X48180000Y-76160000D03*
%TO.P,RV14,3,3*%
%TO.N,Net-(U1-R)*%
X43180000Y-73660000D03*
%TD*%
%TO.P,RV13,1,1*%
%TO.N,Net-(BT1--)*%
X35560000Y-78660000D03*
%TO.P,RV13,2,2*%
%TO.N,Net-(U1-DIS)*%
X40560000Y-76160000D03*
%TO.P,RV13,3,3*%
%TO.N,Net-(U1-R)*%
X35560000Y-73660000D03*
%TD*%
%TO.P,RV12,1,1*%
%TO.N,Net-(BT1--)*%
X111760000Y-78660000D03*
%TO.P,RV12,2,2*%
%TO.N,Net-(U1-DIS)*%
X116760000Y-76160000D03*
%TO.P,RV12,3,3*%
%TO.N,Net-(U1-R)*%
X111760000Y-73660000D03*
%TD*%
%TO.P,RV11,1,1*%
%TO.N,Net-(BT1--)*%
X104140000Y-78660000D03*
%TO.P,RV11,2,2*%
%TO.N,Net-(U1-DIS)*%
X109140000Y-76160000D03*
%TO.P,RV11,3,3*%
%TO.N,Net-(U1-R)*%
X104140000Y-73660000D03*
%TD*%
%TO.P,RV10,1,1*%
%TO.N,Net-(BT1--)*%
X73620000Y-78740000D03*
%TO.P,RV10,2,2*%
%TO.N,Net-(U1-DIS)*%
X78620000Y-76240000D03*
%TO.P,RV10,3,3*%
%TO.N,Net-(U1-R)*%
X73620000Y-73740000D03*
%TD*%
%TO.P,RV9,3,3*%
%TO.N,Net-(U1-R)*%
X50760000Y-60960000D03*
%TO.P,RV9,2,2*%
%TO.N,Net-(U1-DIS)*%
X55760000Y-63460000D03*
%TO.P,RV9,1,1*%
%TO.N,Net-(BT1--)*%
X50760000Y-65960000D03*
%TD*%
%TO.P,RV8,3,3*%
%TO.N,Net-(U1-R)*%
X86320000Y-60960000D03*
%TO.P,RV8,2,2*%
%TO.N,Net-(U1-DIS)*%
X91320000Y-63460000D03*
%TO.P,RV8,1,1*%
%TO.N,Net-(BT1--)*%
X86320000Y-65960000D03*
%TD*%
%TO.P,RV7,1,1*%
%TO.N,Net-(BT1--)*%
X50760000Y-78740000D03*
%TO.P,RV7,2,2*%
%TO.N,Net-(U1-DIS)*%
X55760000Y-76240000D03*
%TO.P,RV7,3,3*%
%TO.N,Net-(U1-R)*%
X50760000Y-73740000D03*
%TD*%
%TO.P,RV6,1,1*%
%TO.N,Net-(BT1--)*%
X96520000Y-78660000D03*
%TO.P,RV6,2,2*%
%TO.N,Net-(U1-DIS)*%
X101520000Y-76160000D03*
%TO.P,RV6,3,3*%
%TO.N,Net-(U1-R)*%
X96520000Y-73660000D03*
%TD*%
%TO.P,RV5,1,1*%
%TO.N,Net-(BT1--)*%
X88900000Y-78660000D03*
%TO.P,RV5,2,2*%
%TO.N,Net-(U1-DIS)*%
X93900000Y-76160000D03*
%TO.P,RV5,3,3*%
%TO.N,Net-(U1-R)*%
X88900000Y-73660000D03*
%TD*%
%TO.P,RV4,1,1*%
%TO.N,Net-(BT1--)*%
X81280000Y-78660000D03*
%TO.P,RV4,2,2*%
%TO.N,Net-(U1-DIS)*%
X86280000Y-76160000D03*
%TO.P,RV4,3,3*%
%TO.N,Net-(U1-R)*%
X81280000Y-73660000D03*
%TD*%
%TO.P,RV3,3,3*%
%TO.N,Net-(U1-R)*%
X43140000Y-60960000D03*
%TO.P,RV3,2,2*%
%TO.N,Net-(U1-DIS)*%
X48140000Y-63460000D03*
%TO.P,RV3,1,1*%
%TO.N,Net-(BT1--)*%
X43140000Y-65960000D03*
%TD*%
%TO.P,RV2,3,3*%
%TO.N,unconnected-(RV2-Pad3)*%
X124500000Y-32940000D03*
%TO.P,RV2,2,2*%
%TO.N,Net-(D1-A2)*%
X127000000Y-27940000D03*
%TO.P,RV2,1,1*%
%TO.N,Net-(BT1--)*%
X129500000Y-32940000D03*
%TD*%
%TO.P,RV1,1,1*%
%TO.N,Net-(BT1--)*%
X58420000Y-78660000D03*
%TO.P,RV1,2,2*%
%TO.N,Net-(U1-DIS)*%
X63420000Y-76160000D03*
%TO.P,RV1,3,3*%
%TO.N,Net-(U1-R)*%
X58420000Y-73660000D03*
%TD*%
D18*
%TO.P,D1,1,A1*%
%TO.N,Net-(BZ1--)*%
X93980000Y-48260000D03*
D19*
%TO.P,D1,2,A2*%
%TO.N,Net-(D1-A2)*%
X93980000Y-52070000D03*
%TD*%
D20*
%TO.P,C1,1*%
%TO.N,Net-(BT1--)*%
X58420000Y-50760000D03*
%TO.P,C1,2*%
X58420000Y-48260000D03*
%TD*%
D21*
%TO.P,BZ1,1,-*%
%TO.N,Net-(BZ1--)*%
X81280000Y-33020000D03*
D22*
%TO.P,BZ1,2,+*%
%TO.N,Net-(BT1--)*%
X88880000Y-33020000D03*
%TD*%
D23*
%TO.P,BT1,1,+*%
%TO.N,Net-(BT1-+)*%
X50240000Y-38100000D03*
%TO.P,BT1,2,-*%
%TO.N,Net-(BT1--)*%
X20880000Y-38100000D03*
%TD*%
D24*
%TO.N,*%
X114300000Y-50800000D03*
%TD*%
D25*
%TO.N,Net-(U1-R)*%
X88900000Y-73660000D02*
X96520000Y-73660000D01*
X81280000Y-60960000D02*
X43140000Y-60960000D01*
X73660000Y-53340000D02*
X81280000Y-60960000D01*
X81280000Y-60960000D02*
X101560000Y-60960000D01*
%TO.N,Net-(BT1-+)*%
X105700000Y-30480000D02*
X105700000Y-31460000D01*
X105700000Y-31460000D02*
X97135000Y-40025000D01*
X97135000Y-40025000D02*
X52165000Y-40025000D01*
X52165000Y-40025000D02*
X50240000Y-38100000D01*
%TO.N,Net-(U1-R)*%
X81280000Y-45720000D02*
X92960000Y-45720000D01*
X92960000Y-45720000D02*
X107700000Y-30980000D01*
X107700000Y-30980000D02*
X107700000Y-30480000D01*
%TO.N,Net-(D1-A2)*%
X73660000Y-50800000D02*
X78740000Y-55880000D01*
X90170000Y-55880000D02*
X93980000Y-52070000D01*
X78740000Y-55880000D02*
X90170000Y-55880000D01*
X93980000Y-52070000D02*
X118110000Y-27940000D01*
X118110000Y-27940000D02*
X127000000Y-27940000D01*
%TO.N,Net-(BT1--)*%
X20880000Y-38100000D02*
X31040000Y-48260000D01*
X31040000Y-48260000D02*
X58420000Y-48260000D01*
X88880000Y-33020000D02*
X85400000Y-29540000D01*
X85400000Y-29540000D02*
X71120000Y-29540000D01*
X73660000Y-48260000D02*
X78740000Y-48260000D01*
X78740000Y-48260000D02*
X81280000Y-50800000D01*
%TO.N,Net-(D1-A2)*%
X71120000Y-32540000D02*
X51875000Y-32540000D01*
X51875000Y-32540000D02*
X48260000Y-36155000D01*
X48260000Y-36155000D02*
X48260000Y-40045000D01*
X48260000Y-40045000D02*
X53935000Y-45720000D01*
X53935000Y-45720000D02*
X68580000Y-45720000D01*
X68580000Y-45720000D02*
X73660000Y-50800000D01*
X71120000Y-36540000D02*
X71120000Y-32540000D01*
%TO.N,Net-(BZ1--)*%
X64620000Y-37640000D02*
X76660000Y-37640000D01*
X76660000Y-37640000D02*
X81280000Y-33020000D01*
%TD*%
M02*
